<svg version="1.1" viewBox="0.0 0.0 558.2230971128608 157.29658792650918" fill="none" stroke="none" stroke-linecap="square" stroke-miterlimit="10" xmlns:xlink="http://www.w3.org/1999/xlink" xmlns="http://www.w3.org/2000/svg"><clipPath id="p.0"><path d="m0 0l558.2231 0l0 157.29659l-558.2231 0l0 -157.29659z" clip-rule="nonzero"/></clipPath><g clip-path="url(#p.0)"><path fill="#000000" fill-opacity="0.0" d="m0 0l558.2231 0l0 157.29659l-558.2231 0z" fill-rule="evenodd"/><path fill="#f4cccc" d="m73.154854 48.750656l0 0c0 -11.625523 9.424347 -21.04987 21.049873 -21.04987l439.1286 0c5.5827637 0 10.93689 2.2177486 14.8845215 6.1653633c3.9476318 3.9476166 6.165344 9.301735 6.165344 14.884506l0 84.19948c0 11.625519 -9.424316 21.049866 -21.049866 21.049866l-439.1286 0c-11.625526 0 -21.049873 -9.424347 -21.049873 -21.049866z" fill-rule="evenodd"/><path stroke="#ff0000" stroke-width="3.0" stroke-linejoin="round" stroke-linecap="butt" d="m73.154854 48.750656l0 0c0 -11.625523 9.424347 -21.04987 21.049873 -21.04987l439.1286 0c5.5827637 0 10.93689 2.2177486 14.8845215 6.1653633c3.9476318 3.9476166 6.165344 9.301735 6.165344 14.884506l0 84.19948c0 11.625519 -9.424316 21.049866 -21.049866 21.049866l-439.1286 0c-11.625526 0 -21.049873 -9.424347 -21.049873 -21.049866z" fill-rule="evenodd"/><path fill="#000000" d="m315.56332 122.34845q-1.0 0 -1.8125 0.375q-0.8125 0.375 -1.40625 1.109375q-0.578125 0.71875 -0.90625 1.796875q-0.3125 1.078125 -0.3125 2.5q0 1.421875 0.296875 2.5q0.3125 1.0625 0.90625 1.796875q0.609375 0.71875 1.46875 1.09375q0.875 0.375 2.0 0.375q1.21875 0 2.109375 -0.5q0.90625 -0.5 1.484375 -1.359375q0.59375 -0.875 0.921875 -1.953125l1.15625 0.46875q-0.40625 1.375 -1.1875 2.390625q-0.78125 1.015625 -1.9375 1.578125q-1.15625 0.546875 -2.640625 0.546875q-1.4375 0 -2.625 -0.453125q-1.1875 -0.46875 -2.046875 -1.375q-0.859375 -0.90625 -1.3125 -2.1875q-0.453125 -1.296875 -0.453125 -2.921875q0 -1.640625 0.46875 -2.921875q0.484375 -1.296875 1.328125 -2.1875q0.859375 -0.890625 2.0 -1.359375q1.15625 -0.484375 2.484375 -0.484375q1.3125 0 2.25 0.4375q0.953125 0.4375 1.5625 1.28125q0.625 0.828125 0.875 2.0625l-0.546875 -0.484375l0.265625 -3.0625l1.203125 0l0 4.4375l-1.296875 0q-0.3125 -1.078125 -0.890625 -1.859375q-0.578125 -0.78125 -1.4375 -1.203125q-0.84375 -0.4375 -1.96875 -0.4375zm17.822449 7.40625q0 1.578125 -0.625 2.765625q-0.625 1.171875 -1.765625 1.8125q-1.125 0.625 -2.625 0.625q-1.53125 0 -2.671875 -0.625q-1.125 -0.640625 -1.75 -1.8125q-0.625 -1.1875 -0.625 -2.765625q0 -1.1875 0.359375 -2.140625q0.359375 -0.96875 1.03125 -1.65625q0.671875 -0.6875 1.59375 -1.046875q0.921875 -0.359375 2.0625 -0.359375q1.140625 0 2.046875 0.359375q0.921875 0.359375 1.59375 1.046875q0.671875 0.6875 1.015625 1.65625q0.359375 0.953125 0.359375 2.140625zm-8.296875 0q0 1.34375 0.359375 2.265625q0.375 0.90625 1.09375 1.359375q0.734375 0.453125 1.828125 0.453125q1.078125 0 1.796875 -0.453125q0.734375 -0.453125 1.09375 -1.359375q0.375 -0.921875 0.375 -2.265625q0 -1.3125 -0.375 -2.203125q-0.359375 -0.90625 -1.09375 -1.375q-0.71875 -0.484375 -1.796875 -0.484375q-1.09375 0 -1.828125 0.484375q-0.71875 0.46875 -1.09375 1.375q-0.359375 0.890625 -0.359375 2.203125zm9.97171 5.0l0 -0.890625l0.0625 0q0.48440552 0 0.8281555 -0.078125q0.359375 -0.09375 0.546875 -0.328125q0.1875 -0.234375 0.1875 -0.640625l0 -6.234375q0 -0.28125 -0.15625 -0.421875q-0.15625 -0.140625 -0.484375 -0.234375q-0.3125 -0.09375 -0.7969055 -0.1875l-0.1875 -0.03125l0 -0.96875l2.9844055 0l0.234375 2.125l0.0625 0.09375l0 6.71875q0 0.046875 0.21875 0.09375q0.234375 0.046875 0.546875 0.078125q0.328125 0.015625 0.578125 0.015625l0.078125 0l0 0.890625l-4.7031555 0zm11.3125305 0l-4.703125 0l0 -0.890625l0.046875 0q0.265625 0 0.578125 -0.015625q0.328125 -0.03125 0.5625 -0.078125q0.234375 -0.046875 0.234375 -0.09375l0 -6.109375q0 -0.609375 -0.171875 -1.0q-0.15625 -0.390625 -0.515625 -0.578125q-0.34375 -0.203125 -0.9375 -0.203125q-0.625 0 -1.21875 0.25q-0.578125 0.234375 -1.125 0.71875q-0.546875 0.484375 -1.109375 1.25l0 -1.015625q0.53125 -0.796875 1.125 -1.328125q0.609375 -0.546875 1.28125 -0.828125q0.6875 -0.28125 1.46875 -0.28125q0.921875 0 1.546875 0.3125q0.625 0.296875 0.96875 0.921875q0.34375 0.625 0.34375 1.578125l0 5.453125q0 0.40625 0.1875 0.640625q0.1875 0.234375 0.53125 0.328125q0.359375 0.078125 0.84375 0.078125l0.0625 0l0 0.890625zm10.967957 -1.734375q0 0.40625 0.421875 0.546875q0.421875 0.125 1.109375 0.203125l0.09375 0.015625l0 0.96875l-2.984375 0l-0.234375 -2.1875l-0.0625 -0.015625l0 -10.09375q0 -0.28125 -0.171875 -0.421875q-0.15625 -0.140625 -0.484375 -0.234375q-0.328125 -0.09375 -0.828125 -0.1875l-0.1875 -0.03125l0 -0.96875l3.328125 0l0 12.40625zm-4.953125 -8.46875q0.828125 0 1.46875 0.28125q0.640625 0.28125 1.171875 0.8125q0.53125 0.515625 0.984375 1.296875l-0.0625 1.234375q-0.453125 -0.84375 -0.984375 -1.390625q-0.515625 -0.5625 -1.125 -0.8125q-0.609375 -0.265625 -1.359375 -0.265625q-0.71875 0 -1.28125 0.28125q-0.5625 0.265625 -0.9375 0.78125q-0.375 0.515625 -0.5625 1.296875q-0.171875 0.78125 -0.171875 1.765625q0 0.953125 0.171875 1.703125q0.171875 0.734375 0.515625 1.25q0.34375 0.515625 0.890625 0.78125q0.546875 0.25 1.265625 0.25q0.78125 0 1.421875 -0.265625q0.640625 -0.265625 1.171875 -0.8125q0.546875 -0.5625 1.03125 -1.375l0.015625 1.140625q-0.484375 0.78125 -1.03125 1.328125q-0.53125 0.546875 -1.21875 0.84375q-0.671875 0.28125 -1.53125 0.28125q-1.421875 0 -2.421875 -0.640625q-0.984375 -0.640625 -1.515625 -1.796875q-0.53125 -1.15625 -0.53125 -2.6875q0 -1.546875 0.546875 -2.734375q0.5625 -1.1875 1.59375 -1.859375q1.046875 -0.6875 2.484375 -0.6875zm10.149414 -1.875q-0.53125 0 -0.875 -0.296875q-0.328125 -0.296875 -0.328125 -0.890625q0 -0.578125 0.328125 -0.875q0.34375 -0.296875 0.875 -0.296875q0.53125 0 0.875 0.296875q0.34375 0.296875 0.34375 0.875q0 0.59375 -0.34375 0.890625q-0.34375 0.296875 -0.875 0.296875zm0.953125 2.0625l0 8.171875q0 0.578125 0.421875 0.765625q0.4375 0.1875 1.171875 0.1875l0.046875 0l0 0.890625l-4.921875 0l0 -0.890625l0.0625 0q0.71875 0 1.140625 -0.1875q0.4375 -0.1875 0.4375 -0.765625l0 -6.328125q0 -0.40625 -0.359375 -0.546875q-0.34375 -0.140625 -1.09375 -0.296875l-0.1875 -0.03125l0 -0.96875l3.28125 0zm2.4529724 1.109375l0 -1.015625l0.203125 0q0.625 0 1.046875 -0.078125q0.4375 -0.09375 0.65625 -0.34375q0.21875 -0.265625 0.21875 -0.796875l1.203125 1.125l3.5625 0l0 1.109375l-6.890625 0zm3.65625 5.859375q0 0.796875 0.21875 1.25q0.21875 0.4375 0.640625 0.625q0.4375 0.1875 1.046875 0.1875q0.484375 0 0.890625 -0.0625q0.40625 -0.078125 0.5625 -0.109375l0 1.125q-0.1875 0.046875 -0.46875 0.09375q-0.28125 0.0625 -0.578125 0.09375q-0.296875 0.046875 -0.625 0.046875q-0.875 0 -1.640625 -0.25q-0.765625 -0.265625 -1.25 -0.96875q-0.46875 -0.703125 -0.46875 -2.0l0 -6.71875l0.140625 -0.15625l0 -2.984375l1.53125 0l0 9.828125zm7.135071 -9.03125q-0.53125 0 -0.875 -0.296875q-0.328125 -0.296875 -0.328125 -0.890625q0 -0.578125 0.328125 -0.875q0.34375 -0.296875 0.875 -0.296875q0.53125 0 0.875 0.296875q0.34375 0.296875 0.34375 0.875q0 0.59375 -0.34375 0.890625q-0.34375 0.296875 -0.875 0.296875zm0.953125 2.0625l0 8.171875q0 0.578125 0.421875 0.765625q0.4375 0.1875 1.171875 0.1875l0.046875 0l0 0.890625l-4.921875 0l0 -0.890625l0.0625 0q0.71875 0 1.140625 -0.1875q0.4375 -0.1875 0.4375 -0.765625l0 -6.328125q0 -0.40625 -0.359375 -0.546875q-0.34375 -0.140625 -1.09375 -0.296875l-0.1875 -0.03125l0 -0.96875l3.28125 0zm13.140472 5.015625q0 1.578125 -0.625 2.765625q-0.625 1.171875 -1.765625 1.8125q-1.125 0.625 -2.625 0.625q-1.53125 0 -2.671875 -0.625q-1.125 -0.640625 -1.75 -1.8125q-0.625 -1.1875 -0.625 -2.765625q0 -1.1875 0.359375 -2.140625q0.359375 -0.96875 1.03125 -1.65625q0.671875 -0.6875 1.59375 -1.046875q0.921875 -0.359375 2.0625 -0.359375q1.140625 0 2.046875 0.359375q0.921875 0.359375 1.59375 1.046875q0.671875 0.6875 1.015625 1.65625q0.359375 0.953125 0.359375 2.140625zm-8.296875 0q0 1.34375 0.359375 2.265625q0.375 0.90625 1.09375 1.359375q0.734375 0.453125 1.828125 0.453125q1.078125 0 1.796875 -0.453125q0.734375 -0.453125 1.09375 -1.359375q0.375 -0.921875 0.375 -2.265625q0 -1.3125 -0.375 -2.203125q-0.359375 -0.90625 -1.09375 -1.375q-0.71875 -0.484375 -1.796875 -0.484375q-1.09375 0 -1.828125 0.484375q-0.71875 0.46875 -1.09375 1.375q-0.359375 0.890625 -0.359375 2.203125zm9.971741 5.0l0 -0.890625l0.0625 0q0.484375 0 0.828125 -0.078125q0.359375 -0.09375 0.546875 -0.328125q0.1875 -0.234375 0.1875 -0.640625l0 -6.234375q0 -0.28125 -0.15625 -0.421875q-0.15625 -0.140625 -0.484375 -0.234375q-0.3125 -0.09375 -0.796875 -0.1875l-0.1875 -0.03125l0 -0.96875l2.984375 0l0.234375 2.125l0.0625 0.09375l0 6.71875q0 0.046875 0.21875 0.09375q0.234375 0.046875 0.546875 0.078125q0.328125 0.015625 0.578125 0.015625l0.078125 0l0 0.890625l-4.703125 0zm11.3125 0l-4.703125 0l0 -0.890625l0.046875 0q0.265625 0 0.578125 -0.015625q0.328125 -0.03125 0.5625 -0.078125q0.234375 -0.046875 0.234375 -0.09375l0 -6.109375q0 -0.609375 -0.171875 -1.0q-0.15625 -0.390625 -0.515625 -0.578125q-0.34375 -0.203125 -0.9375 -0.203125q-0.625 0 -1.21875 0.25q-0.578125 0.234375 -1.125 0.71875q-0.546875 0.484375 -1.109375 1.25l0 -1.015625q0.53125 -0.796875 1.125 -1.328125q0.609375 -0.546875 1.28125 -0.828125q0.6875 -0.28125 1.46875 -0.28125q0.921875 0 1.546875 0.3125q0.625 0.296875 0.96875 0.921875q0.34375 0.625 0.34375 1.578125l0 5.453125q0 0.40625 0.1875 0.640625q0.1875 0.234375 0.53125 0.328125q0.359375 0.078125 0.84375 0.078125l0.0625 0l0 0.890625zm8.092957 -6.09375l0 0.984375q-1.140625 0.140625 -1.96875 0.328125q-0.8125 0.1875 -1.359375 0.421875q-0.53125 0.21875 -0.859375 0.5q-0.3125 0.28125 -0.453125 0.640625q-0.125 0.34375 -0.125 0.75q0 0.53125 0.21875 0.890625q0.21875 0.34375 0.609375 0.53125q0.390625 0.171875 0.921875 0.171875q0.59375 0 1.09375 -0.28125q0.5 -0.28125 0.96875 -0.84375q0.46875 -0.5625 0.921875 -1.390625l0.015625 1.09375q-0.375 0.765625 -0.875 1.328125q-0.484375 0.5625 -1.109375 0.875q-0.625 0.296875 -1.421875 0.296875q-0.890625 0 -1.578125 -0.296875q-0.6875 -0.3125 -1.078125 -0.90625q-0.390625 -0.609375 -0.390625 -1.4375q0 -0.796875 0.34375 -1.375q0.359375 -0.578125 1.125 -1.0q0.78125 -0.4375 2.015625 -0.75q1.234375 -0.3125 2.984375 -0.53125zm-0.03125 6.09375l-0.234375 -2.171875l-0.09375 -0.109375l0 -4.859375q0 -0.71875 -0.1875 -1.140625q-0.1875 -0.4375 -0.625 -0.609375q-0.4375 -0.1875 -1.171875 -0.1875q-1.125 0 -1.84375 0.3125q-0.703125 0.3125 -1.0625 0.671875q0 -0.15625 0.078125 -0.3125q0.078125 -0.15625 0.203125 -0.296875q0.140625 -0.140625 0.3125 -0.234375q0.171875 -0.09375 0.40625 -0.125l0 2.15625l-1.640625 0l0 -2.265625q0.25 -0.21875 0.75 -0.4375q0.5 -0.234375 1.21875 -0.40625q0.734375 -0.1875 1.640625 -0.1875q0.75 0 1.40625 0.15625q0.65625 0.140625 1.140625 0.484375q0.484375 0.328125 0.765625 0.875q0.28125 0.53125 0.28125 1.3125l0 5.640625q0 0.265625 0.171875 0.421875q0.1875 0.140625 0.515625 0.203125q0.34375 0.0625 0.828125 0.125l0.09375 0.015625l0 0.96875l-2.953125 0zm7.423462 -14.140625l0 12.296875q0 0.578125 0.421875 0.765625q0.4375 0.1875 1.15625 0.1875l0.0625 0l0 0.890625l-4.921875 0l0 -0.890625l0.0625 0q0.734375 0 1.15625 -0.1875q0.421875 -0.1875 0.421875 -0.765625l0 -10.453125q0 -0.28125 -0.171875 -0.421875q-0.15625 -0.140625 -0.46875 -0.234375q-0.3125 -0.09375 -0.828125 -0.1875l-0.171875 -0.03125l0 -0.96875l3.28125 0zm13.956848 0.890625q1.015625 0 1.8125 0.21875q0.8125 0.21875 1.34375 0.65625q0.546875 0.421875 0.828125 1.0625q0.296875 0.625 0.296875 1.421875q0 0.875 -0.453125 1.578125q-0.453125 0.6875 -1.375 1.078125q-0.90625 0.375 -2.25 0.375l0.828125 -0.53125l0 0.84375l-0.765625 -0.53125q1.5 0.03125 2.515625 0.453125q1.015625 0.40625 1.546875 1.15625q0.53125 0.734375 0.53125 1.75q0 0.90625 -0.3125 1.59375q-0.3125 0.6875 -0.921875 1.171875q-0.59375 0.46875 -1.46875 0.71875q-0.859375 0.234375 -1.984375 0.234375l-6.171875 0l0 -1.03125l0.203125 0q0.703125 0 1.140625 -0.125q0.453125 -0.125 0.453125 -0.546875l0 -9.859375q0 -0.421875 -0.453125 -0.546875q-0.4375 -0.125 -1.140625 -0.125l-0.203125 0l0 -1.015625l6.0 0zm-3.046875 5.765625l3.0 0q0.921875 0 1.484375 -0.28125q0.578125 -0.28125 0.828125 -0.8125q0.25 -0.546875 0.25 -1.296875q0 -0.71875 -0.28125 -1.21875q-0.265625 -0.515625 -0.8125 -0.78125q-0.546875 -0.265625 -1.46875 -0.265625l-2.421875 0l0 11.015625l2.609375 0q1.015625 0 1.65625 -0.296875q0.640625 -0.296875 0.9375 -0.875q0.3125 -0.59375 0.3125 -1.4375q0 -0.84375 -0.3125 -1.4375q-0.3125 -0.59375 -0.984375 -0.90625q-0.65625 -0.328125 -1.71875 -0.328125l-3.078125 0l0 -1.078125zm16.547668 1.390625l0 0.984375q-1.140625 0.140625 -1.96875 0.328125q-0.8125 0.1875 -1.359375 0.421875q-0.53125 0.21875 -0.859375 0.5q-0.3125 0.28125 -0.453125 0.640625q-0.125 0.34375 -0.125 0.75q0 0.53125 0.21875 0.890625q0.21875 0.34375 0.609375 0.53125q0.390625 0.171875 0.921875 0.171875q0.59375 0 1.09375 -0.28125q0.5 -0.28125 0.96875 -0.84375q0.46875 -0.5625 0.921875 -1.390625l0.015625 1.09375q-0.375 0.765625 -0.875 1.328125q-0.484375 0.5625 -1.109375 0.875q-0.625 0.296875 -1.421875 0.296875q-0.890625 0 -1.578125 -0.296875q-0.6875 -0.3125 -1.078125 -0.90625q-0.390625 -0.609375 -0.390625 -1.4375q0 -0.796875 0.34375 -1.375q0.359375 -0.578125 1.125 -1.0q0.78125 -0.4375 2.015625 -0.75q1.234375 -0.3125 2.984375 -0.53125zm-0.03125 6.09375l-0.234375 -2.171875l-0.09375 -0.109375l0 -4.859375q0 -0.71875 -0.1875 -1.140625q-0.1875 -0.4375 -0.625 -0.609375q-0.4375 -0.1875 -1.171875 -0.1875q-1.125 0 -1.84375 0.3125q-0.703125 0.3125 -1.0625 0.671875q0 -0.15625 0.078125 -0.3125q0.078125 -0.15625 0.203125 -0.296875q0.140625 -0.140625 0.3125 -0.234375q0.171875 -0.09375 0.40625 -0.125l0 2.15625l-1.640625 0l0 -2.265625q0.25 -0.21875 0.75 -0.4375q0.5 -0.234375 1.21875 -0.40625q0.734375 -0.1875 1.640625 -0.1875q0.75 0 1.40625 0.15625q0.65625 0.140625 1.140625 0.484375q0.484375 0.328125 0.765625 0.875q0.28125 0.53125 0.28125 1.3125l0 5.640625q0 0.265625 0.171875 0.421875q0.1875 0.140625 0.515625 0.203125q0.34375 0.0625 0.828125 0.125l0.09375 0.015625l0 0.96875l-2.953125 0zm3.2996826 -8.90625l0 -1.015625l0.203125 0q0.625 0 1.046875 -0.078125q0.4375 -0.09375 0.65625 -0.34375q0.21875 -0.265625 0.21875 -0.796875l1.203125 1.125l3.5625 0l0 1.109375l-6.890625 0zm3.65625 5.859375q0 0.796875 0.21875 1.25q0.21875 0.4375 0.640625 0.625q0.4375 0.1875 1.046875 0.1875q0.484375 0 0.890625 -0.0625q0.40625 -0.078125 0.5625 -0.109375l0 1.125q-0.1875 0.046875 -0.46875 0.09375q-0.28125 0.0625 -0.578125 0.09375q-0.296875 0.046875 -0.625 0.046875q-0.875 0 -1.640625 -0.25q-0.765625 -0.265625 -1.25 -0.96875q-0.46875 -0.703125 -0.46875 -2.0l0 -6.71875l0.140625 -0.15625l0 -2.984375l1.53125 0l0 9.828125zm9.885925 2.125q0.8125 0 1.40625 -0.265625q0.59375 -0.28125 1.0 -0.71875q0.421875 -0.4375 0.75 -0.921875l0.875 0.71875q-0.375 0.671875 -0.96875 1.203125q-0.578125 0.53125 -1.359375 0.828125q-0.765625 0.28125 -1.75 0.28125q-1.578125 0 -2.734375 -0.640625q-1.140625 -0.640625 -1.765625 -1.8125q-0.609375 -1.171875 -0.609375 -2.75q0 -1.609375 0.640625 -2.765625q0.640625 -1.171875 1.796875 -1.796875q1.171875 -0.640625 2.765625 -0.640625q0.984375 0 1.71875 0.171875q0.75 0.15625 1.25 0.375q0.515625 0.21875 0.734375 0.390625l0 2.828125l-1.6875 0l0 -2.40625q0.1875 0.015625 0.359375 0.09375q0.171875 0.0625 0.28125 0.171875q0.109375 0.109375 0.15625 0.25q0.0625 0.125 0.0625 0.265625q-0.40625 -0.421875 -1.171875 -0.703125q-0.765625 -0.296875 -1.703125 -0.296875q-1.171875 0 -1.9375 0.484375q-0.765625 0.46875 -1.140625 1.390625q-0.359375 0.90625 -0.359375 2.1875q0 0.984375 0.203125 1.75q0.203125 0.765625 0.625 1.296875q0.421875 0.515625 1.046875 0.78125q0.640625 0.25 1.515625 0.25zm8.777222 -13.21875l0 13.0625q0 0.046875 0.21875 0.09375q0.234375 0.046875 0.546875 0.078125q0.328125 0.015625 0.578125 0.015625l0.078125 0l0 0.890625l-4.71875 0l0 -0.890625l0.0625 0q0.484375 0 0.828125 -0.078125q0.359375 -0.09375 0.546875 -0.328125q0.203125 -0.234375 0.203125 -0.640625l0 -10.359375q0 -0.28125 -0.15625 -0.421875q-0.15625 -0.140625 -0.484375 -0.234375q-0.3125 -0.09375 -0.8125 -0.1875l-0.1875 -0.03125l0 -0.96875l3.296875 0zm8.03125 14.140625l-4.71875 0l0 -0.890625l0.078125 0q0.25 0 0.5625 -0.015625q0.328125 -0.03125 0.546875 -0.078125q0.234375 -0.046875 0.234375 -0.09375l0 -6.109375q0 -0.609375 -0.15625 -1.0q-0.15625 -0.390625 -0.515625 -0.578125q-0.34375 -0.203125 -0.953125 -0.203125q-0.625 0 -1.21875 0.25q-0.578125 0.234375 -1.125 0.71875q-0.546875 0.484375 -1.109375 1.234375l0 -1.0q0.53125 -0.796875 1.125 -1.328125q0.609375 -0.546875 1.28125 -0.828125q0.6875 -0.28125 1.46875 -0.28125q0.921875 0 1.546875 0.3125q0.640625 0.296875 0.96875 0.921875q0.34375 0.625 0.34375 1.578125l0 5.453125q0 0.40625 0.1875 0.640625q0.203125 0.234375 0.546875 0.328125q0.359375 0.078125 0.84375 0.078125l0.0625 0l0 0.890625zm6.3342285 0l0 -1.03125l0.21875 0q0.453125 0 0.8125 -0.0625q0.359375 -0.0625 0.5625 -0.21875q0.203125 -0.15625 0.203125 -0.421875l0 -9.828125q0 -0.28125 -0.203125 -0.421875q-0.203125 -0.140625 -0.5625 -0.1875q-0.359375 -0.0625 -0.8125 -0.0625l-0.21875 0l0 -1.015625l4.1875 0l6.546875 11.515625l-0.21875 0.09375l0 -10.359375q0 -0.078125 -0.265625 -0.109375q-0.25 -0.046875 -0.625 -0.078125q-0.359375 -0.046875 -0.734375 -0.046875l-0.265625 0l0 -1.015625l4.953125 0l0 1.015625l-0.234375 0q-0.4375 0 -0.8125 0.078125q-0.359375 0.0625 -0.5625 0.21875q-0.203125 0.140625 -0.203125 0.421875l0 11.515625l-1.875 0l-7.109375 -12.46875l0.265625 -0.0625l0 11.28125q0 0.0625 0.265625 0.125q0.265625 0.046875 0.640625 0.078125q0.375 0.015625 0.71875 0.015625l0.265625 0l0 1.03125l-4.9375 0zm25.139221 -5.0q0 1.578125 -0.625 2.765625q-0.625 1.171875 -1.765625 1.8125q-1.125 0.625 -2.625 0.625q-1.53125 0 -2.671875 -0.625q-1.125 -0.640625 -1.75 -1.8125q-0.625 -1.1875 -0.625 -2.765625q0 -1.1875 0.359375 -2.140625q0.359375 -0.96875 1.03125 -1.65625q0.671875 -0.6875 1.59375 -1.046875q0.921875 -0.359375 2.0625 -0.359375q1.140625 0 2.046875 0.359375q0.921875 0.359375 1.59375 1.046875q0.671875 0.6875 1.015625 1.65625q0.359375 0.953125 0.359375 2.140625zm-8.296875 0q0 1.34375 0.359375 2.265625q0.375 0.90625 1.09375 1.359375q0.734375 0.453125 1.828125 0.453125q1.078125 0 1.796875 -0.453125q0.734375 -0.453125 1.09375 -1.359375q0.375 -0.921875 0.375 -2.265625q0 -1.3125 -0.375 -2.203125q-0.359375 -0.90625 -1.09375 -1.375q-0.71875 -0.484375 -1.796875 -0.484375q-1.09375 0 -1.828125 0.484375q-0.71875 0.46875 -1.09375 1.375q-0.359375 0.890625 -0.359375 2.203125zm17.00296 -5.15625l0 1.796875q-0.125 -0.03125 -0.3125 -0.046875q-0.1875 -0.03125 -0.390625 -0.046875q-0.1875 -0.015625 -0.375 -0.015625q-0.515625 0 -0.9375 0.109375q-0.40625 0.09375 -0.75 0.3125q-0.34375 0.21875 -0.65625 0.5625q-0.3125 0.328125 -0.65625 0.8125l0 -0.859375q0.46875 -0.875 0.953125 -1.46875q0.5 -0.609375 1.09375 -0.90625q0.59375 -0.3125 1.34375 -0.3125q0.21875 0 0.421875 0.015625q0.203125 0.015625 0.265625 0.046875zm-7.03125 10.15625l0 -0.890625l0.0625 0q0.71875 0 1.140625 -0.203125q0.421875 -0.21875 0.421875 -0.84375l0 -6.234375q0 -0.28125 -0.15625 -0.421875q-0.15625 -0.140625 -0.484375 -0.234375q-0.3125 -0.09375 -0.796875 -0.1875l-0.1875 -0.03125l0 -0.96875l2.984375 0l0.234375 2.5l0.0625 -0.078125l0 6.28125q0 0.171875 0.265625 0.265625q0.265625 0.09375 0.609375 0.125q0.359375 0.03125 0.625 0.03125l0.40625 0l0 0.890625l-5.1875 0zm8.41394 0l0 -0.890625l0.0625 0q0.71875 0 1.140625 -0.203125q0.421875 -0.21875 0.421875 -0.84375l0 -6.234375q0 -0.28125 -0.15625 -0.421875q-0.15625 -0.140625 -0.484375 -0.234375q-0.3125 -0.09375 -0.796875 -0.1875l-0.1875 -0.03125l0 -0.96875l2.96875 0l0.21875 2.109375l0.09375 0.109375l0 6.71875q0 0.046875 0.21875 0.09375q0.234375 0.046875 0.53125 0.078125q0.3125 0.015625 0.5625 0.015625l0.078125 0l0 0.890625l-4.671875 0zm10.59375 0l-4.421875 0l0 -0.890625l0.0625 0q0.265625 0 0.5625 -0.015625q0.3125 -0.03125 0.53125 -0.078125q0.234375 -0.046875 0.234375 -0.09375l0 -6.109375q0 -0.59375 -0.140625 -0.984375q-0.125 -0.40625 -0.421875 -0.59375q-0.296875 -0.203125 -0.84375 -0.203125q-0.578125 0 -1.109375 0.25q-0.515625 0.234375 -1.046875 0.71875q-0.515625 0.46875 -1.0625 1.171875l0.015625 -1.078125q0.53125 -0.734375 1.078125 -1.234375q0.5625 -0.515625 1.1875 -0.78125q0.640625 -0.28125 1.390625 -0.28125q0.8125 0 1.40625 0.3125q0.59375 0.296875 0.890625 0.921875q0.3125 0.625 0.3125 1.578125l0 6.3125q0 0.046875 0.203125 0.09375q0.21875 0.046875 0.53125 0.078125q0.328125 0.015625 0.59375 0.015625l0.046875 0l0 0.890625zm6.203125 0l-4.6875 0l0 -0.890625l0.078125 0q0.265625 0 0.5625 -0.015625q0.296875 -0.03125 0.5 -0.078125q0.21875 -0.046875 0.21875 -0.09375l0 -6.109375q0 -0.59375 -0.125 -0.984375q-0.125 -0.40625 -0.4375 -0.59375q-0.296875 -0.203125 -0.8125 -0.203125q-0.578125 0 -1.109375 0.25q-0.53125 0.234375 -1.046875 0.71875q-0.515625 0.46875 -1.078125 1.171875l0 -1.078125q0.5625 -0.734375 1.109375 -1.234375q0.5625 -0.515625 1.1875 -0.78125q0.625 -0.28125 1.359375 -0.28125q0.84375 0 1.421875 0.3125q0.578125 0.296875 0.875 0.921875q0.3125 0.625 0.3125 1.578125l0 5.453125q0 0.625 0.421875 0.84375q0.4375 0.203125 1.171875 0.203125l0.078125 0l0 0.890625z" fill-rule="nonzero"/><path fill="#ffffff" d="m266.2651 47.774277l267.14957 0l0 33.259842l-267.14957 0z" fill-rule="evenodd"/><path stroke="#000000" stroke-width="1.0" stroke-linejoin="round" stroke-linecap="butt" d="m266.2651 47.774277l267.14957 0l0 33.259842l-267.14957 0z" fill-rule="evenodd"/><path fill="#000000" d="m288.3119 59.07795l-4.28125 0l0 0.796875l0.15625 0q0.546875 0 0.890625 0.109375q0.359375 0.09375 0.359375 0.40625l0 7.765625q0 0.3125 -0.359375 0.421875q-0.34375 0.09375 -0.890625 0.09375l-0.15625 0l0 0.8125l7.9375 0l0 -3.375l-0.921875 0l-0.171875 1.84375q-0.015625 0.25 -0.21875 0.390625q-0.203125 0.140625 -0.59375 0.203125q-0.390625 0.046875 -1.015625 0.046875l-2.25 0l0 -8.203125q0 -0.3125 0.375 -0.40625q0.375 -0.109375 0.9375 -0.109375l0.203125 0l0 -0.796875zm6.799988 0.921875q-0.4375 0 -0.703125 -0.234375q-0.25 -0.234375 -0.25 -0.703125q0 -0.453125 0.25 -0.6875q0.265625 -0.234375 0.703125 -0.234375q0.40625 0 0.671875 0.234375q0.28125 0.234375 0.28125 0.6875q0 0.46875 -0.28125 0.703125q-0.265625 0.234375 -0.671875 0.234375zm0.734375 1.609375l0 6.421875q0 0.453125 0.34375 0.609375q0.34375 0.140625 0.90625 0.140625l0.046875 0l0 0.703125l-3.875 0l0 -0.703125l0.046875 0q0.578125 0 0.90625 -0.140625q0.34375 -0.15625 0.34375 -0.609375l0 -4.96875q0 -0.3125 -0.28125 -0.421875q-0.28125 -0.125 -0.859375 -0.234375l-0.15625 -0.03125l0 -0.765625l2.578125 0zm2.331726 7.875l0 -0.703125l0.046875 0q0.390625 0 0.65625 -0.0625q0.28125 -0.0625 0.421875 -0.25q0.15625 -0.1875 0.15625 -0.515625l0 -4.890625q0 -0.21875 -0.125 -0.328125q-0.125 -0.109375 -0.375 -0.171875q-0.25 -0.078125 -0.625 -0.15625l-0.15625 -0.03125l0 -0.765625l2.34375 0l0.1875 1.671875l0.046875 0.078125l0 5.28125q0 0.03125 0.171875 0.078125q0.1875 0.03125 0.4375 0.046875q0.25 0.015625 0.453125 0.015625l0.0625 0l0 0.703125l-3.703125 0zm8.890625 0l-3.703125 0l0 -0.703125l0.046875 0q0.203125 0 0.453125 -0.015625q0.25 -0.015625 0.4375 -0.046875q0.1875 -0.046875 0.1875 -0.078125l0 -4.796875q0 -0.484375 -0.125 -0.78125q-0.125 -0.3125 -0.40625 -0.46875q-0.28125 -0.15625 -0.75 -0.15625q-0.484375 0 -0.953125 0.1875q-0.453125 0.1875 -0.890625 0.578125q-0.421875 0.375 -0.859375 0.96875l0 -0.78125q0.421875 -0.640625 0.890625 -1.0625q0.46875 -0.421875 1.0 -0.640625q0.53125 -0.21875 1.15625 -0.21875q0.71875 0 1.203125 0.25q0.5 0.234375 0.765625 0.734375q0.265625 0.484375 0.265625 1.234375l0 4.265625q0 0.328125 0.140625 0.515625q0.15625 0.1875 0.4375 0.25q0.28125 0.0625 0.65625 0.0625l0.046875 0l0 0.703125zm2.4242554 -3.859375q0 0.859375 0.203125 1.46875q0.203125 0.59375 0.5625 0.96875q0.375 0.359375 0.84375 0.53125q0.484375 0.171875 1.03125 0.171875q0.625 0 1.078125 -0.21875q0.453125 -0.21875 0.78125 -0.546875q0.328125 -0.34375 0.5625 -0.734375l0.703125 0.578125q-0.28125 0.515625 -0.734375 0.9375q-0.453125 0.40625 -1.0625 0.640625q-0.609375 0.21875 -1.359375 0.21875q-1.109375 0 -2.0 -0.46875q-0.890625 -0.46875 -1.421875 -1.375q-0.515625 -0.90625 -0.515625 -2.1875q0 -1.234375 0.46875 -2.15625q0.484375 -0.9375 1.3125 -1.453125q0.828125 -0.53125 1.890625 -0.53125q0.875 0 1.5 0.28125q0.625 0.28125 1.046875 0.84375q0.4375 0.546875 0.65625 1.390625q0.21875 0.828125 0.21875 1.9375l-6.0625 0l0 -0.84375l5.09375 0l-0.375 0.3125q-0.03125 -0.828125 -0.15625 -1.40625q-0.125 -0.578125 -0.375 -0.9375q-0.234375 -0.359375 -0.625 -0.515625q-0.375 -0.171875 -0.921875 -0.171875q-0.5 0 -0.9375 0.203125q-0.4375 0.1875 -0.75 0.609375q-0.3125 0.40625 -0.484375 1.03125q-0.171875 0.609375 -0.171875 1.421875zm12.306213 -0.9375l0 0.78125q-0.890625 0.109375 -1.546875 0.265625q-0.640625 0.140625 -1.0625 0.328125q-0.421875 0.171875 -0.671875 0.390625q-0.25 0.21875 -0.359375 0.5q-0.09375 0.28125 -0.09375 0.59375q0 0.40625 0.15625 0.6875q0.171875 0.28125 0.484375 0.421875q0.3125 0.140625 0.71875 0.140625q0.46875 0 0.859375 -0.21875q0.390625 -0.21875 0.75 -0.65625q0.375 -0.453125 0.734375 -1.109375l0.015625 0.875q-0.296875 0.59375 -0.6875 1.03125q-0.390625 0.4375 -0.875 0.6875q-0.484375 0.234375 -1.109375 0.234375q-0.703125 0 -1.25 -0.234375q-0.53125 -0.25 -0.84375 -0.71875q-0.3125 -0.46875 -0.3125 -1.125q0 -0.609375 0.28125 -1.0625q0.28125 -0.453125 0.890625 -0.796875q0.609375 -0.34375 1.578125 -0.578125q0.96875 -0.25 2.34375 -0.4375zm-0.03125 4.796875l-0.171875 -1.703125l-0.078125 -0.078125l0 -3.828125q0 -0.5625 -0.15625 -0.890625q-0.140625 -0.34375 -0.484375 -0.484375q-0.34375 -0.15625 -0.921875 -0.15625q-0.890625 0 -1.453125 0.25q-0.546875 0.25 -0.828125 0.53125q0 -0.125 0.0625 -0.25q0.0625 -0.125 0.15625 -0.234375q0.109375 -0.109375 0.25 -0.171875q0.140625 -0.078125 0.3125 -0.109375l0 1.703125l-1.296875 0l0 -1.78125q0.203125 -0.171875 0.59375 -0.34375q0.390625 -0.1875 0.953125 -0.328125q0.578125 -0.140625 1.296875 -0.140625q0.59375 0 1.109375 0.125q0.515625 0.109375 0.890625 0.375q0.375 0.265625 0.59375 0.6875q0.21875 0.421875 0.21875 1.03125l0 4.4375q0 0.203125 0.140625 0.328125q0.15625 0.109375 0.421875 0.15625q0.265625 0.046875 0.640625 0.09375l0.078125 0.015625l0 0.765625l-2.328125 0zm8.747742 -7.96875l0 1.40625q-0.109375 -0.03125 -0.25 -0.046875q-0.140625 -0.015625 -0.296875 -0.03125q-0.15625 -0.015625 -0.296875 -0.015625q-0.421875 0 -0.75 0.078125q-0.3125 0.078125 -0.59375 0.25q-0.265625 0.171875 -0.515625 0.4375q-0.234375 0.265625 -0.5 0.640625l0 -0.671875q0.359375 -0.6875 0.75 -1.15625q0.390625 -0.46875 0.859375 -0.703125q0.46875 -0.25 1.046875 -0.25q0.1875 0 0.328125 0.015625q0.15625 0.015625 0.21875 0.046875zm-5.53125 7.96875l0 -0.703125l0.046875 0q0.578125 0 0.90625 -0.15625q0.328125 -0.171875 0.328125 -0.671875l0 -4.890625q0 -0.21875 -0.125 -0.328125q-0.125 -0.109375 -0.375 -0.171875q-0.25 -0.078125 -0.625 -0.15625l-0.15625 -0.03125l0 -0.765625l2.34375 0l0.1875 1.96875l0.046875 -0.0625l0 4.9375q0 0.140625 0.203125 0.21875q0.21875 0.0625 0.484375 0.09375q0.28125 0.015625 0.5 0.015625l0.3125 0l0 0.703125l-4.078125 0zm14.873779 -10.40625l-4.28125 0l0 0.796875l0.15625 0q0.546875 0 0.890625 0.109375q0.359375 0.09375 0.359375 0.40625l0 7.765625q0 0.3125 -0.359375 0.421875q-0.34375 0.09375 -0.890625 0.09375l-0.15625 0l0 0.8125l7.9375 0l0 -3.375l-0.921875 0l-0.171875 1.84375q-0.015625 0.25 -0.21875 0.390625q-0.203125 0.140625 -0.59375 0.203125q-0.390625 0.046875 -1.015625 0.046875l-2.25 0l0 -8.203125q0 -0.3125 0.375 -0.40625q0.375 -0.109375 0.9375 -0.109375l0.203125 0l0 -0.796875zm10.46225 5.609375l0 0.78125q-0.890625 0.109375 -1.546875 0.265625q-0.640625 0.140625 -1.0625 0.328125q-0.421875 0.171875 -0.671875 0.390625q-0.25 0.21875 -0.359375 0.5q-0.09375 0.28125 -0.09375 0.59375q0 0.40625 0.15625 0.6875q0.171875 0.28125 0.484375 0.421875q0.3125 0.140625 0.71875 0.140625q0.46875 0 0.859375 -0.21875q0.390625 -0.21875 0.75 -0.65625q0.375 -0.453125 0.734375 -1.109375l0.015625 0.875q-0.296875 0.59375 -0.6875 1.03125q-0.390625 0.4375 -0.875 0.6875q-0.484375 0.234375 -1.109375 0.234375q-0.703125 0 -1.25 -0.234375q-0.53125 -0.25 -0.84375 -0.71875q-0.3125 -0.46875 -0.3125 -1.125q0 -0.609375 0.28125 -1.0625q0.28125 -0.453125 0.890625 -0.796875q0.609375 -0.34375 1.578125 -0.578125q0.96875 -0.25 2.34375 -0.4375zm-0.03125 4.796875l-0.171875 -1.703125l-0.078125 -0.078125l0 -3.828125q0 -0.5625 -0.15625 -0.890625q-0.140625 -0.34375 -0.484375 -0.484375q-0.34375 -0.15625 -0.921875 -0.15625q-0.890625 0 -1.453125 0.25q-0.546875 0.25 -0.828125 0.53125q0 -0.125 0.0625 -0.25q0.0625 -0.125 0.15625 -0.234375q0.109375 -0.109375 0.25 -0.171875q0.140625 -0.078125 0.3125 -0.109375l0 1.703125l-1.296875 0l0 -1.78125q0.203125 -0.171875 0.59375 -0.34375q0.390625 -0.1875 0.953125 -0.328125q0.578125 -0.140625 1.296875 -0.140625q0.59375 0 1.109375 0.125q0.515625 0.109375 0.890625 0.375q0.375 0.265625 0.59375 0.6875q0.21875 0.421875 0.21875 1.03125l0 4.4375q0 0.203125 0.140625 0.328125q0.15625 0.109375 0.421875 0.15625q0.265625 0.046875 0.640625 0.09375l0.078125 0.015625l0 0.765625l-2.328125 0zm7.396698 -0.640625l-0.15625 0.53125l-0.71875 0.453125l-2.84375 -6.953125q-0.09375 -0.203125 -0.25 -0.296875q-0.140625 -0.109375 -0.375 -0.140625q-0.21875 -0.046875 -0.53125 -0.046875l-0.09375 0l0 -0.78125l3.75 0l0 0.78125l-0.0625 0q-0.296875 0 -0.59375 0.015625q-0.28125 0 -0.46875 0.03125q-0.171875 0.015625 -0.171875 0.078125l2.515625 6.328125zm0.203125 0.390625q-0.40625 1.0 -0.8125 1.703125q-0.390625 0.703125 -0.8125 1.125q-0.40625 0.421875 -0.890625 0.625q-0.484375 0.203125 -1.09375 0.203125q-0.40625 0 -0.71875 -0.09375q-0.296875 -0.078125 -0.453125 -0.171875l0 -1.171875q0.03125 0.015625 0.203125 0.078125q0.171875 0.0625 0.421875 0.125q0.265625 0.0625 0.5625 0.0625q0.375 0 0.71875 -0.109375q0.34375 -0.109375 0.6875 -0.421875q0.34375 -0.296875 0.6875 -0.90625q0.359375 -0.609375 0.734375 -1.59375l0.109375 -0.25l2.296875 -5.734375q0 -0.109375 -0.171875 -0.171875q-0.171875 -0.0625 -0.453125 -0.09375q-0.28125 -0.046875 -0.578125 -0.046875l-0.0625 0l0 -0.78125l3.4375 0l0 0.78125l-0.078125 0q-0.25 0 -0.484375 0.0625q-0.21875 0.046875 -0.40625 0.1875q-0.1875 0.140625 -0.296875 0.4375l-2.546875 6.15625zm5.7732544 -3.609375q0 0.859375 0.203125 1.46875q0.203125 0.59375 0.5625 0.96875q0.375 0.359375 0.84375 0.53125q0.484375 0.171875 1.03125 0.171875q0.625 0 1.078125 -0.21875q0.453125 -0.21875 0.78125 -0.546875q0.328125 -0.34375 0.5625 -0.734375l0.703125 0.578125q-0.28125 0.515625 -0.734375 0.9375q-0.453125 0.40625 -1.0625 0.640625q-0.609375 0.21875 -1.359375 0.21875q-1.109375 0 -2.0 -0.46875q-0.890625 -0.46875 -1.421875 -1.375q-0.515625 -0.90625 -0.515625 -2.1875q0 -1.234375 0.46875 -2.15625q0.484375 -0.9375 1.3125 -1.453125q0.828125 -0.53125 1.890625 -0.53125q0.875 0 1.5 0.28125q0.625 0.28125 1.046875 0.84375q0.4375 0.546875 0.65625 1.390625q0.21875 0.828125 0.21875 1.9375l-6.0625 0l0 -0.84375l5.09375 0l-0.375 0.3125q-0.03125 -0.828125 -0.15625 -1.40625q-0.125 -0.578125 -0.375 -0.9375q-0.234375 -0.359375 -0.625 -0.515625q-0.375 -0.171875 -0.921875 -0.171875q-0.5 0 -0.9375 0.203125q-0.4375 0.1875 -0.75 0.609375q-0.3125 0.40625 -0.484375 1.03125q-0.171875 0.609375 -0.171875 1.421875zm12.551422 -4.109375l0 1.40625q-0.109375 -0.03125 -0.25 -0.046875q-0.140625 -0.015625 -0.296875 -0.03125q-0.15625 -0.015625 -0.296875 -0.015625q-0.421875 0 -0.75 0.078125q-0.3125 0.078125 -0.59375 0.25q-0.265625 0.171875 -0.515625 0.4375q-0.234375 0.265625 -0.5 0.640625l0 -0.671875q0.359375 -0.6875 0.75 -1.15625q0.390625 -0.46875 0.859375 -0.703125q0.46875 -0.25 1.046875 -0.25q0.1875 0 0.328125 0.015625q0.15625 0.015625 0.21875 0.046875zm-5.53125 7.96875l0 -0.703125l0.046875 0q0.578125 0 0.90625 -0.15625q0.328125 -0.171875 0.328125 -0.671875l0 -4.890625q0 -0.21875 -0.125 -0.328125q-0.125 -0.109375 -0.375 -0.171875q-0.25 -0.078125 -0.625 -0.15625l-0.15625 -0.03125l0 -0.765625l2.34375 0l0.1875 1.96875l0.046875 -0.0625l0 4.9375q0 0.140625 0.203125 0.21875q0.21875 0.0625 0.484375 0.09375q0.28125 0.015625 0.5 0.015625l0.3125 0l0 0.703125l-4.078125 0zm12.061249 -4.546875q0 -1.15625 0.234375 -2.140625q0.25 -0.984375 0.6875 -1.796875q0.4375 -0.8125 0.953125 -1.421875q0.53125 -0.609375 1.078125 -1.046875l0 -0.046875l-1.046875 0q-0.625 0.421875 -1.203125 1.046875q-0.578125 0.625 -1.046875 1.453125q-0.453125 0.828125 -0.71875 1.828125q-0.265625 1.0 -0.265625 2.125q0 1.125 0.265625 2.125q0.265625 1.0 0.71875 1.828125q0.46875 0.8125 1.046875 1.453125q0.578125 0.640625 1.203125 1.046875l1.046875 0l0 -0.046875q-0.546875 -0.4375 -1.078125 -1.0625q-0.515625 -0.609375 -0.953125 -1.40625q-0.4375 -0.8125 -0.6875 -1.796875q-0.234375 -0.984375 -0.234375 -2.140625zm6.4179993 -1.25l6.171875 0l0 0.875l-6.171875 0l0 -0.875zm-2.390625 5.796875l0 -0.8125l0.15625 0q0.546875 0 0.890625 -0.09375q0.359375 -0.109375 0.359375 -0.421875l0 -7.765625q0 -0.3125 -0.359375 -0.40625q-0.34375 -0.109375 -0.890625 -0.109375l-0.15625 0l0 -0.796875l4.171875 0l0 0.796875l-0.125 0q-0.21875 0 -0.453125 0.015625q-0.21875 0 -0.40625 0.015625q-0.1875 0.015625 -0.3125 0.046875q-0.109375 0.015625 -0.109375 0.0625l0 8.53125q0 0.046875 0.109375 0.078125q0.125 0.015625 0.3125 0.03125q0.1875 0.015625 0.40625 0.015625q0.234375 0 0.453125 0l0.125 0l0 0.8125l-4.171875 0zm6.78125 0l0 -0.796875l0.125 0q0.21875 0 0.4375 -0.015625q0.234375 -0.015625 0.421875 -0.015625q0.1875 -0.015625 0.296875 -0.03125q0.125 -0.03125 0.125 -0.078125l0 -8.53125q0 -0.046875 -0.125 -0.0625q-0.109375 -0.03125 -0.296875 -0.046875q-0.1875 -0.015625 -0.421875 -0.015625q-0.21875 -0.015625 -0.4375 -0.015625l-0.125 0l0 -0.796875l4.171875 0l0 0.796875l-0.15625 0q-0.546875 0 -0.90625 0.109375q-0.34375 0.09375 -0.34375 0.40625l0 7.765625q0 0.3125 0.34375 0.421875q0.359375 0.09375 0.90625 0.09375l0.15625 0l0 0.8125l-4.171875 0zm7.392456 -9.484375q-0.4375 0 -0.703125 -0.234375q-0.25 -0.234375 -0.25 -0.703125q0 -0.453125 0.25 -0.6875q0.265625 -0.234375 0.703125 -0.234375q0.40625 0 0.671875 0.234375q0.28125 0.234375 0.28125 0.6875q0 0.46875 -0.28125 0.703125q-0.265625 0.234375 -0.671875 0.234375zm0.734375 1.609375l0 6.421875q0 0.453125 0.34375 0.609375q0.34375 0.140625 0.90625 0.140625l0.046875 0l0 0.703125l-3.875 0l0 -0.703125l0.046875 0q0.578125 0 0.90625 -0.140625q0.34375 -0.15625 0.34375 -0.609375l0 -4.96875q0 -0.3125 -0.28125 -0.421875q-0.28125 -0.125 -0.859375 -0.234375l-0.15625 -0.03125l0 -0.765625l2.578125 0zm9.941132 6.515625q0 0.3125 0.328125 0.421875q0.328125 0.109375 0.875 0.15625l0.078125 0.015625l0 0.765625l-2.34375 0l-0.1875 -1.71875l-0.046875 -0.015625l0 -7.921875q0 -0.21875 -0.125 -0.328125q-0.125 -0.109375 -0.390625 -0.1875q-0.25 -0.078125 -0.640625 -0.140625l-0.15625 -0.03125l0 -0.765625l2.609375 0l0 9.75zm-3.875 -6.65625q0.640625 0 1.140625 0.21875q0.515625 0.21875 0.921875 0.640625q0.421875 0.40625 0.78125 1.015625l-0.046875 0.96875q-0.375 -0.65625 -0.78125 -1.09375q-0.40625 -0.4375 -0.890625 -0.640625q-0.46875 -0.203125 -1.0625 -0.203125q-0.5625 0 -1.015625 0.21875q-0.4375 0.203125 -0.734375 0.625q-0.28125 0.40625 -0.4375 1.015625q-0.140625 0.609375 -0.140625 1.375q0 0.75 0.140625 1.34375q0.140625 0.578125 0.40625 0.984375q0.28125 0.40625 0.703125 0.609375q0.421875 0.203125 1.0 0.203125q0.609375 0 1.109375 -0.203125q0.5 -0.21875 0.921875 -0.640625q0.421875 -0.4375 0.8125 -1.09375l0.015625 0.90625q-0.390625 0.609375 -0.8125 1.046875q-0.421875 0.421875 -0.96875 0.65625q-0.53125 0.21875 -1.203125 0.21875q-1.109375 0 -1.890625 -0.5q-0.78125 -0.5 -1.203125 -1.40625q-0.40625 -0.921875 -0.40625 -2.125q0 -1.203125 0.421875 -2.140625q0.4375 -0.9375 1.25 -1.46875q0.828125 -0.53125 1.96875 -0.53125zm13.738678 6.65625q0 0.3125 0.328125 0.421875q0.328125 0.109375 0.875 0.15625l0.078125 0.015625l0 0.765625l-2.34375 0l-0.1875 -1.71875l-0.046875 -0.015625l0 -7.921875q0 -0.21875 -0.125 -0.328125q-0.125 -0.109375 -0.390625 -0.1875q-0.25 -0.078125 -0.640625 -0.140625l-0.15625 -0.03125l0 -0.765625l2.609375 0l0 9.75zm-3.875 -6.65625q0.640625 0 1.140625 0.21875q0.515625 0.21875 0.921875 0.640625q0.421875 0.40625 0.78125 1.015625l-0.046875 0.96875q-0.375 -0.65625 -0.78125 -1.09375q-0.40625 -0.4375 -0.890625 -0.640625q-0.46875 -0.203125 -1.0625 -0.203125q-0.5625 0 -1.015625 0.21875q-0.4375 0.203125 -0.734375 0.625q-0.28125 0.40625 -0.4375 1.015625q-0.140625 0.609375 -0.140625 1.375q0 0.75 0.140625 1.34375q0.140625 0.578125 0.40625 0.984375q0.28125 0.40625 0.703125 0.609375q0.421875 0.203125 1.0 0.203125q0.609375 0 1.109375 -0.203125q0.5 -0.21875 0.921875 -0.640625q0.421875 -0.4375 0.8125 -1.09375l0.015625 0.90625q-0.390625 0.609375 -0.8125 1.046875q-0.421875 0.421875 -0.96875 0.65625q-0.53125 0.21875 -1.203125 0.21875q-1.109375 0 -1.890625 -0.5q-0.78125 -0.5 -1.203125 -1.40625q-0.40625 -0.921875 -0.40625 -2.125q0 -1.203125 0.421875 -2.140625q0.4375 -0.9375 1.25 -1.46875q0.828125 -0.53125 1.96875 -0.53125zm7.5512085 4.15625q0 0.859375 0.203125 1.46875q0.203125 0.59375 0.5625 0.96875q0.375 0.359375 0.84375 0.53125q0.484375 0.171875 1.03125 0.171875q0.625 0 1.078125 -0.21875q0.453125 -0.21875 0.78125 -0.546875q0.328125 -0.34375 0.5625 -0.734375l0.703125 0.578125q-0.28125 0.515625 -0.734375 0.9375q-0.453125 0.40625 -1.0625 0.640625q-0.609375 0.21875 -1.359375 0.21875q-1.109375 0 -2.0 -0.46875q-0.890625 -0.46875 -1.421875 -1.375q-0.515625 -0.90625 -0.515625 -2.1875q0 -1.234375 0.46875 -2.15625q0.484375 -0.9375 1.3125 -1.453125q0.828125 -0.53125 1.890625 -0.53125q0.875 0 1.5 0.28125q0.625 0.28125 1.046875 0.84375q0.4375 0.546875 0.65625 1.390625q0.21875 0.828125 0.21875 1.9375l-6.0625 0l0 -0.84375l5.09375 0l-0.375 0.3125q-0.03125 -0.828125 -0.15625 -1.40625q-0.125 -0.578125 -0.375 -0.9375q-0.234375 -0.359375 -0.625 -0.515625q-0.375 -0.171875 -0.921875 -0.171875q-0.5 0 -0.9375 0.203125q-0.4375 0.1875 -0.75 0.609375q-0.3125 0.40625 -0.484375 1.03125q-0.171875 0.609375 -0.171875 1.421875zm7.0201416 3.859375l0 -0.703125l0.046875 0q0.390625 0 0.65625 -0.0625q0.28125 -0.0625 0.421875 -0.25q0.15625 -0.1875 0.15625 -0.515625l0 -4.890625q0 -0.21875 -0.125 -0.328125q-0.125 -0.109375 -0.375 -0.171875q-0.25 -0.078125 -0.625 -0.15625l-0.15625 -0.03125l0 -0.765625l2.34375 0l0.1875 1.671875l0.046875 0.078125l0 5.28125q0 0.03125 0.171875 0.078125q0.1875 0.03125 0.4375 0.046875q0.25 0.015625 0.453125 0.015625l0.0625 0l0 0.703125l-3.703125 0zm8.890625 0l-3.703125 0l0 -0.703125l0.046875 0q0.203125 0 0.453125 -0.015625q0.25 -0.015625 0.4375 -0.046875q0.1875 -0.046875 0.1875 -0.078125l0 -4.796875q0 -0.484375 -0.125 -0.78125q-0.125 -0.3125 -0.40625 -0.46875q-0.28125 -0.15625 -0.75 -0.15625q-0.484375 0 -0.953125 0.1875q-0.453125 0.1875 -0.890625 0.578125q-0.421875 0.375 -0.859375 0.96875l0 -0.78125q0.421875 -0.640625 0.890625 -1.0625q0.46875 -0.421875 1.0 -0.640625q0.53125 -0.21875 1.15625 -0.21875q0.71875 0 1.203125 0.25q0.5 0.234375 0.765625 0.734375q0.265625 0.484375 0.265625 1.234375l0 4.265625q0 0.328125 0.140625 0.515625q0.15625 0.1875 0.4375 0.25q0.28125 0.0625 0.65625 0.0625l0.046875 0l0 0.703125zm8.078644 1.078125q1.09375 0 1.90625 -0.421875q0.828125 -0.421875 1.28125 -1.21875q0.46875 -0.8125 0.46875 -1.953125q0 -0.96875 -0.375 -1.703125q-0.359375 -0.734375 -1.0625 -1.15625q-0.703125 -0.421875 -1.671875 -0.421875q-0.5625 0 -1.03125 0.171875q-0.46875 0.15625 -0.84375 0.5q-0.375 0.34375 -0.640625 0.84375q0.015625 0.125 0.078125 0.140625q0.078125 0 0.15625 -0.046875q0.078125 -0.0625 0.09375 -0.125l0 -4.75l-0.390625 0.84375l4.703125 0l0.375 -1.125l-5.625 0l0 5.5625l0.828125 0q0.265625 -0.40625 0.5625 -0.65625q0.3125 -0.25 0.671875 -0.359375q0.375 -0.125 0.828125 -0.125q0.578125 0 1.015625 0.25q0.453125 0.25 0.703125 0.78125q0.25 0.515625 0.25 1.375q0 0.9375 -0.28125 1.546875q-0.28125 0.59375 -0.796875 0.890625q-0.5 0.28125 -1.1875 0.28125q-0.828125 0 -1.34375 -0.28125q-0.515625 -0.28125 -0.828125 -0.703125q-0.296875 -0.421875 -0.5 -0.84375l-0.8125 0.5625q0.28125 0.59375 0.71875 1.078125q0.4375 0.5 1.109375 0.78125q0.671875 0.28125 1.640625 0.28125zm9.473175 -2.375q0 0.21875 0.203125 0.34375q0.21875 0.109375 0.59375 0.15625q0.375 0.03125 0.890625 0.03125l0.609375 0l0 0.765625l-5.984375 0l0 -0.765625l0.796875 0q0.484375 0 0.828125 -0.03125q0.34375 -0.046875 0.53125 -0.15625q0.1875 -0.125 0.1875 -0.34375l0 -7.03125l0.234375 -0.171875q-0.109375 0.34375 -0.359375 0.59375q-0.25 0.234375 -0.640625 0.421875q-0.390625 0.171875 -0.859375 0.25q-0.46875 0.078125 -0.984375 0.078125l0 -0.953125q0.5625 -0.015625 1.03125 -0.078125q0.484375 -0.078125 0.859375 -0.21875q0.375 -0.15625 0.671875 -0.390625q0.296875 -0.234375 0.484375 -0.546875l0.90625 0l0 8.046875zm7.6918945 0.234375l-3.484375 0q-0.0625 0.046875 -0.0625 0.125q0 0.078125 0.03125 0.140625q0.03125 0.0625 0.09375 0.0625q0.828125 -0.5625 1.65625 -1.140625q0.84375 -0.59375 1.59375 -1.1875q0.765625 -0.59375 1.34375 -1.21875q0.578125 -0.625 0.921875 -1.28125q0.34375 -0.65625 0.34375 -1.34375q0 -0.890625 -0.375 -1.46875q-0.359375 -0.578125 -1.046875 -0.875q-0.6875 -0.296875 -1.6875 -0.296875q-0.71875 0 -1.328125 0.21875q-0.609375 0.203125 -1.046875 0.5q-0.4375 0.28125 -0.65625 0.5625l0 1.75l1.328125 0l0 -1.859375q-0.078125 -0.03125 -0.1875 0.015625q-0.09375 0.046875 -0.203125 0.171875q-0.09375 0.109375 -0.171875 0.265625q-0.078125 0.15625 -0.09375 0.328125q0.234375 -0.3125 0.5625 -0.546875q0.34375 -0.25 0.796875 -0.390625q0.453125 -0.140625 0.953125 -0.140625q0.5625 0 0.953125 0.15625q0.40625 0.15625 0.609375 0.53125q0.21875 0.375 0.21875 1.046875q0 0.640625 -0.25 1.203125q-0.234375 0.546875 -0.6875 1.0625q-0.4375 0.515625 -1.0625 1.03125q-0.609375 0.5 -1.359375 1.0625q-0.75 0.546875 -1.59375 1.1875l0 1.390625l6.65625 0l0 -2.96875l-0.890625 0l-0.140625 1.3125q-0.03125 0.25 -0.203125 0.390625q-0.171875 0.125 -0.546875 0.171875q-0.375 0.03125 -0.984375 0.03125zm10.611938 -10.046875l0 9.65625q0 0.453125 0.34375 0.609375q0.34375 0.140625 0.90625 0.140625l0.046875 0l0 0.703125l-3.875 0l0 -0.703125l0.0625 0q0.578125 0 0.90625 -0.140625q0.328125 -0.15625 0.328125 -0.609375l0 -8.203125q0 -0.21875 -0.125 -0.328125q-0.125 -0.109375 -0.375 -0.1875q-0.25 -0.078125 -0.640625 -0.140625l-0.15625 -0.03125l0 -0.765625l2.578125 0zm7.6452026 6.3125l0 0.78125q-0.890625 0.109375 -1.546875 0.265625q-0.640625 0.140625 -1.0625 0.328125q-0.421875 0.171875 -0.671875 0.390625q-0.25 0.21875 -0.359375 0.5q-0.09375 0.28125 -0.09375 0.59375q0 0.40625 0.15625 0.6875q0.171875 0.28125 0.484375 0.421875q0.3125 0.140625 0.71875 0.140625q0.46875 0 0.859375 -0.21875q0.390625 -0.21875 0.75 -0.65625q0.375 -0.453125 0.734375 -1.109375l0.015625 0.875q-0.296875 0.59375 -0.6875 1.03125q-0.390625 0.4375 -0.875 0.6875q-0.484375 0.234375 -1.109375 0.234375q-0.703125 0 -1.25 -0.234375q-0.53125 -0.25 -0.84375 -0.71875q-0.3125 -0.46875 -0.3125 -1.125q0 -0.609375 0.28125 -1.0625q0.28125 -0.453125 0.890625 -0.796875q0.609375 -0.34375 1.578125 -0.578125q0.96875 -0.25 2.34375 -0.4375zm-0.03125 4.796875l-0.171875 -1.703125l-0.078125 -0.078125l0 -3.828125q0 -0.5625 -0.15625 -0.890625q-0.140625 -0.34375 -0.484375 -0.484375q-0.34375 -0.15625 -0.921875 -0.15625q-0.890625 0 -1.453125 0.25q-0.546875 0.25 -0.828125 0.53125q0 -0.125 0.0625 -0.25q0.0625 -0.125 0.15625 -0.234375q0.109375 -0.109375 0.25 -0.171875q0.140625 -0.078125 0.3125 -0.109375l0 1.703125l-1.296875 0l0 -1.78125q0.203125 -0.171875 0.59375 -0.34375q0.390625 -0.1875 0.953125 -0.328125q0.578125 -0.140625 1.296875 -0.140625q0.59375 0 1.109375 0.125q0.515625 0.109375 0.890625 0.375q0.375 0.265625 0.59375 0.6875q0.21875 0.421875 0.21875 1.03125l0 4.4375q0 0.203125 0.140625 0.328125q0.15625 0.109375 0.421875 0.15625q0.265625 0.046875 0.640625 0.09375l0.078125 0.015625l0 0.765625l-2.328125 0zm7.396698 -0.640625l-0.15625 0.53125l-0.71875 0.453125l-2.84375 -6.953125q-0.09375 -0.203125 -0.25 -0.296875q-0.140625 -0.109375 -0.375 -0.140625q-0.21875 -0.046875 -0.53125 -0.046875l-0.09375 0l0 -0.78125l3.75 0l0 0.78125l-0.0625 0q-0.296875 0 -0.59375 0.015625q-0.28125 0 -0.46875 0.03125q-0.171875 0.015625 -0.171875 0.078125l2.515625 6.328125zm0.203125 0.390625q-0.40625 1.0 -0.8125 1.703125q-0.390625 0.703125 -0.8125 1.125q-0.40625 0.421875 -0.890625 0.625q-0.484375 0.203125 -1.09375 0.203125q-0.40625 0 -0.71875 -0.09375q-0.296875 -0.078125 -0.453125 -0.171875l0 -1.171875q0.03125 0.015625 0.203125 0.078125q0.171875 0.0625 0.421875 0.125q0.265625 0.0625 0.5625 0.0625q0.375 0 0.71875 -0.109375q0.34375 -0.109375 0.6875 -0.421875q0.34375 -0.296875 0.6875 -0.90625q0.359375 -0.609375 0.734375 -1.59375l0.109375 -0.25l2.296875 -5.734375q0 -0.109375 -0.171875 -0.171875q-0.171875 -0.0625 -0.453125 -0.09375q-0.28125 -0.046875 -0.578125 -0.046875l-0.0625 0l0 -0.78125l3.4375 0l0 0.78125l-0.078125 0q-0.25 0 -0.484375 0.0625q-0.21875 0.046875 -0.40625 0.1875q-0.1875 0.140625 -0.296875 0.4375l-2.546875 6.15625zm5.7732544 -3.609375q0 0.859375 0.203125 1.46875q0.203125 0.59375 0.5625 0.96875q0.375 0.359375 0.84375 0.53125q0.484375 0.171875 1.03125 0.171875q0.625 0 1.078125 -0.21875q0.453125 -0.21875 0.78125 -0.546875q0.328125 -0.34375 0.5625 -0.734375l0.703125 0.578125q-0.28125 0.515625 -0.734375 0.9375q-0.453125 0.40625 -1.0625 0.640625q-0.609375 0.21875 -1.359375 0.21875q-1.109375 0 -2.0 -0.46875q-0.890625 -0.46875 -1.421875 -1.375q-0.515625 -0.90625 -0.515625 -2.1875q0 -1.234375 0.46875 -2.15625q0.484375 -0.9375 1.3125 -1.453125q0.828125 -0.53125 1.890625 -0.53125q0.875 0 1.5 0.28125q0.625 0.28125 1.046875 0.84375q0.4375 0.546875 0.65625 1.390625q0.21875 0.828125 0.21875 1.9375l-6.0625 0l0 -0.84375l5.09375 0l-0.375 0.3125q-0.03125 -0.828125 -0.15625 -1.40625q-0.125 -0.578125 -0.375 -0.9375q-0.234375 -0.359375 -0.625 -0.515625q-0.375 -0.171875 -0.921875 -0.171875q-0.5 0 -0.9375 0.203125q-0.4375 0.1875 -0.75 0.609375q-0.3125 0.40625 -0.484375 1.03125q-0.171875 0.609375 -0.171875 1.421875zm12.551422 -4.109375l0 1.40625q-0.109375 -0.03125 -0.25 -0.046875q-0.140625 -0.015625 -0.296875 -0.03125q-0.15625 -0.015625 -0.296875 -0.015625q-0.421875 0 -0.75 0.078125q-0.3125 0.078125 -0.59375 0.25q-0.265625 0.171875 -0.515625 0.4375q-0.234375 0.265625 -0.5 0.640625l0 -0.671875q0.359375 -0.6875 0.75 -1.15625q0.390625 -0.46875 0.859375 -0.703125q0.46875 -0.25 1.046875 -0.25q0.1875 0 0.328125 0.015625q0.15625 0.015625 0.21875 0.046875zm-5.53125 7.96875l0 -0.703125l0.046875 0q0.578125 0 0.90625 -0.15625q0.328125 -0.171875 0.328125 -0.671875l0 -4.890625q0 -0.21875 -0.125 -0.328125q-0.125 -0.109375 -0.375 -0.171875q-0.25 -0.078125 -0.625 -0.15625l-0.15625 -0.03125l0 -0.765625l2.34375 0l0.1875 1.96875l0.046875 -0.0625l0 4.9375q0 0.140625 0.203125 0.21875q0.21875 0.0625 0.484375 0.09375q0.28125 0.015625 0.5 0.015625l0.3125 0l0 0.703125l-4.078125 0zm9.25058 -4.546875q0 1.15625 -0.25 2.140625q-0.25 0.984375 -0.6875 1.796875q-0.421875 0.796875 -0.953125 1.40625q-0.5312195 0.625 -1.0624695 1.0625l0 0.046875l1.0312195 0q0.640625 -0.40625 1.21875 -1.046875q0.578125 -0.640625 1.03125 -1.453125q0.46875 -0.828125 0.734375 -1.828125q0.265625 -1.0 0.265625 -2.125q0 -1.125 -0.265625 -2.125q-0.265625 -1.0 -0.734375 -1.828125q-0.453125 -0.828125 -1.03125 -1.453125q-0.578125 -0.625 -1.21875 -1.046875l-1.0312195 0l0 0.046875q0.53125 0.4375 1.0624695 1.046875q0.53125 0.609375 0.953125 1.421875q0.4375 0.8125 0.6875 1.796875q0.25 0.984375 0.25 2.140625z" fill-rule="nonzero"/><path fill="#000000" fill-opacity="0.0" d="m331.79263 -9.689229l136.09448 0l0 33.92126l-136.09448 0z" fill-rule="evenodd"/><path fill="#000000" d="m345.77737 7.908897q0 -0.671875 0.171875 -1.421875q0.171875 -0.765625 0.671875 -1.75q0.5 -0.984375 0.734375 -1.203125q0.0625 -0.0625 0.15625 -0.0625q0.09375 0 0.171875 0.078125q0.078125 0.0625 0.078125 0.171875q0 0.046875 -0.046875 0.125q-0.640625 1.1875 -0.921875 2.15625q-0.265625 0.953125 -0.265625 1.90625q0 0.9687495 0.265625 1.9374995q0.28125 0.953125 0.921875 2.140625q0.046875 0.0625 0.046875 0.125q0 0.09375 -0.078125 0.171875q-0.078125 0.078125 -0.171875 0.078125q-0.09375 0 -0.15625 -0.078125q-0.21875 -0.1875 -0.71875 -1.15625q-0.484375 -0.96875 -0.671875 -1.703125q-0.1875 -0.75 -0.1875 -1.5156245zm9.669922 2.9218745l-0.640625 0l-3.625 -6.1406245l0 5.6406245l0.90625 0q0.1875 0 0.265625 0.078125q0.078125 0.0625 0.078125 0.171875q0 0.109375 -0.078125 0.1875q-0.078125 0.0625 -0.265625 0.0625l-1.8125 0q-0.171875 0 -0.25 -0.0625q-0.078125 -0.078125 -0.078125 -0.1875q0 -0.109375 0.078125 -0.171875q0.078125 -0.078125 0.25 -0.078125l0.421875 0l0 -5.8593745l-0.671875 0q-0.171875 0 -0.25 -0.0625q-0.078125 -0.078125 -0.078125 -0.1875q0 -0.109375 0.078125 -0.171875q0.078125 -0.078125 0.25 -0.078125l1.296875 0l3.625 6.1562495l0 -5.6562495l-0.90625 0q-0.171875 0 -0.25 -0.0625q-0.078125 -0.078125 -0.078125 -0.1875q0 -0.109375 0.078125 -0.171875q0.078125 -0.078125 0.25 -0.078125l1.8125 0q0.1875 0 0.25 0.078125q0.078125 0.0625 0.078125 0.171875q0 0.109375 -0.078125 0.1875q-0.0625 0.0625 -0.25 0.0625l-0.40625 0l0 6.3593745zm3.8105469 -1.765625l1.59375 0l-1.734375 3.234375q-0.15625 0.296875 -0.375 0.296875q-0.15625 0 -0.265625 -0.109375q-0.09375 -0.109375 -0.09375 -0.25q0 -0.0625 0.015625 -0.125l0.859375 -3.046875zm10.341797 -4.4218745l0 -0.34375q0 -0.171875 0.0625 -0.25q0.078125 -0.078125 0.1875 -0.078125q0.109375 0 0.171875 0.078125q0.078125 0.078125 0.078125 0.25l0 1.375q0 0.171875 -0.078125 0.25q-0.0625 0.078125 -0.171875 0.078125q-0.109375 0 -0.171875 -0.0625q-0.0625 -0.078125 -0.078125 -0.234375q-0.03125 -0.5 -0.53125 -0.875q-0.6875 -0.515625 -1.546875 -0.515625q-0.5625 0 -1.078125 0.25q-0.375 0.171875 -0.59375 0.4375q-0.390625 0.453125 -0.609375 1.015625q-0.171875 0.40625 -0.171875 0.921875l0 0.859375q0 1.1093745 0.796875 1.9218745q0.796875 0.8125 1.859375 0.8125q0.625 0 1.125 -0.265625q0.5 -0.28125 0.96875 -0.84375q0.109375 -0.125 0.234375 -0.125q0.09375 0 0.15625 0.0625q0.078125 0.0625 0.078125 0.171875q0 0.125 -0.265625 0.40625q-0.46875 0.53125 -1.078125 0.8125q-0.59375 0.265625 -1.21875 0.265625q-0.53125 0 -1.078125 -0.203125q-0.421875 -0.15625 -0.703125 -0.359375q-0.265625 -0.21875 -0.671875 -0.71875q-0.40625 -0.5 -0.546875 -0.921875q-0.140625 -0.421875 -0.140625 -0.9374995l0 -1.0q0 -0.734375 0.390625 -1.484375q0.390625 -0.765625 1.0625 -1.171875q0.671875 -0.40625 1.46875 -0.40625q1.21875 0 2.09375 0.828125zm7.794922 3.6562495q0 1.125 -0.8125 1.921875q-0.8125 0.796875 -1.9375 0.796875q-1.15625 0 -1.96875 -0.796875q-0.796875 -0.796875 -0.796875 -1.921875q0 -1.1249995 0.796875 -1.9218745q0.8125 -0.796875 1.96875 -0.796875q1.125 0 1.9375 0.796875q0.8125 0.796875 0.8125 1.9218745zm-0.5 0q0 -0.9218745 -0.671875 -1.5624995q-0.65625 -0.65625 -1.59375 -0.65625q-0.9375 0 -1.59375 0.65625q-0.65625 0.640625 -0.65625 1.5624995q0 0.921875 0.65625 1.578125q0.65625 0.65625 1.59375 0.65625q0.9375 0 1.59375 -0.65625q0.671875 -0.65625 0.671875 -1.578125zm3.3574219 -2.5468745l0 0.75q0.515625 -0.53125 0.921875 -0.71875q0.421875 -0.203125 0.9375 -0.203125q0.5625 0 1.03125 0.234375q0.328125 0.1875 0.59375 0.59375q0.265625 0.40625 0.265625 0.828125l0 3.0937495l0.421875 0q0.171875 0 0.25 0.078125q0.078125 0.0625 0.078125 0.171875q0 0.109375 -0.078125 0.1875q-0.078125 0.0625 -0.25 0.0625l-1.328125 0q-0.171875 0 -0.25 -0.0625q-0.078125 -0.078125 -0.078125 -0.1875q0 -0.109375 0.078125 -0.171875q0.078125 -0.078125 0.25 -0.078125l0.421875 0l0 -3.0156245q0 -0.515625 -0.390625 -0.875q-0.375 -0.359375 -1.015625 -0.359375q-0.484375 0 -0.84375 0.203125q-0.359375 0.1875 -1.015625 0.96875l0 3.0781245l0.546875 0q0.1875 0 0.25 0.078125q0.078125 0.0625 0.078125 0.171875q0 0.109375 -0.078125 0.1875q-0.0625 0.0625 -0.25 0.0625l-1.59375 0q-0.1875 0 -0.265625 -0.0625q-0.0625 -0.078125 -0.0625 -0.1875q0 -0.109375 0.0625 -0.171875q0.078125 -0.078125 0.265625 -0.078125l0.546875 0l0 -4.0781245l-0.40625 0q-0.1875 0 -0.265625 -0.0625q-0.0625 -0.078125 -0.0625 -0.1875q0 -0.109375 0.0625 -0.171875q0.078125 -0.078125 0.265625 -0.078125l0.90625 0zm11.201172 -2.28125l0 6.8593745l0.65625 0q0.171875 0 0.25 0.078125q0.078125 0.0625 0.078125 0.171875q0 0.109375 -0.078125 0.1875q-0.078125 0.0625 -0.25 0.0625l-1.15625 0l0 -0.984375q-0.859375 1.171875 -2.171875 1.171875q-0.671875 0 -1.28125 -0.34375q-0.609375 -0.359375 -0.96875 -1.015625q-0.359375 -0.65625 -0.359375 -1.359375q0 -0.7031245 0.359375 -1.3437495q0.359375 -0.65625 0.96875 -1.015625q0.609375 -0.359375 1.28125 -0.359375q1.296875 0 2.171875 1.171875l0 -2.78125l-0.65625 0q-0.1875 0 -0.265625 -0.0625q-0.0625 -0.078125 -0.0625 -0.1875q0 -0.109375 0.0625 -0.171875q0.078125 -0.078125 0.265625 -0.078125l1.15625 0zm-0.5 4.8281245q0 -0.9374995 -0.640625 -1.5781245q-0.625 -0.640625 -1.5 -0.640625q-0.875 0 -1.515625 0.640625q-0.625 0.640625 -0.625 1.5781245q0 0.9375 0.625 1.59375q0.640625 0.640625 1.515625 0.640625q0.875 0 1.5 -0.640625q0.640625 -0.65625 0.640625 -1.59375zm5.529297 -5.0624995l0 1.265625l-0.71875 0l0 -1.265625l0.71875 0zm0.015625 2.515625l0 4.5781245l1.9375 0q0.1875 0 0.25 0.078125q0.078125 0.0625 0.078125 0.171875q0 0.109375 -0.078125 0.1875q-0.0625 0.0625 -0.25 0.0625l-4.359375 0q-0.171875 0 -0.25 -0.0625q-0.078125 -0.078125 -0.078125 -0.1875q0 -0.109375 0.078125 -0.171875q0.078125 -0.078125 0.25 -0.078125l1.9375 0l0 -4.0781245l-1.4375 0q-0.171875 0 -0.265625 -0.0625q-0.078125 -0.078125 -0.078125 -0.1875q0 -0.109375 0.078125 -0.171875q0.078125 -0.078125 0.265625 -0.078125l1.921875 0zm5.935547 0l2.671875 0q0.171875 0 0.25 0.078125q0.078125 0.0625 0.078125 0.171875q0 0.109375 -0.078125 0.1875q-0.078125 0.0625 -0.25 0.0625l-2.671875 0l0 3.2812495q0 0.421875 0.34375 0.71875q0.34375 0.28125 1.0 0.28125q0.5 0 1.078125 -0.140625q0.578125 -0.15625 0.90625 -0.34375q0.109375 -0.078125 0.1875 -0.078125q0.09375 0 0.15625 0.078125q0.078125 0.0625 0.078125 0.171875q0 0.078125 -0.078125 0.15625q-0.1875 0.1875 -0.90625 0.421875q-0.71875 0.21875 -1.390625 0.21875q-0.859375 0 -1.375 -0.390625q-0.5 -0.40625 -0.5 -1.09375l0 -3.2812495l-0.90625 0q-0.171875 0 -0.25 -0.0625q-0.078125 -0.078125 -0.078125 -0.1875q0 -0.109375 0.078125 -0.171875q0.078125 -0.078125 0.25 -0.078125l0.90625 0l0 -1.453125q0 -0.171875 0.0625 -0.25q0.078125 -0.078125 0.1875 -0.078125q0.109375 0 0.171875 0.078125q0.078125 0.078125 0.078125 0.25l0 1.453125zm8.451172 -2.515625l0 1.265625l-0.71875 0l0 -1.265625l0.71875 0zm0.015625 2.515625l0 4.5781245l1.9375 0q0.1875 0 0.25 0.078125q0.078125 0.0625 0.078125 0.171875q0 0.109375 -0.078125 0.1875q-0.0625 0.0625 -0.25 0.0625l-4.359375 0q-0.171875 0 -0.25 -0.0625q-0.078125 -0.078125 -0.078125 -0.1875q0 -0.109375 0.078125 -0.171875q0.078125 -0.078125 0.25 -0.078125l1.9375 0l0 -4.0781245l-1.4375 0q-0.171875 0 -0.265625 -0.0625q-0.078125 -0.078125 -0.078125 -0.1875q0 -0.109375 0.078125 -0.171875q0.078125 -0.078125 0.265625 -0.078125l1.921875 0zm9.701172 2.5468745q0 1.125 -0.8125 1.921875q-0.8125 0.796875 -1.9375 0.796875q-1.15625 0 -1.96875 -0.796875q-0.796875 -0.796875 -0.796875 -1.921875q0 -1.1249995 0.796875 -1.9218745q0.8125 -0.796875 1.96875 -0.796875q1.125 0 1.9375 0.796875q0.8125 0.796875 0.8125 1.9218745zm-0.5 0q0 -0.9218745 -0.671875 -1.5624995q-0.65625 -0.65625 -1.59375 -0.65625q-0.9375 0 -1.59375 0.65625q-0.65625 0.640625 -0.65625 1.5624995q0 0.921875 0.65625 1.578125q0.65625 0.65625 1.59375 0.65625q0.9375 0 1.59375 -0.65625q0.671875 -0.65625 0.671875 -1.578125zm3.3574219 -2.5468745l0 0.75q0.515625 -0.53125 0.921875 -0.71875q0.421875 -0.203125 0.9375 -0.203125q0.5625 0 1.03125 0.234375q0.328125 0.1875 0.59375 0.59375q0.265625 0.40625 0.265625 0.828125l0 3.0937495l0.421875 0q0.171875 0 0.25 0.078125q0.078125 0.0625 0.078125 0.171875q0 0.109375 -0.078125 0.1875q-0.078125 0.0625 -0.25 0.0625l-1.328125 0q-0.171875 0 -0.25 -0.0625q-0.078125 -0.078125 -0.078125 -0.1875q0 -0.109375 0.078125 -0.171875q0.078125 -0.078125 0.25 -0.078125l0.421875 0l0 -3.0156245q0 -0.515625 -0.390625 -0.875q-0.375 -0.359375 -1.015625 -0.359375q-0.484375 0 -0.84375 0.203125q-0.359375 0.1875 -1.015625 0.96875l0 3.0781245l0.546875 0q0.1875 0 0.25 0.078125q0.078125 0.0625 0.078125 0.171875q0 0.109375 -0.078125 0.1875q-0.0625 0.0625 -0.25 0.0625l-1.59375 0q-0.1875 0 -0.265625 -0.0625q-0.0625 -0.078125 -0.0625 -0.1875q0 -0.109375 0.0625 -0.171875q0.078125 -0.078125 0.265625 -0.078125l0.546875 0l0 -4.0781245l-0.40625 0q-0.1875 0 -0.265625 -0.0625q-0.0625 -0.078125 -0.0625 -0.1875q0 -0.109375 0.0625 -0.171875q0.078125 -0.078125 0.265625 -0.078125l0.90625 0zm6.857422 4.5781245l0 -5.8593745l-0.421875 0q-0.171875 0 -0.25 -0.0625q-0.078125 -0.078125 -0.078125 -0.1875q0 -0.109375 0.078125 -0.171875q0.078125 -0.078125 0.25 -0.078125l2.65625 0q0.625 0 1.125 0.265625q0.515625 0.25 0.78125 0.578125q0.46875 0.5625 0.703125 1.1875q0.171875 0.4375 0.171875 1.0625l0 0.671875q0 0.7656245 -0.328125 1.4687495q-0.328125 0.703125 -1.109375 1.234375q-0.578125 0.390625 -1.34375 0.390625l-2.65625 0q-0.171875 0 -0.25 -0.0625q-0.078125 -0.078125 -0.078125 -0.1875q0 -0.109375 0.078125 -0.171875q0.078125 -0.078125 0.25 -0.078125l0.421875 0zm0.484375 0l1.796875 0q0.625 0 1.15625 -0.390625q0.546875 -0.40625 0.8125 -0.96875q0.28125 -0.578125 0.28125 -1.1249995l0 -0.890625q0 -0.453125 -0.15625 -0.8125q-0.203125 -0.515625 -0.59375 -0.984375q-0.203125 -0.265625 -0.625 -0.46875q-0.40625 -0.21875 -0.875 -0.21875l-1.796875 0l0 5.8593745zm8.888672 -7.0937495l0 1.265625l-0.71875 0l0 -1.265625l0.71875 0zm0.015625 2.515625l0 4.5781245l1.9375 0q0.1875 0 0.25 0.078125q0.078125 0.0625 0.078125 0.171875q0 0.109375 -0.078125 0.1875q-0.0625 0.0625 -0.25 0.0625l-4.359375 0q-0.171875 0 -0.25 -0.0625q-0.078125 -0.078125 -0.078125 -0.1875q0 -0.109375 0.078125 -0.171875q0.078125 -0.078125 0.25 -0.078125l1.9375 0l0 -4.0781245l-1.4375 0q-0.171875 0 -0.265625 -0.0625q-0.078125 -0.078125 -0.078125 -0.1875q0 -0.109375 0.078125 -0.171875q0.078125 -0.078125 0.265625 -0.078125l1.921875 0zm4.701172 0l0 0.5q0.625 -0.671875 1.265625 -0.671875q0.375 0 0.65625 0.203125q0.296875 0.203125 0.484375 0.609375q0.328125 -0.40625 0.65625 -0.609375q0.34375 -0.203125 0.6875 -0.203125q0.53125 0 0.84375 0.34375q0.421875 0.453125 0.421875 0.96875l0 3.4374995l0.421875 0q0.171875 0 0.25 0.078125q0.078125 0.0625 0.078125 0.171875q0 0.109375 -0.078125 0.1875q-0.078125 0.0625 -0.25 0.0625l-0.90625 0l0 -3.8906245q0 -0.375 -0.234375 -0.609375q-0.234375 -0.25 -0.53125 -0.25q-0.265625 0 -0.5625 0.203125q-0.296875 0.203125 -0.6875 0.796875l0 3.2499995l0.421875 0q0.171875 0 0.25 0.078125q0.078125 0.0625 0.078125 0.171875q0 0.109375 -0.078125 0.1875q-0.078125 0.0625 -0.25 0.0625l-0.921875 0l0 -3.8437495q0 -0.40625 -0.234375 -0.65625q-0.21875 -0.25 -0.515625 -0.25q-0.25 0 -0.515625 0.171875q-0.359375 0.234375 -0.75 0.828125l0 3.2499995l0.421875 0q0.171875 0 0.25 0.078125q0.078125 0.0625 0.078125 0.171875q0 0.109375 -0.078125 0.1875q-0.078125 0.0625 -0.25 0.0625l-1.328125 0q-0.171875 0 -0.25 -0.0625q-0.078125 -0.078125 -0.078125 -0.1875q0 -0.109375 0.078125 -0.171875q0.078125 -0.078125 0.25 -0.078125l0.421875 0l0 -4.0781245l-0.421875 0q-0.171875 0 -0.25 -0.0625q-0.078125 -0.078125 -0.078125 -0.1875q0 -0.109375 0.078125 -0.171875q0.078125 -0.078125 0.25 -0.078125l0.90625 0zm9.591797 2.171875q0 0.6718745 -0.1875 1.4218745q-0.171875 0.75 -0.671875 1.734375q-0.5 1.0 -0.71875 1.203125q-0.078125 0.078125 -0.15625 0.078125q-0.109375 0 -0.1875 -0.078125q-0.0625 -0.078125 -0.0625 -0.171875q0 -0.0625 0.046875 -0.125q0.640625 -1.1875 0.90625 -2.140625q0.28125 -0.96875 0.28125 -1.9218745q0 -0.96875 -0.28125 -1.921875q-0.265625 -0.96875 -0.90625 -2.15625q-0.046875 -0.078125 -0.046875 -0.125q0 -0.109375 0.0625 -0.171875q0.078125 -0.078125 0.1875 -0.078125q0.078125 0 0.15625 0.0625q0.21875 0.203125 0.703125 1.171875q0.5 0.96875 0.6875 1.71875q0.1875 0.734375 0.1875 1.5z" fill-rule="nonzero"/><path fill="#ffffff" d="m102.49225 47.8374l151.27559 0l0 32.629925l-151.27559 0z" fill-rule="evenodd"/><path stroke="#000000" stroke-width="1.0" stroke-linejoin="round" stroke-linecap="butt" d="m102.49225 47.8374l151.27559 0l0 32.629925l-151.27559 0z" fill-rule="evenodd"/><path fill="#000000" d="m141.1553 58.826107q0.796875 0 1.421875 0.171875q0.640625 0.171875 1.0625 0.515625q0.421875 0.328125 0.65625 0.828125q0.234375 0.5 0.234375 1.125q0 0.6875 -0.359375 1.234375q-0.359375 0.53125 -1.078125 0.84375q-0.71875 0.296875 -1.78125 0.296875l0.65625 -0.40625l0 0.6562538l-0.59375 -0.4218788q1.171875 0.015625 1.96875 0.3593788q0.796875 0.328125 1.21875 0.90625q0.421875 0.578125 0.421875 1.375q0 0.703125 -0.25 1.25q-0.25 0.546875 -0.71875 0.921875q-0.46875 0.375 -1.15625 0.5625q-0.6875 0.1875 -1.5625 0.1875l-4.84375 0l0 -0.8125l0.15625 0q0.546875 0 0.890625 -0.09375q0.359375 -0.109375 0.359375 -0.421875l0 -7.765629q0 -0.3125 -0.359375 -0.40625q-0.34375 -0.109375 -0.890625 -0.109375l-0.15625 0l0 -0.796875l4.703125 0zm-2.390625 4.53125l2.359375 0q0.71875 0 1.15625 -0.21875q0.453125 -0.21875 0.640625 -0.640625q0.203125 -0.4375 0.203125 -1.015625q0 -0.578125 -0.21875 -0.96875q-0.203125 -0.390625 -0.640625 -0.609375q-0.421875 -0.21875 -1.140625 -0.21875l-1.90625 0l0 8.671879l2.046875 0q0.796875 0 1.296875 -0.234375q0.515625 -0.234375 0.75 -0.6875q0.25 -0.46875 0.25 -1.140625q0 -0.65625 -0.25 -1.125q-0.25 -0.46875 -0.78125 -0.71875q-0.515625 -0.25 -1.34375 -0.25l-2.421875 0l0 -0.8437538zm13.002457 1.0781288l0 0.78125q-0.890625 0.109375 -1.546875 0.265625q-0.640625 0.140625 -1.0625 0.328125q-0.421875 0.171875 -0.671875 0.390625q-0.25 0.21875 -0.359375 0.5q-0.09375 0.28125 -0.09375 0.59375q0 0.40625 0.15625 0.6875q0.171875 0.28125 0.484375 0.421875q0.3125 0.140625 0.71875 0.140625q0.46875 0 0.859375 -0.21875q0.390625 -0.21875 0.75 -0.65625q0.375 -0.453125 0.734375 -1.109375l0.015625 0.875q-0.296875 0.59375 -0.6875 1.03125q-0.390625 0.4375 -0.875 0.6875q-0.484375 0.234375 -1.109375 0.234375q-0.703125 0 -1.25 -0.234375q-0.53125 -0.25 -0.84375 -0.71875q-0.3125 -0.46875 -0.3125 -1.125q0 -0.609375 0.28125 -1.0625q0.28125 -0.453125 0.890625 -0.796875q0.609375 -0.34375 1.578125 -0.578125q0.96875 -0.25 2.34375 -0.4375zm-0.03125 4.796875l-0.171875 -1.703125l-0.078125 -0.078125l0 -3.8281288q0 -0.5625 -0.15625 -0.890625q-0.140625 -0.34375 -0.484375 -0.484375q-0.34375 -0.15625 -0.921875 -0.15625q-0.890625 0 -1.453125 0.25q-0.546875 0.25 -0.828125 0.53125q0 -0.125 0.0625 -0.25q0.0625 -0.125 0.15625 -0.234375q0.109375 -0.109375 0.25 -0.171875q0.140625 -0.078125 0.3125 -0.109375l0 1.703125l-1.296875 0l0 -1.78125q0.203125 -0.171875 0.59375 -0.34375q0.390625 -0.1875 0.953125 -0.328125q0.578125 -0.140625 1.296875 -0.140625q0.59375 0 1.109375 0.125q0.515625 0.109375 0.890625 0.375q0.375 0.265625 0.59375 0.6875q0.21875 0.421875 0.21875 1.03125l0 4.437504q0 0.203125 0.140625 0.328125q0.15625 0.109375 0.421875 0.15625q0.265625 0.046875 0.640625 0.09375l0.078125 0.015625l0 0.765625l-2.328125 0zm2.5902557 -6.984379l0 -0.8125l0.15625 0q0.5 0 0.828125 -0.0625q0.34375 -0.0625 0.515625 -0.265625q0.171875 -0.21875 0.171875 -0.625l0.953125 0.875l2.796875 0l0 0.890625l-5.421875 0zm2.875 4.593754q0 0.625 0.171875 0.984375q0.171875 0.34375 0.515625 0.484375q0.34375 0.140625 0.8125 0.140625q0.375 0 0.6875 -0.046875q0.328125 -0.046875 0.453125 -0.078125l0 0.875q-0.15625 0.046875 -0.375 0.09375q-0.21875 0.046875 -0.453125 0.0625q-0.234375 0.03125 -0.484375 0.03125q-0.6875 0 -1.296875 -0.203125q-0.59375 -0.203125 -0.96875 -0.75q-0.375 -0.546875 -0.375 -1.578125l0 -5.281254l0.109375 -0.109375l0 -2.34375l1.203125 0l0 7.718754zm7.768799 1.671875q0.640625 0 1.09375 -0.21875q0.46875 -0.21875 0.796875 -0.5625q0.328125 -0.34375 0.578125 -0.734375l0.703125 0.578125q-0.296875 0.53125 -0.765625 0.953125q-0.453125 0.40625 -1.0625 0.640625q-0.609375 0.21875 -1.375 0.21875q-1.25 0 -2.15625 -0.5q-0.890625 -0.5 -1.375 -1.421875q-0.484375 -0.921875 -0.484375 -2.15625q0 -1.265625 0.5 -2.1718788q0.5 -0.921875 1.40625 -1.421875q0.921875 -0.5 2.1875 -0.5q0.765625 0 1.34375 0.140625q0.59375 0.125 0.984375 0.296875q0.390625 0.15625 0.5625 0.296875l0 2.2187538l-1.3125 0l0 -1.8906288q0.140625 0.015625 0.265625 0.078125q0.140625 0.046875 0.234375 0.140625q0.09375 0.078125 0.125 0.1875q0.046875 0.09375 0.046875 0.21875q-0.3125 -0.34375 -0.921875 -0.5625q-0.59375 -0.234375 -1.328125 -0.234375q-0.921875 0 -1.53125 0.375q-0.59375 0.375 -0.890625 1.09375q-0.296875 0.7187538 -0.296875 1.7343788q0 0.765625 0.15625 1.375q0.171875 0.59375 0.5 1.015625q0.328125 0.40625 0.828125 0.609375q0.5 0.203125 1.1875 0.203125zm6.895157 -10.390629l0 10.265629q0 0.03125 0.171875 0.078125q0.1875 0.03125 0.4375 0.046875q0.25 0.015625 0.453125 0.015625l0.0625 0l0 0.703125l-3.71875 0l0 -0.703125l0.046875 0q0.390625 0 0.65625 -0.0625q0.28125 -0.0625 0.4375 -0.25q0.15625 -0.1875 0.15625 -0.515625l0 -8.125004q0 -0.21875 -0.125 -0.328125q-0.125 -0.109375 -0.375 -0.1875q-0.25 -0.078125 -0.640625 -0.140625l-0.15625 -0.03125l0 -0.765625l2.59375 0zm6.3125 11.109379l-3.71875 0l0 -0.703125l0.0625 0q0.203125 0 0.453125 -0.015625q0.25 -0.015625 0.421875 -0.046875q0.1875 -0.046875 0.1875 -0.078125l0 -4.796879q0 -0.484375 -0.125 -0.78125q-0.109375 -0.3125 -0.390625 -0.46875q-0.28125 -0.15625 -0.765625 -0.15625q-0.484375 0 -0.953125 0.1875q-0.453125 0.1875 -0.890625 0.578125q-0.421875 0.375 -0.859375 0.96875l0 -0.78125q0.421875 -0.640625 0.890625 -1.0625q0.46875 -0.421875 1.0 -0.640625q0.53125 -0.21875 1.15625 -0.21875q0.71875 0 1.203125 0.25q0.5 0.234375 0.765625 0.734375q0.265625 0.484375 0.265625 1.234375l0 4.265629q0 0.328125 0.15625 0.515625q0.15625 0.1875 0.4375 0.25q0.28125 0.0625 0.65625 0.0625l0.046875 0l0 0.703125zm1.1742554 0l0 -0.8125l0.15625 0q0.359375 0 0.640625 -0.046875q0.28125 -0.046875 0.4375 -0.171875q0.171875 -0.125 0.171875 -0.328125l0 -7.734379q0 -0.21875 -0.171875 -0.328125q-0.15625 -0.109375 -0.4375 -0.140625q-0.28125 -0.046875 -0.640625 -0.046875l-0.15625 0l0 -0.796875l3.28125 0l5.140625 9.046879l-0.171875 0.0625l0 -8.125004q0 -0.0625 -0.203125 -0.09375q-0.203125 -0.046875 -0.5 -0.0625q-0.28125 -0.03125 -0.578125 -0.03125l-0.203125 0l0 -0.796875l3.890625 0l0 0.796875l-0.1875 0q-0.34375 0 -0.640625 0.0625q-0.28125 0.046875 -0.4375 0.171875q-0.15625 0.109375 -0.15625 0.328125l0 9.046879l-1.46875 0l-5.59375 -9.796879l0.21875 -0.046875l0 8.859379q0 0.046875 0.203125 0.09375q0.203125 0.046875 0.5 0.0625q0.296875 0.015625 0.5625 0.015625l0.203125 0l0 0.8125l-3.859375 0zm19.74263 -3.921875q0 1.234375 -0.5 2.171875q-0.484375 0.921875 -1.375 1.421875q-0.890625 0.484375 -2.078125 0.484375q-1.203125 0 -2.09375 -0.484375q-0.875 -0.5 -1.375 -1.421875q-0.484375 -0.9375 -0.484375 -2.171875q0 -0.9375 0.28125 -1.6875038q0.28125 -0.765625 0.796875 -1.296875q0.53125 -0.546875 1.25 -0.828125q0.734375 -0.28125 1.625 -0.28125q0.90625 0 1.609375 0.28125q0.71875 0.28125 1.25 0.828125q0.53125 0.53125 0.8125 1.296875q0.28125 0.7500038 0.28125 1.6875038zm-6.53125 0q0 1.046875 0.296875 1.765625q0.296875 0.71875 0.859375 1.078125q0.578125 0.359375 1.421875 0.359375q0.859375 0 1.421875 -0.359375q0.578125 -0.359375 0.859375 -1.078125q0.28125 -0.71875 0.28125 -1.765625q0 -1.03125 -0.28125 -1.7343788q-0.28125 -0.71875 -0.859375 -1.09375q-0.5625 -0.375 -1.421875 -0.375q-0.84375 0 -1.421875 0.375q-0.5625 0.375 -0.859375 1.09375q-0.296875 0.7031288 -0.296875 1.7343788zm13.369247 -4.046879l0 1.40625q-0.109375 -0.03125 -0.25 -0.046875q-0.140625 -0.015625 -0.296875 -0.03125q-0.15625 -0.015625 -0.296875 -0.015625q-0.421875 0 -0.75 0.078125q-0.3125 0.078125 -0.59375 0.25q-0.265625 0.171875 -0.515625 0.4375q-0.234375 0.265625 -0.5 0.640625l0 -0.671875q0.359375 -0.6875 0.75 -1.15625q0.390625 -0.46875 0.859375 -0.703125q0.46875 -0.25 1.046875 -0.25q0.1875 0 0.328125 0.015625q0.15625 0.015625 0.21875 0.046875zm-5.53125 7.968754l0 -0.703125l0.046875 0q0.578125 0 0.90625 -0.15625q0.328125 -0.171875 0.328125 -0.671875l0 -4.890629q0 -0.21875 -0.125 -0.328125q-0.125 -0.109375 -0.375 -0.171875q-0.25 -0.078125 -0.625 -0.15625l-0.15625 -0.03125l0 -0.765625l2.34375 0l0.1875 1.96875l0.046875 -0.0625l0 4.937504q0 0.140625 0.203125 0.21875q0.21875 0.0625 0.484375 0.09375q0.28125 0.015625 0.5 0.015625l0.3125 0l0 0.703125l-4.078125 0zm6.6100006 0l0 -0.703125l0.046875 0q0.578125 0 0.90625 -0.15625q0.328125 -0.171875 0.328125 -0.671875l0 -4.890629q0 -0.21875 -0.125 -0.328125q-0.125 -0.109375 -0.375 -0.171875q-0.25 -0.078125 -0.625 -0.15625l-0.15625 -0.03125l0 -0.765625l2.34375 0l0.171875 1.65625l0.0625 0.09375l0 5.281254q0 0.03125 0.171875 0.078125q0.1875 0.03125 0.421875 0.046875q0.25 0.015625 0.4375 0.015625l0.0625 0l0 0.703125l-3.671875 0zm8.328125 0l-3.46875 0l0 -0.703125l0.046875 0q0.203125 0 0.4375 -0.015625q0.25 -0.015625 0.421875 -0.046875q0.171875 -0.046875 0.171875 -0.078125l0 -4.796879q0 -0.46875 -0.109375 -0.78125q-0.09375 -0.3125 -0.328125 -0.46875q-0.234375 -0.15625 -0.65625 -0.15625q-0.453125 0 -0.875 0.1875q-0.40625 0.1875 -0.8125 0.5625q-0.40625 0.375 -0.84375 0.9375l0.015625 -0.859375q0.421875 -0.5625 0.84375 -0.96875q0.4375 -0.40625 0.9375 -0.609375q0.5 -0.21875 1.078125 -0.21875q0.65625 0 1.109375 0.25q0.46875 0.234375 0.703125 0.734375q0.25 0.484375 0.25 1.234375l0 4.953129q0 0.03125 0.15625 0.078125q0.171875 0.03125 0.421875 0.046875q0.25 0.015625 0.453125 0.015625l0.046875 0l0 0.703125zm4.875 0l-3.6875 0l0 -0.703125l0.0625 0q0.203125 0 0.4375 -0.015625q0.234375 -0.015625 0.40625 -0.046875q0.171875 -0.046875 0.171875 -0.078125l0 -4.796879q0 -0.46875 -0.109375 -0.78125q-0.09375 -0.3125 -0.34375 -0.46875q-0.234375 -0.15625 -0.640625 -0.15625q-0.453125 0 -0.875 0.1875q-0.40625 0.1875 -0.8125 0.5625q-0.40625 0.375 -0.84375 0.9375l0 -0.859375q0.4375 -0.5625 0.859375 -0.96875q0.4375 -0.40625 0.921875 -0.609375q0.5 -0.21875 1.09375 -0.21875q0.65625 0 1.109375 0.25q0.453125 0.234375 0.6875 0.734375q0.25 0.484375 0.25 1.234375l0 4.265629q0 0.5 0.328125 0.671875q0.34375 0.15625 0.921875 0.15625l0.0625 0l0 0.703125z" fill-rule="nonzero"/><path fill="#ffffff" d="m102.49225 80.33101l151.27559 0l0 32.62992l-151.27559 0z" fill-rule="evenodd"/><path stroke="#000000" stroke-width="1.0" stroke-linejoin="round" stroke-linecap="butt" d="m102.49225 80.33101l151.27559 0l0 32.62992l-151.27559 0z" fill-rule="evenodd"/><path fill="#000000" d="m139.8488 101.08534q0.75 0 1.234375 -0.1875q0.5 -0.1875 0.734375 -0.59375q0.25 -0.40625 0.25 -1.078125q0 -0.609375 -0.25 -1.0q-0.25 -0.390625 -0.6875 -0.625q-0.421875 -0.25 -0.953125 -0.40625q-0.515625 -0.15625 -1.078125 -0.296875q-0.640625 -0.171875 -1.234375 -0.359375q-0.59375 -0.203125 -1.0625 -0.53125q-0.46875 -0.328125 -0.75 -0.859375q-0.265625 -0.546875 -0.265625 -1.359375q0 -0.84375 0.390625 -1.453125q0.390625 -0.609375 1.109375 -0.9375q0.71875 -0.34375 1.6875 -0.34375q0.765625 0 1.375 0.234375q0.609375 0.234375 1.046875 0.78125q0.4375 0.546875 0.671875 1.515625l-0.359375 -0.296875l0.171875 -2.046875l0.90625 0l0 3.0l-0.96875 0q-0.21875 -0.75 -0.609375 -1.265625q-0.390625 -0.515625 -0.9375 -0.78125q-0.546875 -0.265625 -1.25 -0.265625q-0.703125 0 -1.15625 0.21875q-0.4375 0.203125 -0.640625 0.59375q-0.203125 0.375 -0.203125 0.921875q0 0.546875 0.21875 0.890625q0.234375 0.34375 0.625 0.5625q0.40625 0.203125 0.921875 0.359375q0.53125 0.15625 1.140625 0.3125q0.625 0.15625 1.234375 0.375q0.609375 0.203125 1.109375 0.546875q0.515625 0.328125 0.796875 0.859375q0.296875 0.53125 0.296875 1.34375q0 1.046875 -0.46875 1.734375q-0.453125 0.671875 -1.234375 1.0q-0.78125 0.328125 -1.78125 0.328125q-0.921875 0 -1.703125 -0.28125q-0.765625 -0.296875 -1.296875 -0.9375q-0.53125 -0.65625 -0.734375 -1.765625l0.453125 0.40625l-0.1875 2.40625l-0.953125 0l0 -3.453125l1.0 0q0.21875 0.890625 0.6875 1.515625q0.46875 0.609375 1.15625 0.921875q0.6875 0.296875 1.546875 0.296875zm9.204544 -0.078125q0.640625 0 1.09375 -0.21875q0.46875 -0.21875 0.796875 -0.5625q0.328125 -0.34375 0.578125 -0.734375l0.703125 0.578125q-0.296875 0.53125 -0.765625 0.953125q-0.453125 0.40625 -1.0625 0.640625q-0.609375 0.21875 -1.375 0.21875q-1.25 0 -2.15625 -0.5q-0.890625 -0.5 -1.375 -1.421875q-0.484375 -0.921875 -0.484375 -2.15625q0 -1.265625 0.5 -2.171875q0.5 -0.921875 1.40625 -1.421875q0.921875 -0.5 2.1875 -0.5q0.765625 0 1.34375 0.140625q0.59375 0.125 0.984375 0.296875q0.390625 0.15625 0.5625 0.296875l0 2.21875l-1.3125 0l0 -1.890625q0.140625 0.015625 0.265625 0.078125q0.140625 0.046875 0.234375 0.140625q0.09375 0.078125 0.125 0.1875q0.046875 0.09375 0.046875 0.21875q-0.3125 -0.34375 -0.921875 -0.5625q-0.59375 -0.234375 -1.328125 -0.234375q-0.921875 0 -1.53125 0.375q-0.59375 0.375 -0.890625 1.09375q-0.296875 0.71875 -0.296875 1.734375q0 0.765625 0.15625 1.375q0.171875 0.59375 0.5 1.015625q0.328125 0.40625 0.828125 0.609375q0.5 0.203125 1.1875 0.203125zm9.660782 -4.078125l0 0.78125q-0.890625 0.109375 -1.546875 0.265625q-0.640625 0.140625 -1.0625 0.328125q-0.421875 0.171875 -0.671875 0.390625q-0.25 0.21875 -0.359375 0.5q-0.09375 0.28125 -0.09375 0.59375q0 0.40625 0.15625 0.6875q0.171875 0.28125 0.484375 0.421875q0.3125 0.140625 0.71875 0.140625q0.46875 0 0.859375 -0.21875q0.390625 -0.21875 0.75 -0.65625q0.375 -0.453125 0.734375 -1.109375l0.015625 0.875q-0.296875 0.59375 -0.6875 1.03125q-0.390625 0.4375 -0.875 0.6875q-0.484375 0.234375 -1.109375 0.234375q-0.703125 0 -1.25 -0.234375q-0.53125 -0.25 -0.84375 -0.71875q-0.3125 -0.46875 -0.3125 -1.125q0 -0.609375 0.28125 -1.0625q0.28125 -0.453125 0.890625 -0.796875q0.609375 -0.34375 1.578125 -0.578125q0.96875 -0.25 2.34375 -0.4375zm-0.03125 4.796875l-0.171875 -1.703125l-0.078125 -0.078125l0 -3.828125q0 -0.5625 -0.15625 -0.890625q-0.140625 -0.34375 -0.484375 -0.484375q-0.34375 -0.15625 -0.921875 -0.15625q-0.890625 0 -1.453125 0.25q-0.546875 0.25 -0.828125 0.53125q0 -0.125 0.0625 -0.25q0.0625 -0.125 0.15625 -0.234375q0.109375 -0.109375 0.25 -0.171875q0.140625 -0.078125 0.3125 -0.109375l0 1.703125l-1.296875 0l0 -1.78125q0.203125 -0.171875 0.59375 -0.34375q0.390625 -0.1875 0.953125 -0.328125q0.578125 -0.140625 1.296875 -0.140625q0.59375 0 1.109375 0.125q0.515625 0.109375 0.890625 0.375q0.375 0.265625 0.59375 0.6875q0.21875 0.421875 0.21875 1.03125l0 4.4375q0 0.203125 0.140625 0.328125q0.15625 0.109375 0.421875 0.15625q0.265625 0.046875 0.640625 0.09375l0.078125 0.015625l0 0.765625l-2.328125 0zm5.825882 -11.109375l0 9.65625q0 0.453125 0.34375 0.609375q0.34375 0.140625 0.90625 0.140625l0.046875 0l0 0.703125l-3.875 0l0 -0.703125l0.0625 0q0.578125 0 0.90625 -0.140625q0.328125 -0.15625 0.328125 -0.609375l0 -8.203125q0 -0.21875 -0.125 -0.328125q-0.125 -0.109375 -0.375 -0.1875q-0.25 -0.078125 -0.640625 -0.140625l-0.15625 -0.03125l0 -0.765625l2.578125 0zm3.7077026 7.25q0 0.859375 0.203125 1.46875q0.203125 0.59375 0.5625 0.96875q0.375 0.359375 0.84375 0.53125q0.484375 0.171875 1.03125 0.171875q0.625 0 1.078125 -0.21875q0.453125 -0.21875 0.78125 -0.546875q0.328125 -0.34375 0.5625 -0.734375l0.703125 0.578125q-0.28125 0.515625 -0.734375 0.9375q-0.453125 0.40625 -1.0625 0.640625q-0.609375 0.21875 -1.359375 0.21875q-1.109375 0 -2.0 -0.46875q-0.890625 -0.46875 -1.421875 -1.375q-0.515625 -0.90625 -0.515625 -2.1875q0 -1.234375 0.46875 -2.15625q0.484375 -0.9375 1.3125 -1.453125q0.828125 -0.53125 1.890625 -0.53125q0.875 0 1.5 0.28125q0.625 0.28125 1.046875 0.84375q0.4375 0.546875 0.65625 1.390625q0.21875 0.828125 0.21875 1.9375l-6.0625 0l0 -0.84375l5.09375 0l-0.375 0.3125q-0.03125 -0.828125 -0.15625 -1.40625q-0.125 -0.578125 -0.375 -0.9375q-0.234375 -0.359375 -0.625 -0.515625q-0.375 -0.171875 -0.921875 -0.171875q-0.5 0 -0.9375 0.203125q-0.4375 0.1875 -0.75 0.609375q-0.3125 0.40625 -0.484375 1.03125q-0.171875 0.609375 -0.171875 1.421875zm13.78392 -4.421875l1.078125 0l0 6.5625l-1.078125 0l0 -6.5625zm3.71875 2.78125l0 0.984375l-6.359375 0l0 -0.984375l6.359375 0zm10.221298 -4.90625q0.796875 0 1.421875 0.171875q0.640625 0.171875 1.0625 0.515625q0.421875 0.328125 0.65625 0.828125q0.234375 0.5 0.234375 1.125q0 0.6875 -0.359375 1.234375q-0.359375 0.53125 -1.078125 0.84375q-0.71875 0.296875 -1.78125 0.296875l0.65625 -0.40625l0 0.65625l-0.59375 -0.421875q1.171875 0.015625 1.96875 0.359375q0.796875 0.328125 1.21875 0.90625q0.421875 0.578125 0.421875 1.375q0 0.703125 -0.25 1.25q-0.25 0.546875 -0.71875 0.921875q-0.46875 0.375 -1.15625 0.5625q-0.6875 0.1875 -1.5625 0.1875l-4.84375 0l0 -0.8125l0.15625 0q0.546875 0 0.890625 -0.09375q0.359375 -0.109375 0.359375 -0.421875l0 -7.765625q0 -0.3125 -0.359375 -0.40625q-0.34375 -0.109375 -0.890625 -0.109375l-0.15625 0l0 -0.796875l4.703125 0zm-2.390625 4.53125l2.359375 0q0.71875 0 1.15625 -0.21875q0.453125 -0.21875 0.640625 -0.640625q0.203125 -0.4375 0.203125 -1.015625q0 -0.578125 -0.21875 -0.96875q-0.203125 -0.390625 -0.640625 -0.609375q-0.421875 -0.21875 -1.140625 -0.21875l-1.90625 0l0 8.671875l2.046875 0q0.796875 0 1.296875 -0.234375q0.515625 -0.234375 0.75 -0.6875q0.25 -0.46875 0.25 -1.140625q0 -0.65625 -0.25 -1.125q-0.25 -0.46875 -0.78125 -0.71875q-0.515625 -0.25 -1.34375 -0.25l-2.421875 0l0 -0.84375zm9.560165 -3.609375q-0.4375 0 -0.703125 -0.234375q-0.25 -0.234375 -0.25 -0.703125q0 -0.453125 0.25 -0.6875q0.265625 -0.234375 0.703125 -0.234375q0.40625 0 0.671875 0.234375q0.28125 0.234375 0.28125 0.6875q0 0.46875 -0.28125 0.703125q-0.265625 0.234375 -0.671875 0.234375zm0.734375 1.609375l0 6.421875q0 0.453125 0.34375 0.609375q0.34375 0.140625 0.90625 0.140625l0.046875 0l0 0.703125l-3.875 0l0 -0.703125l0.046875 0q0.578125 0 0.90625 -0.140625q0.34375 -0.15625 0.34375 -0.609375l0 -4.96875q0 -0.3125 -0.28125 -0.421875q-0.28125 -0.125 -0.859375 -0.234375l-0.15625 -0.03125l0 -0.765625l2.578125 0zm7.6911163 3.078125l0 0.78125q-0.890625 0.109375 -1.546875 0.265625q-0.640625 0.140625 -1.0625 0.328125q-0.421875 0.171875 -0.671875 0.390625q-0.25 0.21875 -0.359375 0.5q-0.09375 0.28125 -0.09375 0.59375q0 0.40625 0.15625 0.6875q0.171875 0.28125 0.484375 0.421875q0.3125 0.140625 0.71875 0.140625q0.46875 0 0.859375 -0.21875q0.390625 -0.21875 0.75 -0.65625q0.375 -0.453125 0.734375 -1.109375l0.015625 0.875q-0.296875 0.59375 -0.6875 1.03125q-0.390625 0.4375 -0.875 0.6875q-0.484375 0.234375 -1.109375 0.234375q-0.703125 0 -1.25 -0.234375q-0.53125 -0.25 -0.84375 -0.71875q-0.3125 -0.46875 -0.3125 -1.125q0 -0.609375 0.28125 -1.0625q0.28125 -0.453125 0.890625 -0.796875q0.609375 -0.34375 1.578125 -0.578125q0.96875 -0.25 2.34375 -0.4375zm-0.03125 4.796875l-0.171875 -1.703125l-0.078125 -0.078125l0 -3.828125q0 -0.5625 -0.15625 -0.890625q-0.140625 -0.34375 -0.484375 -0.484375q-0.34375 -0.15625 -0.921875 -0.15625q-0.890625 0 -1.453125 0.25q-0.546875 0.25 -0.828125 0.53125q0 -0.125 0.0625 -0.25q0.0625 -0.125 0.15625 -0.234375q0.109375 -0.109375 0.25 -0.171875q0.140625 -0.078125 0.3125 -0.109375l0 1.703125l-1.296875 0l0 -1.78125q0.203125 -0.171875 0.59375 -0.34375q0.390625 -0.1875 0.953125 -0.328125q0.578125 -0.140625 1.296875 -0.140625q0.59375 0 1.109375 0.125q0.515625 0.109375 0.890625 0.375q0.375 0.265625 0.59375 0.6875q0.21875 0.421875 0.21875 1.03125l0 4.4375q0 0.203125 0.140625 0.328125q0.15625 0.109375 0.421875 0.15625q0.265625 0.046875 0.640625 0.09375l0.078125 0.015625l0 0.765625l-2.328125 0zm8.232132 -2.0625q0 -0.359375 -0.171875 -0.59375q-0.15625 -0.234375 -0.453125 -0.375q-0.296875 -0.15625 -0.671875 -0.25q-0.375 -0.09375 -0.765625 -0.171875q-0.484375 -0.125 -0.953125 -0.265625q-0.46875 -0.15625 -0.859375 -0.40625q-0.375 -0.25 -0.609375 -0.640625q-0.21875 -0.40625 -0.21875 -1.015625q0 -0.671875 0.328125 -1.171875q0.34375 -0.5 0.984375 -0.78125q0.65625 -0.28125 1.5625 -0.28125q0.71875 0 1.25 0.09375q0.53125 0.078125 0.890625 0.203125q0.359375 0.109375 0.546875 0.21875l0 1.84375l-1.296875 0l0 -1.53125q0.140625 0 0.25 0.046875q0.125 0.046875 0.1875 0.125q0.0625 0.078125 0.09375 0.21875q0.046875 0.125 0.03125 0.296875q-0.1875 -0.21875 -0.484375 -0.359375q-0.28125 -0.140625 -0.65625 -0.203125q-0.375 -0.078125 -0.8125 -0.078125q-0.859375 0 -1.265625 0.328125q-0.40625 0.3125 -0.40625 0.875q0 0.375 0.171875 0.609375q0.171875 0.234375 0.453125 0.375q0.296875 0.140625 0.6875 0.25q0.390625 0.109375 0.8125 0.203125q0.46875 0.109375 0.9375 0.265625q0.46875 0.140625 0.84375 0.390625q0.375 0.25 0.59375 0.65625q0.234375 0.390625 0.234375 0.984375q0 0.6875 -0.359375 1.234375q-0.34375 0.53125 -1.03125 0.828125q-0.6875 0.296875 -1.703125 0.296875q-0.734375 0 -1.3125 -0.09375q-0.578125 -0.09375 -1.03125 -0.25q-0.4375 -0.171875 -0.765625 -0.375l0 -1.921875l1.328125 0l0 2.03125q-0.234375 -0.125 -0.359375 -0.234375q-0.125 -0.125 -0.171875 -0.234375q-0.046875 -0.125 -0.046875 -0.25q0 -0.125 0.03125 -0.265625q0.234375 0.21875 0.578125 0.390625q0.34375 0.15625 0.78125 0.25q0.4375 0.09375 0.96875 0.09375q0.609375 0 1.015625 -0.15625q0.421875 -0.15625 0.625 -0.453125q0.21875 -0.296875 0.21875 -0.75z" fill-rule="nonzero"/><path fill="#000000" fill-opacity="0.0" d="m399.83987 24.23203l0 23.52756" fill-rule="evenodd"/><path stroke="#000000" stroke-width="1.0" stroke-linejoin="round" stroke-linecap="butt" d="m399.8399 24.232033l0 17.527557" fill-rule="evenodd"/><path fill="#000000" stroke="#000000" stroke-width="1.0" stroke-linecap="butt" d="m398.18817 41.75959l1.6517334 4.5380974l1.6517334 -4.5380974z" fill-rule="evenodd"/><path fill="#000000" fill-opacity="0.0" d="m-16.0 48.24672l88.28346 0l0 32.314957l-88.28346 0z" fill-rule="evenodd"/><path fill="#000000" d="m1.6868973 64.81484q0 -0.625 0.15625 -1.3125q0.171875 -0.6875 0.625 -1.59375q0.453125 -0.921875 0.65625 -1.109375q0.078125 -0.046875 0.140625 -0.046875q0.109375 0 0.171875 0.0625q0.0625 0.0625 0.0625 0.15625q0 0.046875 -0.03125 0.109375q-0.59375 1.09375 -0.84375 1.96875q-0.25 0.875 -0.25 1.765625q0 0.890625 0.25 1.765625q0.25 0.875 0.84375 1.953125q0.03125 0.078125 0.03125 0.125q0 0.09375 -0.0625 0.15625q-0.0625 0.0625 -0.171875 0.0625q-0.0625 0 -0.140625 -0.046875q-0.1875 -0.1875 -0.640625 -1.078125q-0.453125 -0.890625 -0.625 -1.5625q-0.171875 -0.6875 -0.171875 -1.375zm8.866699 2.671875l-0.578125 0l-3.328125 -5.625l0 5.171875l0.828125 0q0.171875 0 0.234375 0.0625q0.078125 0.0625 0.078125 0.171875q0 0.09375 -0.078125 0.15625q-0.0625 0.0625 -0.234375 0.0625l-1.65625 0q-0.171875 0 -0.25 -0.0625q-0.0625 -0.0625 -0.0625 -0.15625q0 -0.109375 0.0625 -0.171875q0.078125 -0.0625 0.25 -0.0625l0.375 0l0 -5.375l-0.609375 0q-0.15625 0 -0.234375 -0.0625q-0.0625 -0.0625 -0.0625 -0.171875q0 -0.09375 0.0625 -0.15625q0.078125 -0.0625 0.234375 -0.0625l1.1875 0l3.328125 5.625l0 -5.171875l-0.828125 0q-0.171875 0 -0.25 -0.0625q-0.0625 -0.0625 -0.0625 -0.171875q0 -0.09375 0.0625 -0.15625q0.078125 -0.0625 0.25 -0.0625l1.65625 0q0.15625 0 0.21875 0.0625q0.078125 0.0625 0.078125 0.15625q0 0.109375 -0.078125 0.171875q-0.0625 0.0625 -0.21875 0.0625l-0.375 0l0 5.828125zm3.4916992 -1.625l1.46875 0l-1.59375 2.96875q-0.15625 0.265625 -0.359375 0.265625q-0.125 0 -0.21875 -0.09375q-0.09375 -0.09375 -0.09375 -0.21875q0 -0.0625 0.015625 -0.125l0.78125 -2.796875zm9.476074 -4.046875l0 -0.3125q0 -0.15625 0.0625 -0.21875q0.0625 -0.078125 0.171875 -0.078125q0.09375 0 0.15625 0.078125q0.0625 0.0625 0.0625 0.21875l0 1.25q0 0.171875 -0.0625 0.25q-0.0625 0.0625 -0.15625 0.0625q-0.09375 0 -0.15625 -0.0625q-0.0625 -0.078125 -0.078125 -0.21875q-0.015625 -0.453125 -0.484375 -0.796875q-0.625 -0.484375 -1.421875 -0.484375q-0.515625 0 -0.984375 0.234375q-0.34375 0.171875 -0.546875 0.40625q-0.34375 0.421875 -0.5625 0.9375q-0.140625 0.375 -0.140625 0.84375l0 0.796875q0 1.0 0.71875 1.75q0.734375 0.734375 1.703125 0.734375q0.578125 0 1.03125 -0.25q0.46875 -0.25 0.890625 -0.765625q0.09375 -0.109375 0.203125 -0.109375q0.109375 0 0.15625 0.0625q0.0625 0.0625 0.0625 0.15625q0 0.125 -0.234375 0.375q-0.4375 0.484375 -0.984375 0.734375q-0.546875 0.25 -1.109375 0.25q-0.5 0 -1.0 -0.1875q-0.390625 -0.140625 -0.640625 -0.328125q-0.25 -0.203125 -0.625 -0.65625q-0.359375 -0.46875 -0.5 -0.84375q-0.125 -0.390625 -0.125 -0.859375l0 -0.921875q0 -0.671875 0.34375 -1.359375q0.359375 -0.703125 0.984375 -1.0625q0.625 -0.375 1.34375 -0.375q1.125 0 1.921875 0.75zm3.7260742 4.046875l1.46875 0l-1.59375 2.96875q-0.15625 0.265625 -0.359375 0.265625q-0.125 0 -0.21875 -0.09375q-0.09375 -0.09375 -0.09375 -0.21875q0 -0.0625 0.015625 -0.125l0.78125 -2.796875zm9.022949 -1.421875l-2.984375 0l0 2.59375l0.59375 0q0.171875 0 0.234375 0.0625q0.078125 0.0625 0.078125 0.171875q0 0.09375 -0.078125 0.15625q-0.0625 0.0625 -0.234375 0.0625l-1.5625 0q-0.15625 0 -0.234375 -0.0625q-0.0625 -0.0625 -0.0625 -0.15625q0 -0.109375 0.0625 -0.171875q0.078125 -0.0625 0.234375 -0.0625l0.515625 0l0 -5.375l-0.28125 0q-0.171875 0 -0.25 -0.0625q-0.0625 -0.0625 -0.0625 -0.171875q0 -0.09375 0.0625 -0.15625q0.078125 -0.0625 0.25 -0.0625l1.328125 0q0.171875 0 0.234375 0.0625q0.078125 0.0625 0.078125 0.15625q0 0.109375 -0.078125 0.171875q-0.0625 0.0625 -0.234375 0.0625l-0.59375 0l0 2.34375l2.984375 0l0 -2.34375l-0.59375 0q-0.171875 0 -0.25 -0.0625q-0.0625 -0.0625 -0.0625 -0.171875q0 -0.09375 0.0625 -0.15625q0.078125 -0.0625 0.25 -0.0625l1.328125 0q0.171875 0 0.234375 0.0625q0.078125 0.0625 0.078125 0.15625q0 0.109375 -0.078125 0.171875q-0.0625 0.0625 -0.234375 0.0625l-0.28125 0l0 5.375l0.515625 0q0.15625 0 0.21875 0.0625q0.078125 0.0625 0.078125 0.171875q0 0.09375 -0.078125 0.15625q-0.0625 0.0625 -0.21875 0.0625l-1.5625 0q-0.171875 0 -0.25 -0.0625q-0.0625 -0.0625 -0.0625 -0.15625q0 -0.109375 0.0625 -0.171875q0.078125 -0.0625 0.25 -0.0625l0.59375 0l0 -2.59375zm4.179199 1.421875l1.46875 0l-1.59375 2.96875q-0.15625 0.265625 -0.359375 0.265625q-0.125 0 -0.21875 -0.09375q-0.09375 -0.09375 -0.09375 -0.21875q0 -0.0625 0.015625 -0.125l0.78125 -2.796875zm9.476074 1.625l-0.703125 0l-1.28125 -4.46875l-1.25 4.46875l-0.71875 0l-0.65625 -5.828125l-0.171875 0q-0.15625 0 -0.234375 -0.0625q-0.0625 -0.0625 -0.0625 -0.171875q0 -0.09375 0.0625 -0.15625q0.078125 -0.0625 0.234375 -0.0625l1.671875 0q0.171875 0 0.234375 0.0625q0.078125 0.0625 0.078125 0.15625q0 0.109375 -0.078125 0.171875q-0.0625 0.0625 -0.234375 0.0625l-1.046875 0l0.59375 5.3125l1.21875 -4.375l0.6875 0l1.25 4.375l0.59375 -5.3125l-1.0625 0q-0.15625 0 -0.234375 -0.0625q-0.0625 -0.0625 -0.0625 -0.171875q0 -0.09375 0.0625 -0.15625q0.078125 -0.0625 0.234375 -0.0625l1.671875 0q0.15625 0 0.21875 0.0625q0.078125 0.0625 0.078125 0.15625q0 0.109375 -0.078125 0.171875q-0.0625 0.0625 -0.21875 0.0625l-0.171875 0l-0.625 5.828125zm4.757324 -2.671875q0 0.625 -0.171875 1.3125q-0.15625 0.6875 -0.609375 1.59375q-0.453125 0.921875 -0.671875 1.09375q-0.0625 0.0625 -0.140625 0.0625q-0.09375 0 -0.171875 -0.0625q-0.0625 -0.0625 -0.0625 -0.15625q0 -0.046875 0.046875 -0.125q0.59375 -1.078125 0.84375 -1.953125q0.25 -0.875 0.25 -1.765625q0 -0.890625 -0.25 -1.765625q-0.25 -0.875 -0.84375 -1.96875q-0.046875 -0.0625 -0.046875 -0.109375q0 -0.09375 0.0625 -0.15625q0.078125 -0.0625 0.171875 -0.0625q0.078125 0 0.140625 0.046875q0.203125 0.1875 0.65625 1.078125q0.453125 0.875 0.625 1.5625q0.171875 0.6875 0.171875 1.375z" fill-rule="nonzero"/><path fill="#000000" fill-opacity="0.0" d="m399.8399 81.03412l0 15.622047l-146.07875 0" fill-rule="evenodd"/><path stroke="#000000" stroke-width="1.0" stroke-linejoin="round" stroke-linecap="butt" d="m399.8399 81.03412l0 15.622047l-140.07874 0" fill-rule="evenodd"/><path fill="#000000" stroke="#000000" stroke-width="1.0" stroke-linecap="butt" d="m259.76117 95.00443l-4.5381165 1.6517334l4.5381165 1.6517334z" fill-rule="evenodd"/><path fill="#000000" fill-opacity="0.0" d="m129.83202 112.96063l96.598434 0l0 33.921265l-96.598434 0z" fill-rule="evenodd"/><path fill="#000000" d="m149.27284 130.55876q0 -0.671875 0.171875 -1.421875q0.171875 -0.765625 0.671875 -1.7500076q0.5 -0.984375 0.734375 -1.203125q0.0625 -0.0625 0.15625 -0.0625q0.09375 0 0.171875 0.078125q0.078125 0.0625 0.078125 0.171875q0 0.046875 -0.046875 0.125q-0.640625 1.1875 -0.921875 2.1562576q-0.265625 0.953125 -0.265625 1.90625q0 0.96875 0.265625 1.9375q0.28125 0.953125 0.921875 2.140625q0.046875 0.0625 0.046875 0.125q0 0.09375 -0.078125 0.171875q-0.078125 0.078125 -0.171875 0.078125q-0.09375 0 -0.15625 -0.078125q-0.21875 -0.1875 -0.71875 -1.15625q-0.484375 -0.96875 -0.671875 -1.703125q-0.1875 -0.75 -0.1875 -1.515625zm9.669922 2.921875l-0.640625 0l-3.625 -6.1406326l0 5.6406326l0.90625 0q0.1875 0 0.265625 0.078125q0.078125 0.0625 0.078125 0.171875q0 0.109375 -0.078125 0.1875q-0.078125 0.0625 -0.265625 0.0625l-1.8125 0q-0.171875 0 -0.25 -0.0625q-0.078125 -0.078125 -0.078125 -0.1875q0 -0.109375 0.078125 -0.171875q0.078125 -0.078125 0.25 -0.078125l0.421875 0l0 -5.8593826l-0.671875 0q-0.171875 0 -0.25 -0.0625q-0.078125 -0.078125 -0.078125 -0.1875q0 -0.109375 0.078125 -0.171875q0.078125 -0.078125 0.25 -0.078125l1.296875 0l3.625 6.1562576l0 -5.6562576l-0.90625 0q-0.171875 0 -0.25 -0.0625q-0.078125 -0.078125 -0.078125 -0.1875q0 -0.109375 0.078125 -0.171875q0.078125 -0.078125 0.25 -0.078125l1.8125 0q0.1875 0 0.25 0.078125q0.078125 0.0625 0.078125 0.171875q0 0.109375 -0.078125 0.1875q-0.0625 0.0625 -0.25 0.0625l-0.40625 0l0 6.3593826zm3.8105469 -1.765625l1.59375 0l-1.734375 3.234375q-0.15625 0.296875 -0.375 0.296875q-0.15625 0 -0.265625 -0.109375q-0.09375 -0.109375 -0.09375 -0.25q0 -0.0625 0.015625 -0.125l0.859375 -3.046875zm10.341797 -4.4218826l0 -0.34375q0 -0.171875 0.0625 -0.25q0.078125 -0.078125 0.1875 -0.078125q0.109375 0 0.171875 0.078125q0.078125 0.078125 0.078125 0.25l0 1.3750076q0 0.171875 -0.078125 0.25q-0.0625 0.078125 -0.171875 0.078125q-0.109375 0 -0.171875 -0.0625q-0.0625 -0.078125 -0.078125 -0.234375q-0.03125 -0.5000076 -0.53125 -0.8750076q-0.6875 -0.515625 -1.546875 -0.515625q-0.5625 0 -1.078125 0.25q-0.375 0.171875 -0.59375 0.4375q-0.390625 0.45313263 -0.609375 1.0156326q-0.171875 0.40625 -0.171875 0.921875l0 0.859375q0 1.109375 0.796875 1.921875q0.796875 0.8125 1.859375 0.8125q0.625 0 1.125 -0.265625q0.5 -0.28125 0.96875 -0.84375q0.109375 -0.125 0.234375 -0.125q0.09375 0 0.15625 0.0625q0.078125 0.0625 0.078125 0.171875q0 0.125 -0.265625 0.40625q-0.46875 0.53125 -1.078125 0.8125q-0.59375 0.265625 -1.21875 0.265625q-0.53125 0 -1.078125 -0.203125q-0.421875 -0.15625 -0.703125 -0.359375q-0.265625 -0.21875 -0.671875 -0.71875q-0.40625 -0.5 -0.546875 -0.921875q-0.140625 -0.421875 -0.140625 -0.9375l0 -1.0q0 -0.734375 0.390625 -1.484375q0.390625 -0.7656326 1.0625 -1.1718826q0.671875 -0.40625 1.46875 -0.40625q1.21875 0 2.09375 0.828125zm4.060547 4.4218826l1.59375 0l-1.734375 3.234375q-0.15625 0.296875 -0.375 0.296875q-0.15625 0 -0.265625 -0.109375q-0.09375 -0.109375 -0.09375 -0.25q0 -0.0625 0.015625 -0.125l0.859375 -3.046875zm9.841797 -1.546875l-3.265625 0l0 2.8125l0.671875 0q0.171875 0 0.25 0.078125q0.078125 0.0625 0.078125 0.171875q0 0.109375 -0.078125 0.1875q-0.078125 0.0625 -0.25 0.0625l-1.71875 0q-0.171875 0 -0.25 -0.0625q-0.078125 -0.078125 -0.078125 -0.1875q0 -0.109375 0.078125 -0.171875q0.078125 -0.078125 0.25 -0.078125l0.5625 0l0 -5.8593826l-0.3125 0q-0.171875 0 -0.25 -0.0625q-0.078125 -0.078125 -0.078125 -0.1875q0 -0.109375 0.078125 -0.171875q0.078125 -0.078125 0.25 -0.078125l1.46875 0q0.171875 0 0.25 0.078125q0.078125 0.0625 0.078125 0.171875q0 0.109375 -0.078125 0.1875q-0.078125 0.0625 -0.25 0.0625l-0.671875 0l0 2.5468826l3.265625 0l0 -2.5468826l-0.65625 0q-0.171875 0 -0.25 -0.0625q-0.078125 -0.078125 -0.078125 -0.1875q0 -0.109375 0.078125 -0.171875q0.078125 -0.078125 0.25 -0.078125l1.46875 0q0.171875 0 0.25 0.078125q0.078125 0.0625 0.078125 0.171875q0 0.109375 -0.078125 0.1875q-0.078125 0.0625 -0.25 0.0625l-0.3125 0l0 5.8593826l0.5625 0q0.171875 0 0.25 0.078125q0.078125 0.0625 0.078125 0.171875q0 0.109375 -0.078125 0.1875q-0.078125 0.0625 -0.25 0.0625l-1.71875 0q-0.171875 0 -0.25 -0.0625q-0.078125 -0.078125 -0.078125 -0.1875q0 -0.109375 0.078125 -0.171875q0.078125 -0.078125 0.25 -0.078125l0.65625 0l0 -2.8125zm4.560547 1.546875l1.59375 0l-1.734375 3.234375q-0.15625 0.296875 -0.375 0.296875q-0.15625 0 -0.265625 -0.109375q-0.09375 -0.109375 -0.09375 -0.25q0 -0.0625 0.015625 -0.125l0.859375 -3.046875zm10.341782 1.765625l-0.78125 0l-1.390625 -4.875l-1.359375 4.875l-0.78125 0l-0.71875 -6.3593826l-0.1875 0q-0.171875 0 -0.25 -0.0625q-0.078125 -0.078125 -0.078125 -0.1875q0 -0.109375 0.078125 -0.171875q0.078125 -0.078125 0.25 -0.078125l1.828125 0q0.1875 0 0.25 0.078125q0.078125 0.0625 0.078125 0.171875q0 0.109375 -0.078125 0.1875q-0.0625 0.0625 -0.25 0.0625l-1.15625 0l0.65625 5.7968826l1.328125 -4.78125l0.765625 0l1.359375 4.78125l0.640625 -5.7968826l-1.15625 0q-0.171875 0 -0.25 -0.0625q-0.078125 -0.078125 -0.078125 -0.1875q0 -0.109375 0.078125 -0.171875q0.078125 -0.078125 0.25 -0.078125l1.8125 0q0.1875 0 0.265625 0.078125q0.078125 0.0625 0.078125 0.171875q0 0.109375 -0.078125 0.1875q-0.078125 0.0625 -0.265625 0.0625l-0.171875 0l-0.6875 6.3593826zm5.185547 -2.90625q0 0.671875 -0.1875 1.421875q-0.171875 0.75 -0.671875 1.734375q-0.5 1.0 -0.71875 1.203125q-0.078125 0.078125 -0.15625 0.078125q-0.109375 0 -0.1875 -0.078125q-0.0625 -0.078125 -0.0625 -0.171875q0 -0.0625 0.046875 -0.125q0.640625 -1.1875 0.90625 -2.140625q0.28125 -0.96875 0.28125 -1.921875q0 -0.96875 -0.28125 -1.921875q-0.265625 -0.9687576 -0.90625 -2.1562576q-0.046875 -0.078125 -0.046875 -0.125q0 -0.109375 0.0625 -0.171875q0.078125 -0.078125 0.1875 -0.078125q0.078125 0 0.15625 0.0625q0.21875 0.203125 0.703125 1.171875q0.5 0.9687576 0.6875 1.7187576q0.1875 0.734375 0.1875 1.5z" fill-rule="nonzero"/><path fill="#000000" fill-opacity="0.0" d="m72.28346 64.4042l30.204727 -0.25196838" fill-rule="evenodd"/><path stroke="#000000" stroke-width="1.0" stroke-linejoin="round" stroke-linecap="butt" d="m72.28346 64.4042l24.204933 -0.20191956" fill-rule="evenodd"/><path fill="#000000" stroke="#000000" stroke-width="1.0" stroke-linecap="butt" d="m96.502174 65.85396l4.5241623 -1.6895294l-4.5517197 -1.6138229z" fill-rule="evenodd"/><path fill="#000000" fill-opacity="0.0" d="m102.49225 96.645966l-15.993614 0l0 33.259842l43.33219 0" fill-rule="evenodd"/><path stroke="#000000" stroke-width="1.0" stroke-linejoin="round" stroke-linecap="butt" d="m102.49225 96.645966l-15.993614 0l0 33.259842l37.3322 0" fill-rule="evenodd"/><path fill="#000000" stroke="#000000" stroke-width="1.0" stroke-linecap="butt" d="m123.83083 131.55754l4.5380936 -1.6517334l-4.5380936 -1.6517334z" fill-rule="evenodd"/></g></svg>