<svg version="1.1" viewBox="0.0 0.0 733.6824146981627 212.86089238845145" fill="none" stroke="none" stroke-linecap="square" stroke-miterlimit="10" xmlns:xlink="http://www.w3.org/1999/xlink" xmlns="http://www.w3.org/2000/svg"><clipPath id="p.0"><path d="m0 0l733.68243 0l0 212.86089l-733.68243 0l0 -212.86089z" clip-rule="nonzero"/></clipPath><g clip-path="url(#p.0)"><path fill="#000000" fill-opacity="0.0" d="m0 0l733.68243 0l0 212.86089l-733.68243 0z" fill-rule="evenodd"/><path fill="#cfe2f3" d="m82.25459 40.46719l0 0c0 -17.931133 14.5360565 -32.46719 32.467194 -32.46719l475.88452 0c8.61084 0 16.868958 3.420641 22.957764 9.50942c6.088745 6.0887794 9.509399 14.346937 9.509399 22.95777l0 129.86876c0 17.931137 -14.536072 32.467194 -32.467163 32.467194l-475.88452 0c-17.931137 0 -32.467194 -14.5360565 -32.467194 -32.467194z" fill-rule="evenodd"/><path stroke="#0000ff" stroke-width="3.0" stroke-linejoin="round" stroke-linecap="butt" d="m82.25459 40.46719l0 0c0 -17.931133 14.5360565 -32.46719 32.467194 -32.46719l475.88452 0c8.61084 0 16.868958 3.420641 22.957764 9.50942c6.088745 6.0887794 9.509399 14.346937 9.509399 22.95777l0 129.86876c0 17.931137 -14.536072 32.467194 -32.467163 32.467194l-475.88452 0c-17.931137 0 -32.467194 -14.5360565 -32.467194 -32.467194z" fill-rule="evenodd"/><path fill="#000000" d="m536.41406 40.28869l0 4.140625l-10.453125 0l0 -1.03125l0.203125 0q0.703125 0 1.140625 -0.125q0.453125 -0.125 0.453125 -0.546875l0 -9.859375q0 -0.421875 -0.453125 -0.546875q-0.4375 -0.125 -1.140625 -0.125l-0.203125 0l0 -1.015625l9.984375 0l0 3.671875l-1.125 0l-0.203125 -1.734375q-0.03125 -0.328125 -0.28125 -0.5q-0.234375 -0.1875 -0.75 -0.25q-0.5 -0.0625 -1.296875 -0.0625l-2.8125 0l0 10.984375l3.21875 0q0.609375 0 1.046875 -0.015625q0.4375 -0.03125 0.703125 -0.125q0.28125 -0.09375 0.421875 -0.265625q0.140625 -0.171875 0.171875 -0.40625l0.21875 -2.1875l1.15625 0zm-7.375 -3.171875q0.84375 -0.0625 1.671875 -0.078125q0.84375 -0.03125 1.6875 -0.0625q0.84375 -0.046875 1.6875 -0.078125l0 1.46875q-0.84375 -0.03125 -1.6875 -0.0625q-0.84375 -0.046875 -1.6875 -0.078125q-0.828125 -0.046875 -1.671875 -0.078125l0 -1.03125zm9.405029 7.3125l0 -0.890625l0.0625 0q0.484375 0 0.828125 -0.078125q0.359375 -0.09375 0.546875 -0.328125q0.1875 -0.234375 0.1875 -0.640625l0 -6.234375q0 -0.28125 -0.15625 -0.421875q-0.15625 -0.140625 -0.484375 -0.234375q-0.3125 -0.09375 -0.796875 -0.1875l-0.1875 -0.03125l0 -0.96875l2.984375 0l0.234375 2.125l0.0625 0.09375l0 6.71875q0 0.046875 0.21875 0.09375q0.234375 0.046875 0.546875 0.078125q0.328125 0.015625 0.578125 0.015625l0.078125 0l0 0.890625l-4.703125 0zm11.3125 0l-4.703125 0l0 -0.890625l0.046875 0q0.265625 0 0.578125 -0.015625q0.328125 -0.03125 0.5625 -0.078125q0.234375 -0.046875 0.234375 -0.09375l0 -6.109375q0 -0.609375 -0.171875 -1.0q-0.15625 -0.390625 -0.515625 -0.578125q-0.34375 -0.203125 -0.9375 -0.203125q-0.625 0 -1.21875 0.25q-0.578125 0.234375 -1.125 0.71875q-0.546875 0.484375 -1.109375 1.25l0 -1.015625q0.53125 -0.796875 1.125 -1.328125q0.609375 -0.546875 1.28125 -0.828125q0.6875 -0.28125 1.46875 -0.28125q0.921875 0 1.546875 0.3125q0.625 0.296875 0.96875 0.921875q0.34375 0.625 0.34375 1.578125l0 5.453125q0 0.40625 0.1875 0.640625q0.1875 0.234375 0.53125 0.328125q0.359375 0.078125 0.84375 0.078125l0.0625 0l0 0.890625zm6.5460815 -0.921875q0.8125 0 1.40625 -0.265625q0.59375 -0.28125 1.0 -0.71875q0.421875 -0.4375 0.75 -0.921875l0.875 0.71875q-0.375 0.671875 -0.96875 1.203125q-0.578125 0.53125 -1.359375 0.828125q-0.765625 0.28125 -1.75 0.28125q-1.578125 0 -2.734375 -0.640625q-1.140625 -0.640625 -1.765625 -1.8125q-0.609375 -1.171875 -0.609375 -2.75q0 -1.609375 0.640625 -2.765625q0.640625 -1.171875 1.796875 -1.796875q1.171875 -0.640625 2.765625 -0.640625q0.984375 0 1.71875 0.171875q0.75 0.15625 1.25 0.375q0.515625 0.21875 0.734375 0.390625l0 2.828125l-1.6875 0l0 -2.40625q0.1875 0.015625 0.359375 0.09375q0.171875 0.0625 0.28125 0.171875q0.109375 0.109375 0.15625 0.25q0.0625 0.125 0.0625 0.265625q-0.40625 -0.421875 -1.171875 -0.703125q-0.765625 -0.296875 -1.703125 -0.296875q-1.171875 0 -1.9375 0.484375q-0.765625 0.46875 -1.140625 1.390625q-0.359375 0.90625 -0.359375 2.1875q0 0.984375 0.203125 1.75q0.203125 0.765625 0.625 1.296875q0.421875 0.515625 1.046875 0.78125q0.640625 0.25 1.515625 0.25zm15.652283 -4.078125q0 1.578125 -0.625 2.765625q-0.625 1.171875 -1.765625 1.8125q-1.125 0.625 -2.625 0.625q-1.53125 0 -2.671875 -0.625q-1.125 -0.640625 -1.75 -1.8125q-0.625 -1.1875 -0.625 -2.765625q0 -1.1875 0.359375 -2.140625q0.359375 -0.96875 1.03125 -1.65625q0.671875 -0.6875 1.59375 -1.046875q0.921875 -0.359375 2.0625 -0.359375q1.140625 0 2.046875 0.359375q0.921875 0.359375 1.59375 1.046875q0.671875 0.6875 1.015625 1.65625q0.359375 0.953125 0.359375 2.140625zm-8.296875 0q0 1.34375 0.359375 2.265625q0.375 0.90625 1.09375 1.359375q0.734375 0.453125 1.828125 0.453125q1.078125 0 1.796875 -0.453125q0.734375 -0.453125 1.09375 -1.359375q0.375 -0.921875 0.375 -2.265625q0 -1.3125 -0.375 -2.203125q-0.359375 -0.90625 -1.09375 -1.375q-0.71875 -0.484375 -1.796875 -0.484375q-1.09375 0 -1.828125 0.484375q-0.71875 0.46875 -1.09375 1.375q-0.359375 0.890625 -0.359375 2.203125zm19.65918 3.265625q0 0.40625 0.421875 0.546875q0.421875 0.125 1.109375 0.203125l0.09375 0.015625l0 0.96875l-2.984375 0l-0.234375 -2.1875l-0.0625 -0.015625l0 -10.09375q0 -0.28125 -0.171875 -0.421875q-0.15625 -0.140625 -0.484375 -0.234375q-0.328125 -0.09375 -0.828125 -0.1875l-0.1875 -0.03125l0 -0.96875l3.328125 0l0 12.40625zm-4.953125 -8.46875q0.828125 0 1.46875 0.28125q0.640625 0.28125 1.171875 0.8125q0.53125 0.515625 0.984375 1.296875l-0.0625 1.234375q-0.453125 -0.84375 -0.984375 -1.390625q-0.515625 -0.5625 -1.125 -0.8125q-0.609375 -0.265625 -1.359375 -0.265625q-0.71875 0 -1.28125 0.28125q-0.5625 0.265625 -0.9375 0.78125q-0.375 0.515625 -0.5625 1.296875q-0.171875 0.78125 -0.171875 1.765625q0 0.953125 0.171875 1.703125q0.171875 0.734375 0.515625 1.25q0.34375 0.515625 0.890625 0.78125q0.546875 0.25 1.265625 0.25q0.78125 0 1.421875 -0.265625q0.640625 -0.265625 1.171875 -0.8125q0.546875 -0.5625 1.03125 -1.375l0.015625 1.140625q-0.484375 0.78125 -1.03125 1.328125q-0.53125 0.546875 -1.21875 0.84375q-0.671875 0.28125 -1.53125 0.28125q-1.421875 0 -2.421875 -0.640625q-0.984375 -0.640625 -1.515625 -1.796875q-0.53125 -1.15625 -0.53125 -2.6875q0 -1.546875 0.546875 -2.734375q0.5625 -1.1875 1.59375 -1.859375q1.046875 -0.6875 2.484375 -0.6875zm9.633789 5.296875q0 1.078125 0.25 1.84375q0.25 0.765625 0.71875 1.234375q0.46875 0.46875 1.078125 0.6875q0.609375 0.21875 1.3125 0.21875q0.78125 0 1.359375 -0.265625q0.578125 -0.28125 1.0 -0.703125q0.421875 -0.4375 0.71875 -0.921875l0.890625 0.71875q-0.34375 0.65625 -0.9375 1.1875q-0.578125 0.53125 -1.359375 0.828125q-0.765625 0.28125 -1.71875 0.28125q-1.40625 0 -2.546875 -0.59375q-1.140625 -0.59375 -1.8125 -1.75q-0.65625 -1.15625 -0.65625 -2.78125q0 -1.59375 0.609375 -2.765625q0.609375 -1.1875 1.65625 -1.84375q1.0625 -0.671875 2.421875 -0.671875q1.09375 0 1.890625 0.359375q0.8125 0.34375 1.34375 1.0625q0.546875 0.703125 0.828125 1.765625q0.28125 1.0625 0.28125 2.484375l-7.71875 0l0 -1.078125l6.484375 0l-0.484375 0.40625q-0.03125 -1.0625 -0.1875 -1.796875q-0.15625 -0.75 -0.46875 -1.203125q-0.3125 -0.453125 -0.796875 -0.65625q-0.484375 -0.203125 -1.171875 -0.203125q-0.65625 0 -1.203125 0.25q-0.546875 0.25 -0.953125 0.78125q-0.40625 0.515625 -0.625 1.296875q-0.203125 0.78125 -0.203125 1.828125zm15.964783 -5.25l0 1.796875q-0.125 -0.03125 -0.3125 -0.046875q-0.1875 -0.03125 -0.390625 -0.046875q-0.1875 -0.015625 -0.375 -0.015625q-0.515625 0 -0.9375 0.109375q-0.40625 0.09375 -0.75 0.3125q-0.34375 0.21875 -0.65625 0.5625q-0.3125 0.328125 -0.65625 0.8125l0 -0.859375q0.46875 -0.875 0.953125 -1.46875q0.5 -0.609375 1.09375 -0.90625q0.59375 -0.3125 1.34375 -0.3125q0.21875 0 0.421875 0.015625q0.203125 0.015625 0.265625 0.046875zm-7.03125 10.15625l0 -0.890625l0.0625 0q0.71875 0 1.140625 -0.203125q0.421875 -0.21875 0.421875 -0.84375l0 -6.234375q0 -0.28125 -0.15625 -0.421875q-0.15625 -0.140625 -0.484375 -0.234375q-0.3125 -0.09375 -0.796875 -0.1875l-0.1875 -0.03125l0 -0.96875l2.984375 0l0.234375 2.5l0.0625 -0.078125l0 6.28125q0 0.171875 0.265625 0.265625q0.265625 0.09375 0.609375 0.125q0.359375 0.03125 0.625 0.03125l0.40625 0l0 0.890625l-5.1875 0z" fill-rule="nonzero"/><path fill="#000000" fill-opacity="0.0" d="m69.6063 82.519684l39.937004 0" fill-rule="evenodd"/><path stroke="#000000" stroke-width="1.0" stroke-linejoin="round" stroke-linecap="butt" d="m69.6063 82.519684l36.509926 0" fill-rule="evenodd"/><path fill="#000000" stroke="#000000" stroke-width="1.0" stroke-linecap="butt" d="m106.11622 82.519684l-1.1245804 1.124588l3.0897675 -1.124588l-3.0897675 -1.1245804z" fill-rule="evenodd"/><path fill="#ffffff" d="m109.54462 61.527557l153.13385 0l0 41.984253l-153.13385 0z" fill-rule="evenodd"/><path stroke="#000000" stroke-width="1.0" stroke-linejoin="round" stroke-linecap="butt" d="m109.54462 61.527557l153.13385 0l0 41.984253l-153.13385 0z" fill-rule="evenodd"/><path fill="#000000" d="m148.48315 85.29906l0 4.140625l-10.453125 0l0 -1.03125l0.203125 0q0.703125 0 1.140625 -0.125q0.453125 -0.125 0.453125 -0.546875l0 -9.859375q0 -0.421875 -0.453125 -0.546875q-0.4375 -0.125 -1.140625 -0.125l-0.203125 0l0 -1.015625l9.984375 0l0 3.671875l-1.125 0l-0.203125 -1.734375q-0.03125 -0.328125 -0.28125 -0.5q-0.234375 -0.1875 -0.75 -0.25q-0.5 -0.0625 -1.296875 -0.0625l-2.8125 0l0 10.984375l3.21875 0q0.609375 0 1.046875 -0.015625q0.4375 -0.03125 0.703125 -0.125q0.28125 -0.09375 0.421875 -0.265625q0.140625 -0.171875 0.171875 -0.40625l0.21875 -2.1875l1.15625 0zm-7.375 -3.171875q0.84375 -0.0625 1.671875 -0.078125q0.84375 -0.03125 1.6875 -0.0625q0.84375 -0.046875 1.6875 -0.078125l0 1.46875q-0.84375 -0.03125 -1.6875 -0.0625q-0.84375 -0.046875 -1.6875 -0.078125q-0.828125 -0.046875 -1.671875 -0.078125l0 -1.03125zm9.404999 7.3125l0 -0.890625l0.0625 0q0.71875 0 1.140625 -0.203125q0.421875 -0.21875 0.421875 -0.84375l0 -6.234375q0 -0.28125 -0.15625 -0.421875q-0.15625 -0.140625 -0.484375 -0.234375q-0.3125 -0.09375 -0.796875 -0.1875l-0.1875 -0.03125l0 -0.96875l2.96875 0l0.21875 2.109375l0.09375 0.109375l0 6.71875q0 0.046875 0.21875 0.09375q0.234375 0.046875 0.53125 0.078125q0.3125 0.015625 0.5625 0.015625l0.078125 0l0 0.890625l-4.671875 0zm10.59375 0l-4.421875 0l0 -0.890625l0.0625 0q0.265625 0 0.5625 -0.015625q0.3125 -0.03125 0.53125 -0.078125q0.234375 -0.046875 0.234375 -0.09375l0 -6.109375q0 -0.59375 -0.140625 -0.984375q-0.125 -0.40625 -0.421875 -0.59375q-0.296875 -0.203125 -0.84375 -0.203125q-0.578125 0 -1.109375 0.25q-0.515625 0.234375 -1.046875 0.71875q-0.515625 0.46875 -1.0625 1.171875l0.015625 -1.078125q0.53125 -0.734375 1.078125 -1.234375q0.5625 -0.515625 1.1875 -0.78125q0.640625 -0.28125 1.390625 -0.28125q0.8125 0 1.40625 0.3125q0.59375 0.296875 0.890625 0.921875q0.3125 0.625 0.3125 1.578125l0 6.3125q0 0.046875 0.203125 0.09375q0.21875 0.046875 0.53125 0.078125q0.328125 0.015625 0.59375 0.015625l0.046875 0l0 0.890625zm6.203125 0l-4.6875 0l0 -0.890625l0.078125 0q0.265625 0 0.5625 -0.015625q0.296875 -0.03125 0.5 -0.078125q0.21875 -0.046875 0.21875 -0.09375l0 -6.109375q0 -0.59375 -0.125 -0.984375q-0.125 -0.40625 -0.4375 -0.59375q-0.296875 -0.203125 -0.8125 -0.203125q-0.578125 0 -1.109375 0.25q-0.53125 0.234375 -1.046875 0.71875q-0.515625 0.46875 -1.078125 1.171875l0 -1.078125q0.5625 -0.734375 1.109375 -1.234375q0.5625 -0.515625 1.1875 -0.78125q0.625 -0.28125 1.359375 -0.28125q0.84375 0 1.421875 0.3125q0.578125 0.296875 0.875 0.921875q0.3125 0.625 0.3125 1.578125l0 5.453125q0 0.625 0.421875 0.84375q0.4375 0.203125 1.171875 0.203125l0.078125 0l0 0.890625zm7.2571106 0.203125q-0.8125 0 -1.46875 -0.28125q-0.640625 -0.28125 -1.171875 -0.8125q-0.53125 -0.53125 -1.0 -1.296875l0.0625 -1.1875q0.484375 0.796875 1.015625 1.359375q0.53125 0.546875 1.125 0.8125q0.609375 0.265625 1.359375 0.265625q0.734375 0 1.28125 -0.265625q0.546875 -0.265625 0.90625 -0.796875q0.375 -0.53125 0.546875 -1.296875q0.1875 -0.765625 0.1875 -1.765625q0 -0.96875 -0.171875 -1.703125q-0.15625 -0.734375 -0.5 -1.25q-0.34375 -0.515625 -0.875 -0.765625q-0.53125 -0.265625 -1.265625 -0.265625q-0.78125 0 -1.421875 0.28125q-0.625 0.265625 -1.171875 0.8125q-0.53125 0.53125 -1.046875 1.375l-0.03125 -1.140625q0.5 -0.78125 1.046875 -1.34375q0.5625 -0.5625 1.234375 -0.84375q0.671875 -0.296875 1.546875 -0.296875q1.390625 0 2.375 0.65625q1.0 0.640625 1.515625 1.796875q0.53125 1.140625 0.53125 2.6875q0 1.53125 -0.5625 2.71875q-0.546875 1.1875 -1.578125 1.875q-1.015625 0.671875 -2.46875 0.671875zm-4.953125 -12.5q0 -0.28125 -0.15625 -0.421875q-0.15625 -0.140625 -0.484375 -0.234375q-0.3125 -0.09375 -0.8125 -0.1875l-0.1875 -0.03125l0 -0.96875l3.3125 0l0 11.890625l-0.09375 0.125l-0.453125 2.34375l-1.125 0l0 -12.515625zm13.04657 7.390625q0 1.078125 0.25 1.84375q0.25 0.765625 0.71875 1.234375q0.46875 0.46875 1.078125 0.6875q0.609375 0.21875 1.3125 0.21875q0.78125 0 1.359375 -0.265625q0.578125 -0.28125 1.0 -0.703125q0.421875 -0.4375 0.71875 -0.921875l0.890625 0.71875q-0.34375 0.65625 -0.9375 1.1875q-0.578125 0.53125 -1.359375 0.828125q-0.765625 0.28125 -1.71875 0.28125q-1.40625 0 -2.546875 -0.59375q-1.140625 -0.59375 -1.8125 -1.75q-0.65625 -1.15625 -0.65625 -2.78125q0 -1.59375 0.609375 -2.765625q0.609375 -1.1875 1.65625 -1.84375q1.0625 -0.671875 2.421875 -0.671875q1.09375 0 1.890625 0.359375q0.8125 0.34375 1.34375 1.0625q0.546875 0.703125 0.828125 1.765625q0.28125 1.0625 0.28125 2.484375l-7.71875 0l0 -1.078125l6.484375 0l-0.484375 0.40625q-0.03125 -1.0625 -0.1875 -1.796875q-0.15625 -0.75 -0.46875 -1.203125q-0.3125 -0.453125 -0.796875 -0.65625q-0.484375 -0.203125 -1.171875 -0.203125q-0.65625 0 -1.203125 0.25q-0.546875 0.25 -0.953125 0.78125q-0.40625 0.515625 -0.625 1.296875q-0.203125 0.78125 -0.203125 1.828125zm18.714325 3.171875q0 0.40625 0.421875 0.546875q0.421875 0.125 1.109375 0.203125l0.09375 0.015625l0 0.96875l-2.984375 0l-0.234375 -2.1875l-0.0625 -0.015625l0 -10.09375q0 -0.28125 -0.171875 -0.421875q-0.15625 -0.140625 -0.484375 -0.234375q-0.328125 -0.09375 -0.828125 -0.1875l-0.1875 -0.03125l0 -0.96875l3.328125 0l0 12.40625zm-4.953125 -8.46875q0.828125 0 1.46875 0.28125q0.640625 0.28125 1.171875 0.8125q0.53125 0.515625 0.984375 1.296875l-0.0625 1.234375q-0.453125 -0.84375 -0.984375 -1.390625q-0.515625 -0.5625 -1.125 -0.8125q-0.609375 -0.265625 -1.359375 -0.265625q-0.71875 0 -1.28125 0.28125q-0.5625 0.265625 -0.9375 0.78125q-0.375 0.515625 -0.5625 1.296875q-0.171875 0.78125 -0.171875 1.765625q0 0.953125 0.171875 1.703125q0.171875 0.734375 0.515625 1.25q0.34375 0.515625 0.890625 0.78125q0.546875 0.25 1.265625 0.25q0.78125 0 1.421875 -0.265625q0.640625 -0.265625 1.171875 -0.8125q0.546875 -0.5625 1.03125 -1.375l0.015625 1.140625q-0.484375 0.78125 -1.03125 1.328125q-0.53125 0.546875 -1.21875 0.84375q-0.671875 0.28125 -1.53125 0.28125q-1.421875 0 -2.421875 -0.640625q-0.984375 -0.640625 -1.515625 -1.796875q-0.53125 -1.15625 -0.53125 -2.6875q0 -1.546875 0.546875 -2.734375q0.5625 -1.1875 1.59375 -1.859375q1.046875 -0.6875 2.484375 -0.6875zm17.50879 8.46875q0 0.40625 0.421875 0.546875q0.421875 0.125 1.109375 0.203125l0.09375 0.015625l0 0.96875l-2.984375 0l-0.234375 -2.1875l-0.0625 -0.015625l0 -10.09375q0 -0.28125 -0.171875 -0.421875q-0.15625 -0.140625 -0.484375 -0.234375q-0.328125 -0.09375 -0.828125 -0.1875l-0.1875 -0.03125l0 -0.96875l3.328125 0l0 12.40625zm-4.953125 -8.46875q0.828125 0 1.46875 0.28125q0.640625 0.28125 1.171875 0.8125q0.53125 0.515625 0.984375 1.296875l-0.0625 1.234375q-0.453125 -0.84375 -0.984375 -1.390625q-0.515625 -0.5625 -1.125 -0.8125q-0.609375 -0.265625 -1.359375 -0.265625q-0.71875 0 -1.28125 0.28125q-0.5625 0.265625 -0.9375 0.78125q-0.375 0.515625 -0.5625 1.296875q-0.171875 0.78125 -0.171875 1.765625q0 0.953125 0.171875 1.703125q0.171875 0.734375 0.515625 1.25q0.34375 0.515625 0.890625 0.78125q0.546875 0.25 1.265625 0.25q0.78125 0 1.421875 -0.265625q0.640625 -0.265625 1.171875 -0.8125q0.546875 -0.5625 1.03125 -1.375l0.015625 1.140625q-0.484375 0.78125 -1.03125 1.328125q-0.53125 0.546875 -1.21875 0.84375q-0.671875 0.28125 -1.53125 0.28125q-1.421875 0 -2.421875 -0.640625q-0.984375 -0.640625 -1.515625 -1.796875q-0.53125 -1.15625 -0.53125 -2.6875q0 -1.546875 0.546875 -2.734375q0.5625 -1.1875 1.59375 -1.859375q1.046875 -0.6875 2.484375 -0.6875zm9.633789 5.296875q0 1.078125 0.25 1.84375q0.25 0.765625 0.71875 1.234375q0.46875 0.46875 1.078125 0.6875q0.609375 0.21875 1.3125 0.21875q0.78125 0 1.359375 -0.265625q0.578125 -0.28125 1.0 -0.703125q0.421875 -0.4375 0.71875 -0.921875l0.890625 0.71875q-0.34375 0.65625 -0.9375 1.1875q-0.578125 0.53125 -1.359375 0.828125q-0.765625 0.28125 -1.71875 0.28125q-1.40625 0 -2.546875 -0.59375q-1.140625 -0.59375 -1.8125 -1.75q-0.65625 -1.15625 -0.65625 -2.78125q0 -1.59375 0.609375 -2.765625q0.609375 -1.1875 1.65625 -1.84375q1.0625 -0.671875 2.421875 -0.671875q1.09375 0 1.890625 0.359375q0.8125 0.34375 1.34375 1.0625q0.546875 0.703125 0.828125 1.765625q0.28125 1.0625 0.28125 2.484375l-7.71875 0l0 -1.078125l6.484375 0l-0.484375 0.40625q-0.03125 -1.0625 -0.1875 -1.796875q-0.15625 -0.75 -0.46875 -1.203125q-0.3125 -0.453125 -0.796875 -0.65625q-0.484375 -0.203125 -1.171875 -0.203125q-0.65625 0 -1.203125 0.25q-0.546875 0.25 -0.953125 0.78125q-0.40625 0.515625 -0.625 1.296875q-0.203125 0.78125 -0.203125 1.828125zm15.964752 -5.25l0 1.796875q-0.125 -0.03125 -0.3125 -0.046875q-0.1875 -0.03125 -0.390625 -0.046875q-0.1875 -0.015625 -0.375 -0.015625q-0.515625 0 -0.9375 0.109375q-0.40625 0.09375 -0.75 0.3125q-0.34375 0.21875 -0.65625 0.5625q-0.3125 0.328125 -0.65625 0.8125l0 -0.859375q0.46875 -0.875 0.953125 -1.46875q0.5 -0.609375 1.09375 -0.90625q0.59375 -0.3125 1.34375 -0.3125q0.21875 0 0.421875 0.015625q0.203125 0.015625 0.265625 0.046875zm-7.03125 10.15625l0 -0.890625l0.0625 0q0.71875 0 1.140625 -0.203125q0.421875 -0.21875 0.421875 -0.84375l0 -6.234375q0 -0.28125 -0.15625 -0.421875q-0.15625 -0.140625 -0.484375 -0.234375q-0.3125 -0.09375 -0.796875 -0.1875l-0.1875 -0.03125l0 -0.96875l2.984375 0l0.234375 2.5l0.0625 -0.078125l0 6.28125q0 0.171875 0.265625 0.265625q0.265625 0.09375 0.609375 0.125q0.359375 0.03125 0.625 0.03125l0.40625 0l0 0.890625l-5.1875 0z" fill-rule="nonzero"/><path fill="#ffffff" d="m302.6181 61.527557l153.13388 0l0 41.984253l-153.13388 0z" fill-rule="evenodd"/><path stroke="#000000" stroke-width="1.0" stroke-linejoin="round" stroke-linecap="butt" d="m302.6181 61.527557l153.13388 0l0 41.984253l-153.13388 0z" fill-rule="evenodd"/><path fill="#000000" d="m319.76654 77.193436q0.796875 0 1.421875 0.171875q0.640625 0.171875 1.0625 0.515625q0.421875 0.328125 0.65625 0.828125q0.234375 0.5 0.234375 1.125q0 0.6875 -0.359375 1.234375q-0.359375 0.53125 -1.078125 0.84375q-0.71875 0.296875 -1.78125 0.296875l0.65625 -0.40625l0 0.65625l-0.59375 -0.421875q1.171875 0.015625 1.96875 0.359375q0.796875 0.328125 1.21875 0.90625q0.421875 0.578125 0.421875 1.375q0 0.703125 -0.25 1.25q-0.25 0.546875 -0.71875 0.921875q-0.46875 0.375 -1.15625 0.5625q-0.6875 0.1875 -1.5625 0.1875l-4.84375 0l0 -0.8125l0.15625 0q0.546875 0 0.890625 -0.09375q0.359375 -0.109375 0.359375 -0.421875l0 -7.765625q0 -0.3125 -0.359375 -0.40625q-0.34375 -0.109375 -0.890625 -0.109375l-0.15625 0l0 -0.796875l4.703125 0zm-2.390625 4.53125l2.359375 0q0.71875 0 1.15625 -0.21875q0.453125 -0.21875 0.640625 -0.640625q0.203125 -0.4375 0.203125 -1.015625q0 -0.578125 -0.21875 -0.96875q-0.203125 -0.390625 -0.640625 -0.609375q-0.421875 -0.21875 -1.140625 -0.21875l-1.90625 0l0 8.671875l2.046875 0q0.796875 0 1.296875 -0.234375q0.515625 -0.234375 0.75 -0.6875q0.25 -0.46875 0.25 -1.140625q0 -0.65625 -0.25 -1.125q-0.25 -0.46875 -0.78125 -0.71875q-0.515625 -0.25 -1.34375 -0.25l-2.421875 0l0 -0.84375zm9.56015 -3.609375q-0.4375 0 -0.703125 -0.234375q-0.25 -0.234375 -0.25 -0.703125q0 -0.453125 0.25 -0.6875q0.265625 -0.234375 0.703125 -0.234375q0.40625 0 0.671875 0.234375q0.28125 0.234375 0.28125 0.6875q0 0.46875 -0.28125 0.703125q-0.265625 0.234375 -0.671875 0.234375zm0.734375 1.609375l0 6.421875q0 0.453125 0.34375 0.609375q0.34375 0.140625 0.90625 0.140625l0.046875 0l0 0.703125l-3.875 0l0 -0.703125l0.046875 0q0.578125 0 0.90625 -0.140625q0.34375 -0.15625 0.34375 -0.609375l0 -4.96875q0 -0.3125 -0.28125 -0.421875q-0.28125 -0.125 -0.859375 -0.234375l-0.15625 -0.03125l0 -0.765625l2.578125 0zm6.7848816 -2.53125l-4.28125 0l0 0.796875l0.15625 0q0.546875 0 0.890625 0.109375q0.359375 0.09375 0.359375 0.40625l0 7.765625q0 0.3125 -0.359375 0.421875q-0.34375 0.09375 -0.890625 0.09375l-0.15625 0l0 0.8125l7.9375 0l0 -3.375l-0.921875 0l-0.171875 1.84375q-0.015625 0.25 -0.21875 0.390625q-0.203125 0.140625 -0.59375 0.203125q-0.390625 0.046875 -1.015625 0.046875l-2.25 0l0 -8.203125q0 -0.3125 0.375 -0.40625q0.375 -0.109375 0.9375 -0.109375l0.203125 0l0 -0.796875zm9.565582 9.765625q0.75 0 1.234375 -0.1875q0.5 -0.1875 0.734375 -0.59375q0.25 -0.40625 0.25 -1.078125q0 -0.609375 -0.25 -1.0q-0.25 -0.390625 -0.6875 -0.625q-0.421875 -0.25 -0.953125 -0.40625q-0.515625 -0.15625 -1.078125 -0.296875q-0.640625 -0.171875 -1.234375 -0.359375q-0.59375 -0.203125 -1.0625 -0.53125q-0.46875 -0.328125 -0.75 -0.859375q-0.265625 -0.546875 -0.265625 -1.359375q0 -0.84375 0.390625 -1.453125q0.390625 -0.609375 1.109375 -0.9375q0.71875 -0.34375 1.6875 -0.34375q0.765625 0 1.375 0.234375q0.609375 0.234375 1.046875 0.78125q0.4375 0.546875 0.671875 1.515625l-0.359375 -0.296875l0.171875 -2.046875l0.90625 0l0 3.0l-0.96875 0q-0.21875 -0.75 -0.609375 -1.265625q-0.390625 -0.515625 -0.9375 -0.78125q-0.546875 -0.265625 -1.25 -0.265625q-0.703125 0 -1.15625 0.21875q-0.4375 0.203125 -0.640625 0.59375q-0.203125 0.375 -0.203125 0.921875q0 0.546875 0.21875 0.890625q0.234375 0.34375 0.625 0.5625q0.40625 0.203125 0.921875 0.359375q0.53125 0.15625 1.140625 0.3125q0.625 0.15625 1.234375 0.375q0.609375 0.203125 1.109375 0.546875q0.515625 0.328125 0.796875 0.859375q0.296875 0.53125 0.296875 1.34375q0 1.046875 -0.46875 1.734375q-0.453125 0.671875 -1.234375 1.0q-0.78125 0.328125 -1.78125 0.328125q-0.921875 0 -1.703125 -0.28125q-0.765625 -0.296875 -1.296875 -0.9375q-0.53125 -0.65625 -0.734375 -1.765625l0.453125 0.40625l-0.1875 2.40625l-0.953125 0l0 -3.453125l1.0 0q0.21875 0.890625 0.6875 1.515625q0.46875 0.609375 1.15625 0.921875q0.6875 0.296875 1.546875 0.296875zm8.601593 -0.6875l0 -8.21875l-0.828125 0q-0.6875 0 -1.09375 0.0625q-0.40625 0.0625 -0.609375 0.21875q-0.1875 0.15625 -0.203125 0.421875l-0.171875 1.640625l-0.875 0l0 -3.203125l8.921875 0l0 3.203125l-0.875 0l-0.15625 -1.640625q-0.03125 -0.265625 -0.234375 -0.421875q-0.203125 -0.15625 -0.609375 -0.21875q-0.40625 -0.0625 -1.0625 -0.0625l-0.84375 0l0 8.21875q0 0.3125 0.359375 0.421875q0.375 0.09375 0.921875 0.09375l0.265625 0l0 0.8125l-4.453125 0l0 -0.8125l0.25 0q0.546875 0 0.921875 -0.09375q0.375 -0.109375 0.375 -0.421875zm6.630554 1.328125l0 -0.8125l0.15625 0q0.359375 0 0.640625 -0.03125q0.28125 -0.046875 0.4375 -0.15625q0.171875 -0.125 0.171875 -0.328125l0 -7.765625q0 -0.21875 -0.171875 -0.328125q-0.15625 -0.109375 -0.4375 -0.140625q-0.28125 -0.046875 -0.640625 -0.046875l-0.15625 0l0 -0.796875l3.578125 0l2.921875 9.0625l-0.234375 0.03125l2.984375 -9.09375l3.515625 0l0 0.796875l-0.171875 0q-0.53125 0 -0.890625 0.109375q-0.34375 0.09375 -0.34375 0.40625l0 7.765625q0 0.3125 0.34375 0.421875q0.359375 0.09375 0.890625 0.09375l0.171875 0l0 0.8125l-4.015625 0l0 -0.8125l0.125 0q0.25 0 0.5 0q0.265625 -0.015625 0.4375 -0.046875q0.1875 -0.03125 0.1875 -0.078125l0 -9.171875l0.15625 -0.0625l-3.5 10.203125l-0.921875 0l-3.5 -10.203125l0.15625 0.03125l0 9.203125q0 0.046875 0.1875 0.078125q0.203125 0.03125 0.46875 0.046875q0.28125 0 0.46875 0l0.0625 0l0 0.8125l-3.578125 0zm15.239136 2.53125l-0.984375 -0.640625q0.65625 -0.296875 1.09375 -0.609375q0.453125 -0.3125 0.6875 -0.703125q0.234375 -0.390625 0.234375 -0.859375q0.015625 -0.046875 0.03125 -0.078125q0.03125 -0.046875 0.0625 -0.0625q0.046875 -0.03125 0.078125 -0.03125q0.046875 0 0.0625 0.03125q-0.03125 0.15625 -0.140625 0.25q-0.09375 0.09375 -0.234375 0.140625q-0.140625 0.046875 -0.328125 0.046875q-0.484375 0 -0.796875 -0.265625q-0.3125 -0.265625 -0.3125 -0.71875q0 -0.453125 0.3125 -0.75q0.328125 -0.296875 0.84375 -0.296875q0.375 0 0.65625 0.15625q0.28125 0.15625 0.4375 0.484375q0.171875 0.3125 0.171875 0.796875q0 0.671875 -0.1875 1.21875q-0.1875 0.5625 -0.609375 1.015625q-0.421875 0.46875 -1.078125 0.875zm9.809174 -8.328125l6.171875 0l0 0.875l-6.171875 0l0 -0.875zm-2.390625 5.796875l0 -0.8125l0.15625 0q0.546875 0 0.890625 -0.09375q0.359375 -0.109375 0.359375 -0.421875l0 -7.765625q0 -0.3125 -0.359375 -0.40625q-0.34375 -0.109375 -0.890625 -0.109375l-0.15625 0l0 -0.796875l4.171875 0l0 0.796875l-0.125 0q-0.21875 0 -0.453125 0.015625q-0.21875 0 -0.40625 0.015625q-0.1875 0.015625 -0.3125 0.046875q-0.109375 0.015625 -0.109375 0.0625l0 8.53125q0 0.046875 0.109375 0.078125q0.125 0.015625 0.3125 0.03125q0.1875 0.015625 0.40625 0.015625q0.234375 0 0.453125 0l0.125 0l0 0.8125l-4.171875 0zm6.78125 0l0 -0.796875l0.125 0q0.21875 0 0.4375 -0.015625q0.234375 -0.015625 0.421875 -0.015625q0.1875 -0.015625 0.296875 -0.03125q0.125 -0.03125 0.125 -0.078125l0 -8.53125q0 -0.046875 -0.125 -0.0625q-0.109375 -0.03125 -0.296875 -0.046875q-0.1875 -0.015625 -0.421875 -0.015625q-0.21875 -0.015625 -0.4375 -0.015625l-0.125 0l0 -0.796875l4.171875 0l0 0.796875l-0.15625 0q-0.546875 0 -0.90625 0.109375q-0.34375 0.09375 -0.34375 0.40625l0 7.765625q0 0.3125 0.34375 0.421875q0.359375 0.09375 0.90625 0.09375l0.15625 0l0 0.8125l-4.171875 0z" fill-rule="nonzero"/><path fill="#000000" d="m396.8032 92.61531q0.421875 0 0.71875 -0.140625q0.3125 -0.140625 0.53125 -0.375q0.234375 -0.234375 0.390625 -0.484375l0.46875 0.375q-0.203125 0.359375 -0.515625 0.640625q-0.296875 0.265625 -0.703125 0.421875q-0.40625 0.15625 -0.921875 0.15625q-0.828125 0 -1.4375 -0.328125q-0.59375 -0.34375 -0.921875 -0.953125q-0.3125 -0.609375 -0.3125 -1.453125q0 -0.828125 0.328125 -1.4375q0.34375 -0.609375 0.953125 -0.9375q0.609375 -0.34375 1.4375 -0.34375q0.515625 0 0.90625 0.09375q0.390625 0.078125 0.65625 0.203125q0.265625 0.109375 0.375 0.1875l0 1.484375l-0.875 0l0 -1.25q0.09375 0 0.171875 0.046875q0.09375 0.03125 0.15625 0.09375q0.0625 0.046875 0.09375 0.125q0.03125 0.0625 0.03125 0.140625q-0.21875 -0.21875 -0.625 -0.375q-0.390625 -0.15625 -0.890625 -0.15625q-0.609375 0 -1.015625 0.25q-0.390625 0.25 -0.59375 0.734375q-0.1875 0.46875 -0.1875 1.140625q0 0.53125 0.109375 0.9375q0.109375 0.390625 0.328125 0.671875q0.21875 0.265625 0.546875 0.40625q0.328125 0.125 0.796875 0.125zm3.8124084 -2.078125q0 0.5625 0.125 0.96875q0.140625 0.390625 0.375 0.640625q0.25 0.234375 0.5625 0.359375q0.328125 0.109375 0.6875 0.109375q0.421875 0 0.71875 -0.140625q0.296875 -0.140625 0.515625 -0.359375q0.234375 -0.234375 0.390625 -0.484375l0.46875 0.375q-0.1875 0.34375 -0.5 0.625q-0.296875 0.265625 -0.703125 0.421875q-0.40625 0.15625 -0.90625 0.15625q-0.734375 0 -1.34375 -0.3125q-0.59375 -0.3125 -0.9375 -0.921875q-0.34375 -0.609375 -0.34375 -1.453125q0 -0.828125 0.3125 -1.453125q0.328125 -0.625 0.875 -0.96875q0.546875 -0.34375 1.265625 -0.34375q0.578125 0 1.0 0.1875q0.421875 0.1875 0.703125 0.5625q0.28125 0.359375 0.421875 0.921875q0.15625 0.5625 0.15625 1.296875l-4.046875 0l0 -0.5625l3.390625 0l-0.25 0.21875q-0.015625 -0.5625 -0.109375 -0.9375q-0.078125 -0.390625 -0.234375 -0.625q-0.15625 -0.25 -0.421875 -0.359375q-0.25 -0.109375 -0.609375 -0.109375q-0.34375 0 -0.640625 0.140625q-0.28125 0.125 -0.5 0.40625q-0.203125 0.265625 -0.3125 0.6875q-0.109375 0.40625 -0.109375 0.953125zm6.275116 -4.84375l0 6.4375q0 0.296875 0.21875 0.40625q0.21875 0.09375 0.609375 0.09375l0.03125 0l0 0.46875l-2.578125 0l0 -0.46875l0.03125 0q0.375 0 0.59375 -0.09375q0.234375 -0.109375 0.234375 -0.40625l0 -5.46875q0 -0.140625 -0.09375 -0.21875q-0.078125 -0.078125 -0.25 -0.125q-0.15625 -0.046875 -0.421875 -0.09375l-0.09375 -0.015625l0 -0.515625l1.71875 0zm3.2616577 0l0 6.4375q0 0.296875 0.21875 0.40625q0.21875 0.09375 0.609375 0.09375l0.03125 0l0 0.46875l-2.578125 0l0 -0.46875l0.03125 0q0.375 0 0.59375 -0.09375q0.234375 -0.109375 0.234375 -0.40625l0 -5.46875q0 -0.140625 -0.09375 -0.21875q-0.078125 -0.078125 -0.25 -0.125q-0.15625 -0.046875 -0.421875 -0.09375l-0.09375 -0.015625l0 -0.515625l1.71875 0z" fill-rule="nonzero"/><path fill="#000000" d="m418.53903 80.724686l0 0.984375l-6.359375 0l0 -0.984375l6.359375 0zm0 2.96875l0 0.984375l-6.359375 0l0 -0.984375l6.359375 0zm5.5512695 2.84375l-3.484375 0q-0.0625 0.046875 -0.0625 0.125q0 0.078125 0.03125 0.140625q0.03125 0.0625 0.09375 0.0625q0.828125 -0.5625 1.65625 -1.140625q0.84375 -0.59375 1.59375 -1.1875q0.765625 -0.59375 1.34375 -1.21875q0.578125 -0.625 0.921875 -1.28125q0.34375 -0.65625 0.34375 -1.34375q0 -0.890625 -0.375 -1.46875q-0.359375 -0.578125 -1.046875 -0.875q-0.6875 -0.296875 -1.6875 -0.296875q-0.71875 0 -1.328125 0.21875q-0.609375 0.203125 -1.046875 0.5q-0.4375 0.28125 -0.65625 0.5625l0 1.75l1.328125 0l0 -1.859375q-0.078125 -0.03125 -0.1875 0.015625q-0.09375 0.046875 -0.203125 0.171875q-0.09375 0.109375 -0.171875 0.265625q-0.078125 0.15625 -0.09375 0.328125q0.234375 -0.3125 0.5625 -0.546875q0.34375 -0.25 0.796875 -0.390625q0.453125 -0.140625 0.953125 -0.140625q0.5625 0 0.953125 0.15625q0.40625 0.15625 0.609375 0.53125q0.21875 0.375 0.21875 1.046875q0 0.640625 -0.25 1.203125q-0.234375 0.546875 -0.6875 1.0625q-0.4375 0.515625 -1.0625 1.03125q-0.609375 0.5 -1.359375 1.0625q-0.75 0.546875 -1.59375 1.1875l0 1.390625l6.65625 0l0 -2.96875l-0.890625 0l-0.140625 1.3125q-0.03125 0.25 -0.203125 0.390625q-0.171875 0.125 -0.546875 0.171875q-0.375 0.03125 -0.984375 0.03125zm7.45755 2.140625q1.09375 0 1.90625 -0.421875q0.828125 -0.421875 1.28125 -1.21875q0.46875 -0.8125 0.46875 -1.953125q0 -0.96875 -0.375 -1.703125q-0.359375 -0.734375 -1.0625 -1.15625q-0.703125 -0.421875 -1.671875 -0.421875q-0.5625 0 -1.03125 0.171875q-0.46875 0.15625 -0.84375 0.5q-0.375 0.34375 -0.640625 0.84375q0.015625 0.125 0.078125 0.140625q0.078125 0 0.15625 -0.046875q0.078125 -0.0625 0.09375 -0.125l0 -4.75l-0.390625 0.84375l4.703125 0l0.375 -1.125l-5.625 0l0 5.5625l0.828125 0q0.265625 -0.40625 0.5625 -0.65625q0.3125 -0.25 0.671875 -0.359375q0.375 -0.125 0.828125 -0.125q0.578125 0 1.015625 0.25q0.453125 0.25 0.703125 0.78125q0.25 0.515625 0.25 1.375q0 0.9375 -0.28125 1.546875q-0.28125 0.59375 -0.796875 0.890625q-0.5 0.28125 -1.1875 0.28125q-0.828125 0 -1.34375 -0.28125q-0.515625 -0.28125 -0.828125 -0.703125q-0.296875 -0.421875 -0.5 -0.84375l-0.8125 0.5625q0.28125 0.59375 0.71875 1.078125q0.4375 0.5 1.109375 0.78125q0.671875 0.28125 1.640625 0.28125zm11.066895 -11.0625l-0.140625 -0.859375q-1.40625 0.171875 -2.515625 0.703125q-1.09375 0.515625 -1.859375 1.34375q-0.765625 0.828125 -1.171875 1.953125q-0.40625 1.109375 -0.40625 2.515625q0 1.546875 0.453125 2.53125q0.46875 0.984375 1.28125 1.46875q0.828125 0.46875 1.90625 0.46875q1.03125 0 1.78125 -0.46875q0.75 -0.46875 1.171875 -1.28125q0.421875 -0.8125 0.421875 -1.828125q0 -1.03125 -0.375 -1.765625q-0.359375 -0.75 -1.03125 -1.140625q-0.671875 -0.40625 -1.5625 -0.40625q-0.5625 0 -1.03125 0.1875q-0.46875 0.1875 -0.84375 0.53125q-0.375 0.328125 -0.671875 0.765625q-0.296875 0.4375 -0.5 0.953125l0.125 0.71875q0.25 -0.546875 0.53125 -0.96875q0.296875 -0.4375 0.609375 -0.71875q0.328125 -0.28125 0.703125 -0.4375q0.390625 -0.15625 0.875 -0.15625q0.640625 0 1.03125 0.3125q0.390625 0.296875 0.5625 0.84375q0.171875 0.546875 0.171875 1.28125q0 0.796875 -0.234375 1.40625q-0.21875 0.609375 -0.65625 0.953125q-0.421875 0.34375 -1.078125 0.34375q-0.53125 0 -0.953125 -0.1875q-0.421875 -0.1875 -0.71875 -0.609375q-0.296875 -0.421875 -0.453125 -1.109375q-0.140625 -0.6875 -0.140625 -1.6875q0 -1.3125 0.3125 -2.296875q0.3125 -1.0 0.921875 -1.6875q0.609375 -0.6875 1.484375 -1.09375q0.875 -0.40625 2.0 -0.578125z" fill-rule="nonzero"/><path fill="#ffffff" d="m284.3517 139.41733l189.66928 0l0 41.984253l-189.66928 0z" fill-rule="evenodd"/><path stroke="#000000" stroke-width="1.0" stroke-linejoin="round" stroke-linecap="butt" d="m284.3517 139.41733l189.66928 0l0 41.984253l-189.66928 0z" fill-rule="evenodd"/><path fill="#000000" d="m299.63788 167.32945l0 -1.03125l0.21875 0q0.453125 0 0.8125 -0.046875q0.359375 -0.0625 0.5625 -0.203125q0.203125 -0.15625 0.203125 -0.421875l0 -9.859375q0 -0.28125 -0.203125 -0.421875q-0.203125 -0.140625 -0.5625 -0.1875q-0.359375 -0.0625 -0.8125 -0.0625l-0.21875 0l0 -1.015625l4.578125 0l3.71875 11.53125l-0.296875 0.046875l3.796875 -11.578125l4.453125 0l0 1.015625l-0.203125 0q-0.6875 0 -1.140625 0.125q-0.4375 0.125 -0.4375 0.546875l0 9.859375q0 0.421875 0.4375 0.546875q0.453125 0.125 1.140625 0.125l0.203125 0l0 1.03125l-5.109375 0l0 -1.03125l0.171875 0q0.3125 0 0.640625 -0.015625q0.328125 -0.015625 0.5625 -0.046875q0.234375 -0.046875 0.234375 -0.09375l0 -11.6875l0.1875 -0.078125l-4.453125 12.984375l-1.15625 0l-4.46875 -12.984375l0.1875 0.046875l0 11.71875q0 0.046875 0.25 0.09375q0.25 0.03125 0.59375 0.046875q0.359375 0.015625 0.59375 0.015625l0.078125 0l0 1.03125l-4.5625 0zm24.67154 -6.09375l0 0.984375q-1.140625 0.140625 -1.96875 0.328125q-0.8125 0.1875 -1.359375 0.421875q-0.53125 0.21875 -0.859375 0.5q-0.3125 0.28125 -0.453125 0.640625q-0.125 0.34375 -0.125 0.75q0 0.53125 0.21875 0.890625q0.21875 0.34375 0.609375 0.53125q0.390625 0.171875 0.921875 0.171875q0.59375 0 1.09375 -0.28125q0.5 -0.28125 0.96875 -0.84375q0.46875 -0.5625 0.921875 -1.390625l0.015625 1.09375q-0.375 0.765625 -0.875 1.328125q-0.484375 0.5625 -1.109375 0.875q-0.625 0.296875 -1.421875 0.296875q-0.890625 0 -1.578125 -0.296875q-0.6875 -0.3125 -1.078125 -0.90625q-0.390625 -0.609375 -0.390625 -1.4375q0 -0.796875 0.34375 -1.375q0.359375 -0.578125 1.125 -1.0q0.78125 -0.4375 2.015625 -0.75q1.234375 -0.3125 2.984375 -0.53125zm-0.03125 6.09375l-0.234375 -2.171875l-0.09375 -0.109375l0 -4.859375q0 -0.71875 -0.1875 -1.140625q-0.1875 -0.4375 -0.625 -0.609375q-0.4375 -0.1875 -1.171875 -0.1875q-1.125 0 -1.84375 0.3125q-0.703125 0.3125 -1.0625 0.671875q0 -0.15625 0.078125 -0.3125q0.078125 -0.15625 0.203125 -0.296875q0.140625 -0.140625 0.3125 -0.234375q0.171875 -0.09375 0.40625 -0.125l0 2.15625l-1.640625 0l0 -2.265625q0.25 -0.21875 0.75 -0.4375q0.5 -0.234375 1.21875 -0.40625q0.734375 -0.1875 1.640625 -0.1875q0.75 0 1.40625 0.15625q0.65625 0.140625 1.140625 0.484375q0.484375 0.328125 0.765625 0.875q0.28125 0.53125 0.28125 1.3125l0 5.640625q0 0.265625 0.171875 0.421875q0.1875 0.140625 0.515625 0.203125q0.34375 0.0625 0.828125 0.125l0.09375 0.015625l0 0.96875l-2.953125 0zm14.916138 0l-4.640625 0l0 -0.984375l0.03125 0q0.375 0 0.734375 0q0.375 -0.015625 0.609375 -0.046875q0.234375 -0.046875 0.234375 -0.109375l-2.96875 -3.5l-0.109375 -0.046875l-3.15625 -3.78125q-0.171875 -0.203125 -0.359375 -0.328125q-0.1875 -0.125 -0.4375 -0.171875q-0.234375 -0.0625 -0.609375 -0.0625l-0.046875 0l0 -0.984375l4.5625 0l0 0.984375l-0.03125 0q-0.359375 0 -0.71875 0.015625q-0.34375 0 -0.578125 0.03125q-0.234375 0.03125 -0.234375 0.078125l2.796875 3.390625l0.125 0.046875l3.25 3.859375q0.203125 0.203125 0.390625 0.34375q0.1875 0.140625 0.4375 0.21875q0.25 0.0625 0.671875 0.0625l0.046875 0l0 0.984375zm-10.96875 0l0 -0.984375l0.0625 0q0.5 0 0.84375 -0.171875q0.34375 -0.171875 0.6875 -0.578125l3.0 -3.546875l0.859375 0.640625l-2.734375 3.234375q0 0.125 0.234375 0.21875q0.234375 0.09375 0.59375 0.15625q0.359375 0.046875 0.734375 0.046875l0.046875 0l0 0.984375l-4.328125 0zm6.25 -4.9375l-0.8125 -0.703125l2.609375 -3.0q0 -0.109375 -0.234375 -0.203125q-0.21875 -0.09375 -0.5625 -0.140625q-0.34375 -0.046875 -0.71875 -0.046875l-0.078125 0l0 -0.984375l4.25 0l0 0.984375l-0.046875 0q-0.296875 0 -0.546875 0.0625q-0.234375 0.046875 -0.46875 0.21875q-0.21875 0.15625 -0.453125 0.421875l-2.9375 3.390625zm13.710419 -0.609375l5.34375 0l0.1875 1.09375l-5.765625 0l0.234375 -1.09375zm2.453125 -7.0625l0.296875 0.359375l-3.625 10.84375q0 0.09375 0.21875 0.1875q0.234375 0.09375 0.59375 0.140625q0.375 0.046875 0.8125 0.046875l0.234375 0l0 1.03125l-4.484375 0l0 -1.03125l0.109375 0q0.546875 0 0.890625 -0.171875q0.34375 -0.171875 0.5625 -0.8125l3.8125 -11.34375l1.984375 0l3.921875 11.46875q0.203125 0.5625 0.546875 0.71875q0.34375 0.140625 0.875 0.140625l0.09375 0l0 1.03125l-4.921875 0l0 -1.03125l0.25 0q0.4375 0 0.8125 -0.015625q0.375 -0.015625 0.59375 -0.0625q0.234375 -0.046875 0.234375 -0.109375l-3.8125 -11.390625zm11.453857 -1.53125l0 12.296875q0 0.578125 0.421875 0.765625q0.4375 0.1875 1.15625 0.1875l0.0625 0l0 0.890625l-4.921875 0l0 -0.890625l0.0625 0q0.734375 0 1.15625 -0.1875q0.421875 -0.1875 0.421875 -0.765625l0 -10.453125q0 -0.28125 -0.171875 -0.421875q-0.15625 -0.140625 -0.46875 -0.234375q-0.3125 -0.09375 -0.828125 -0.1875l-0.171875 -0.03125l0 -0.96875l3.28125 0zm13.074951 9.140625q0 1.578125 -0.625 2.765625q-0.625 1.171875 -1.765625 1.8125q-1.125 0.625 -2.625 0.625q-1.53125 0 -2.671875 -0.625q-1.125 -0.640625 -1.75 -1.8125q-0.625 -1.1875 -0.625 -2.765625q0 -1.1875 0.359375 -2.140625q0.359375 -0.96875 1.03125 -1.65625q0.671875 -0.6875 1.59375 -1.046875q0.921875 -0.359375 2.0625 -0.359375q1.140625 0 2.046875 0.359375q0.921875 0.359375 1.59375 1.046875q0.671875 0.6875 1.015625 1.65625q0.359375 0.953125 0.359375 2.140625zm-8.296875 0q0 1.34375 0.359375 2.265625q0.375 0.90625 1.09375 1.359375q0.734375 0.453125 1.828125 0.453125q1.078125 0 1.796875 -0.453125q0.734375 -0.453125 1.09375 -1.359375q0.375 -0.921875 0.375 -2.265625q0 -1.3125 -0.375 -2.203125q-0.359375 -0.90625 -1.09375 -1.375q-0.71875 -0.484375 -1.796875 -0.484375q-1.09375 0 -1.828125 0.484375q-0.71875 0.46875 -1.09375 1.375q-0.359375 0.890625 -0.359375 2.203125zm9.97171 5.0l0 -0.890625l0.0625 0q0.484375 0 0.828125 -0.078125q0.359375 -0.09375 0.546875 -0.328125q0.1875 -0.234375 0.1875 -0.640625l0 -6.234375q0 -0.28125 -0.15625 -0.421875q-0.15625 -0.140625 -0.484375 -0.234375q-0.3125 -0.09375 -0.796875 -0.1875l-0.1875 -0.03125l0 -0.96875l2.984375 0l0.234375 2.125l0.0625 0.09375l0 6.71875q0 0.046875 0.21875 0.09375q0.234375 0.046875 0.546875 0.078125q0.328125 0.015625 0.578125 0.015625l0.078125 0l0 0.890625l-4.703125 0zm11.3125 0l-4.703125 0l0 -0.890625l0.046875 0q0.265625 0 0.578125 -0.015625q0.328125 -0.03125 0.5625 -0.078125q0.234375 -0.046875 0.234375 -0.09375l0 -6.109375q0 -0.609375 -0.171875 -1.0q-0.15625 -0.390625 -0.515625 -0.578125q-0.34375 -0.203125 -0.9375 -0.203125q-0.625 0 -1.21875 0.25q-0.578125 0.234375 -1.125 0.71875q-0.546875 0.484375 -1.109375 1.25l0 -1.015625q0.53125 -0.796875 1.125 -1.328125q0.609375 -0.546875 1.28125 -0.828125q0.6875 -0.28125 1.46875 -0.28125q0.921875 0 1.546875 0.3125q0.625 0.296875 0.96875 0.921875q0.34375 0.625 0.34375 1.578125l0 5.453125q0 0.40625 0.1875 0.640625q0.1875 0.234375 0.53125 0.328125q0.359375 0.078125 0.84375 0.078125l0.0625 0l0 0.890625zm12.046112 -8.90625q-0.859375 -0.03125 -1.46875 -0.015625q-0.59375 0.015625 -1.015625 0.109375q-0.421875 0.09375 -0.703125 0.328125l-0.28125 -0.078125q0.25 -0.59375 0.578125 -1.015625q0.34375 -0.4375 0.75 -0.703125q0.421875 -0.265625 0.953125 -0.359375q0.53125 -0.09375 1.1875 -0.03125l0 1.765625zm-5.984375 5.859375q-1.15625 0 -2.046875 -0.4375q-0.890625 -0.4375 -1.390625 -1.234375q-0.484375 -0.796875 -0.484375 -1.890625q0 -1.0625 0.5 -1.875q0.515625 -0.8125 1.390625 -1.265625q0.890625 -0.453125 2.03125 -0.453125q1.15625 0 2.046875 0.453125q0.890625 0.453125 1.390625 1.265625q0.515625 0.8125 0.515625 1.875q0 1.09375 -0.515625 1.890625q-0.5 0.796875 -1.390625 1.234375q-0.875 0.4375 -2.046875 0.4375zm0 -1.09375q0.75 0 1.25 -0.28125q0.515625 -0.28125 0.78125 -0.828125q0.265625 -0.546875 0.265625 -1.359375q0 -0.796875 -0.265625 -1.359375q-0.265625 -0.5625 -0.78125 -0.84375q-0.5 -0.296875 -1.25 -0.296875q-0.734375 0 -1.234375 0.296875q-0.5 0.28125 -0.765625 0.84375q-0.265625 0.5625 -0.265625 1.359375q0 0.8125 0.265625 1.359375q0.265625 0.546875 0.765625 0.828125q0.5 0.28125 1.234375 0.28125zm-0.828125 8.6875q-1.203125 0 -2.15625 -0.234375q-0.9375 -0.234375 -1.484375 -0.75q-0.53125 -0.5 -0.53125 -1.34375q0 -0.546875 0.234375 -0.953125q0.25 -0.40625 0.75 -0.765625q0.5 -0.34375 1.265625 -0.75l0.5625 0.359375q-0.484375 0.34375 -0.78125 0.640625q-0.28125 0.3125 -0.40625 0.609375q-0.109375 0.296875 -0.109375 0.65625q0 0.453125 0.265625 0.75q0.265625 0.3125 0.859375 0.484375q0.609375 0.1875 1.59375 0.1875l1.578125 0q1.0 0 1.6875 -0.234375q0.6875 -0.234375 1.0625 -0.671875q0.375 -0.421875 0.375 -1.015625q0 -0.5625 -0.375 -0.84375q-0.375 -0.265625 -1.328125 -0.265625l-4.265625 0l-0.046875 0q-0.78125 -0.15625 -1.296875 -0.40625q-0.515625 -0.265625 -0.75 -0.625q-0.21875 -0.375 -0.21875 -0.84375q0 -0.515625 0.25 -0.921875q0.25 -0.421875 0.71875 -0.796875q0.484375 -0.390625 1.15625 -0.734375l0.5625 0.390625q-0.40625 0.28125 -0.65625 0.53125q-0.25 0.25 -0.375 0.484375q-0.125 0.234375 -0.125 0.515625q0 0.4375 0.359375 0.640625q0.359375 0.1875 1.0625 0.1875l3.640625 0q1.046875 0 1.75 0.265625q0.71875 0.25 1.09375 0.78125q0.390625 0.53125 0.390625 1.375q0 1.125 -0.640625 1.859375q-0.625 0.734375 -1.6875 1.078125q-1.0625 0.359375 -2.34375 0.359375l-1.640625 0zm12.910034 -16.78125l0 -1.015625l5.734375 0q1.640625 0 2.9375 0.4375q1.3125 0.421875 2.234375 1.25q0.921875 0.828125 1.421875 2.0625q0.5 1.234375 0.5 2.828125q0 1.5625 -0.5 2.8125q-0.5 1.234375 -1.421875 2.109375q-0.921875 0.859375 -2.234375 1.3125q-1.296875 0.4375 -2.9375 0.4375l-5.734375 0l0 -1.03125l0.203125 0q0.703125 0 1.140625 -0.125q0.453125 -0.125 0.453125 -0.546875l0 -9.859375q0 -0.390625 -0.453125 -0.53125q-0.4375 -0.140625 -1.140625 -0.140625l-0.203125 0zm5.734375 0.109375l-2.203125 0l0 10.984375l2.203125 0q1.265625 0 2.234375 -0.34375q0.96875 -0.34375 1.625 -1.046875q0.671875 -0.703125 1.015625 -1.734375q0.34375 -1.046875 0.34375 -2.40625q0 -1.390625 -0.34375 -2.40625q-0.34375 -1.03125 -1.015625 -1.703125q-0.65625 -0.671875 -1.625 -1.0q-0.96875 -0.34375 -2.234375 -0.34375zm11.203705 0.046875q-0.53125 0 -0.875 -0.296875q-0.328125 -0.296875 -0.328125 -0.890625q0 -0.578125 0.328125 -0.875q0.34375 -0.296875 0.875 -0.296875q0.53125 0 0.875 0.296875q0.34375 0.296875 0.34375 0.875q0 0.59375 -0.34375 0.890625q-0.34375 0.296875 -0.875 0.296875zm0.953125 2.0625l0 8.171875q0 0.578125 0.421875 0.765625q0.4375 0.1875 1.171875 0.1875l0.046875 0l0 0.890625l-4.921875 0l0 -0.890625l0.0625 0q0.71875 0 1.140625 -0.1875q0.4375 -0.1875 0.4375 -0.765625l0 -6.328125q0 -0.40625 -0.359375 -0.546875q-0.34375 -0.140625 -1.09375 -0.296875l-0.1875 -0.03125l0 -0.96875l3.28125 0zm2.9685974 10.015625l0 -0.890625l0.0625 0q0.71875 0 1.140625 -0.203125q0.421875 -0.21875 0.421875 -0.84375l0 -6.234375q0 -0.28125 -0.15625 -0.421875q-0.15625 -0.140625 -0.484375 -0.234375q-0.3125 -0.09375 -0.796875 -0.1875l-0.1875 -0.03125l0 -0.96875l2.96875 0l0.21875 2.109375l0.09375 0.109375l0 6.71875q0 0.046875 0.21875 0.09375q0.234375 0.046875 0.53125 0.078125q0.3125 0.015625 0.5625 0.015625l0.078125 0l0 0.890625l-4.671875 0zm10.59375 0l-4.421875 0l0 -0.890625l0.0625 0q0.265625 0 0.5625 -0.015625q0.3125 -0.03125 0.53125 -0.078125q0.234375 -0.046875 0.234375 -0.09375l0 -6.109375q0 -0.59375 -0.140625 -0.984375q-0.125 -0.40625 -0.421875 -0.59375q-0.296875 -0.203125 -0.84375 -0.203125q-0.578125 0 -1.109375 0.25q-0.515625 0.234375 -1.046875 0.71875q-0.515625 0.46875 -1.0625 1.171875l0.015625 -1.078125q0.53125 -0.734375 1.078125 -1.234375q0.5625 -0.515625 1.1875 -0.78125q0.640625 -0.28125 1.390625 -0.28125q0.8125 0 1.40625 0.3125q0.59375 0.296875 0.890625 0.921875q0.3125 0.625 0.3125 1.578125l0 6.3125q0 0.046875 0.203125 0.09375q0.21875 0.046875 0.53125 0.078125q0.328125 0.015625 0.59375 0.015625l0.046875 0l0 0.890625zm6.203125 0l-4.6875 0l0 -0.890625l0.078125 0q0.265625 0 0.5625 -0.015625q0.296875 -0.03125 0.5 -0.078125q0.21875 -0.046875 0.21875 -0.09375l0 -6.109375q0 -0.59375 -0.125 -0.984375q-0.125 -0.40625 -0.4375 -0.59375q-0.296875 -0.203125 -0.8125 -0.203125q-0.578125 0 -1.109375 0.25q-0.53125 0.234375 -1.046875 0.71875q-0.515625 0.46875 -1.078125 1.171875l0 -1.078125q0.5625 -0.734375 1.109375 -1.234375q0.5625 -0.515625 1.1875 -0.78125q0.625 -0.28125 1.359375 -0.28125q0.84375 0 1.421875 0.3125q0.578125 0.296875 0.875 0.921875q0.3125 0.625 0.3125 1.578125l0 5.453125q0 0.625 0.421875 0.84375q0.4375 0.203125 1.171875 0.203125l0.078125 0l0 0.890625zm11.878632 -1.640625q0 0.265625 0.265625 0.421875q0.265625 0.140625 0.75 0.203125q0.484375 0.046875 1.125 0.046875l0.765625 0l0 0.96875l-7.609375 0l0 -0.96875l1.03125 0q0.609375 0 1.046875 -0.046875q0.4375 -0.0625 0.671875 -0.203125q0.234375 -0.15625 0.234375 -0.421875l0 -8.953125l0.296875 -0.234375q-0.125 0.4375 -0.453125 0.765625q-0.328125 0.3125 -0.828125 0.53125q-0.484375 0.21875 -1.078125 0.328125q-0.59375 0.09375 -1.25 0.09375l0 -1.203125q0.703125 -0.015625 1.3125 -0.109375q0.609375 -0.09375 1.09375 -0.28125q0.484375 -0.1875 0.859375 -0.484375q0.375 -0.3125 0.609375 -0.71875l1.15625 0l0 10.265625z" fill-rule="nonzero"/><path fill="#000000" fill-opacity="0.0" d="m0 64.74016l69.6063 0l0 35.55905l-69.6063 0z" fill-rule="evenodd"/><path fill="#000000" d="m12.84375 83.3839q0 -0.734375 0.1875 -1.546875q0.1875 -0.828125 0.71875 -1.890625q0.546875 -1.078125 0.796875 -1.296875q0.078125 -0.078125 0.171875 -0.078125q0.109375 0 0.1875 0.078125q0.078125 0.078125 0.078125 0.1875q0 0.0625 -0.046875 0.140625q-0.6875 1.28125 -1.0 2.328125q-0.296875 1.03125 -0.296875 2.078125q0 1.046875 0.296875 2.09375q0.3125 1.03125 1.0 2.3125q0.046875 0.078125 0.046875 0.140625q0 0.09375 -0.078125 0.171875q-0.078125 0.09375 -0.1875 0.09375q-0.09375 0 -0.171875 -0.078125q-0.234375 -0.21875 -0.765625 -1.265625q-0.53125 -1.046875 -0.734375 -1.84375q-0.203125 -0.8125 -0.203125 -1.625zm10.473145 3.15625l-0.6875 0l-3.9375 -6.640625l0 6.109375l0.984375 0q0.203125 0 0.28125 0.078125q0.09375 0.0625 0.09375 0.1875q0 0.109375 -0.09375 0.1875q-0.078125 0.078125 -0.28125 0.078125l-1.953125 0q-0.203125 0 -0.28125 -0.078125q-0.078125 -0.078125 -0.078125 -0.1875q0 -0.125 0.078125 -0.1875q0.078125 -0.078125 0.28125 -0.078125l0.4375 0l0 -6.359375l-0.71875 0q-0.1875 0 -0.265625 -0.078125q-0.078125 -0.078125 -0.078125 -0.1875q0 -0.125 0.078125 -0.1875q0.078125 -0.078125 0.265625 -0.078125l1.40625 0l3.9375 6.65625l0 -6.125l-0.984375 0q-0.1875 0 -0.28125 -0.078125q-0.078125 -0.078125 -0.078125 -0.1875q0 -0.125 0.078125 -0.1875q0.078125 -0.078125 0.28125 -0.078125l1.96875 0q0.1875 0 0.265625 0.078125q0.078125 0.0625 0.078125 0.1875q0 0.109375 -0.078125 0.1875q-0.078125 0.078125 -0.265625 0.078125l-0.453125 0l0 6.890625zm4.1293945 -1.921875l1.734375 0l-1.890625 3.515625q-0.171875 0.3125 -0.40625 0.3125q-0.15625 0 -0.28125 -0.109375q-0.109375 -0.109375 -0.109375 -0.265625q0 -0.078125 0.03125 -0.140625l0.921875 -3.3125zm9.95752 -2.203125q0.65625 0.3125 1.0 0.84375q0.34375 0.53125 0.34375 1.140625q0 0.953125 -0.71875 1.640625q-0.703125 0.6875 -1.71875 0.6875q-1.015625 0 -1.734375 -0.6875q-0.703125 -0.6875 -0.703125 -1.640625q0 -0.609375 0.328125 -1.125q0.34375 -0.53125 1.015625 -0.859375q-0.578125 -0.34375 -0.84375 -0.703125q-0.375 -0.515625 -0.375 -1.140625q0 -0.875 0.671875 -1.53125q0.6875 -0.65625 1.640625 -0.65625q0.953125 0 1.625 0.65625q0.671875 0.65625 0.671875 1.53125q0 0.625 -0.359375 1.125q-0.265625 0.375 -0.84375 0.71875zm0.65625 -1.828125q0 -0.6875 -0.515625 -1.171875q-0.5 -0.5 -1.25 -0.5q-0.734375 0 -1.25 0.5q-0.5 0.5 -0.5 1.171875q0 0.625 0.5 1.09375q0.515625 0.453125 1.25 0.453125q0.765625 0 1.265625 -0.453125q0.5 -0.46875 0.5 -1.09375zm0.15625 3.828125q0 -0.703125 -0.546875 -1.21875q-0.546875 -0.53125 -1.359375 -0.53125q-0.8125 0 -1.359375 0.53125q-0.546875 0.515625 -0.546875 1.203125q0 0.734375 0.546875 1.265625q0.546875 0.53125 1.359375 0.53125q0.796875 0 1.34375 -0.53125q0.5625 -0.53125 0.5625 -1.25zm3.5981445 1.59375l4.09375 0l0 -0.21875q0 -0.1875 0.078125 -0.265625q0.078125 -0.078125 0.1875 -0.078125q0.125 0 0.1875 0.078125q0.078125 0.078125 0.078125 0.265625l0 0.75l-5.15625 0l0 -0.78125q1.625 -1.46875 3.171875 -2.984375q0.71875 -0.703125 0.984375 -1.03125q0.265625 -0.328125 0.359375 -0.578125q0.09375 -0.25 0.09375 -0.5q0 -0.6875 -0.546875 -1.21875q-0.546875 -0.53125 -1.328125 -0.53125q-0.703125 0 -1.25 0.40625q-0.53125 0.40625 -0.6875 0.984375q-0.046875 0.15625 -0.09375 0.203125q-0.078125 0.0625 -0.1875 0.0625q-0.109375 0 -0.1875 -0.0625q-0.0625 -0.078125 -0.0625 -0.1875q0 -0.296875 0.328125 -0.8125q0.34375 -0.53125 0.921875 -0.828125q0.59375 -0.296875 1.203125 -0.296875q1.0 0 1.71875 0.703125q0.71875 0.6875 0.71875 1.5625q0 0.359375 -0.125 0.671875q-0.109375 0.3125 -0.40625 0.671875q-0.28125 0.359375 -1.03125 1.09375q-1.890625 1.859375 -3.0625 2.875l0 0.046875zm10.254395 -2.625q0 0.734375 -0.203125 1.546875q-0.1875 0.8125 -0.734375 1.890625q-0.53125 1.078125 -0.78125 1.296875q-0.078125 0.078125 -0.15625 0.078125q-0.125 0 -0.203125 -0.09375q-0.078125 -0.078125 -0.078125 -0.171875q0 -0.0625 0.046875 -0.140625q0.703125 -1.28125 1.0 -2.3125q0.296875 -1.046875 0.296875 -2.09375q0 -1.046875 -0.296875 -2.078125q-0.296875 -1.046875 -1.0 -2.328125q-0.046875 -0.078125 -0.046875 -0.140625q0 -0.109375 0.078125 -0.1875q0.078125 -0.078125 0.203125 -0.078125q0.078125 0 0.15625 0.078125q0.234375 0.203125 0.765625 1.25q0.546875 1.046875 0.75 1.859375q0.203125 0.8125 0.203125 1.625z" fill-rule="nonzero"/><path fill="#000000" fill-opacity="0.0" d="m262.67847 82.519684l39.93701 0" fill-rule="evenodd"/><path stroke="#000000" stroke-width="1.0" stroke-linejoin="round" stroke-linecap="butt" d="m262.67847 82.519684l36.50995 0" fill-rule="evenodd"/><path fill="#000000" stroke="#000000" stroke-width="1.0" stroke-linecap="butt" d="m299.1884 82.519684l-1.1245728 1.124588l3.0897827 -1.124588l-3.0897827 -1.1245804z" fill-rule="evenodd"/><path fill="#000000" fill-opacity="0.0" d="m455.75198 82.519684l24.999847 0l0 -45.992176l-101.5668 0l0 25.0158" fill-rule="evenodd"/><path stroke="#000000" stroke-width="1.0" stroke-linejoin="round" stroke-linecap="butt" d="m455.75198 82.519684l24.999847 0l0 -45.992176l-101.5668 0l0 21.58871" fill-rule="evenodd"/><path fill="#000000" stroke="#000000" stroke-width="1.0" stroke-linecap="butt" d="m379.18503 58.116222l-1.1245728 -1.1245842l1.1245728 3.0897675l1.1246033 -3.0897675z" fill-rule="evenodd"/><path fill="#000000" fill-opacity="0.0" d="m480.75067 36.527557l69.60626 0l0 35.55906l-69.60626 0z" fill-rule="evenodd"/><path fill="#000000" d="m494.0163 55.452557l2.4375 2.34375q0.25 0 0.3125 0.03125q0.0625 0.015625 0.109375 0.09375q0.046875 0.0625 0.046875 0.140625q0 0.109375 -0.078125 0.1875q-0.078125 0.078125 -0.28125 0.078125l-1.71875 0q-0.1875 0 -0.28125 -0.078125q-0.078125 -0.078125 -0.078125 -0.1875q0 -0.125 0.078125 -0.1875q0.09375 -0.078125 0.28125 -0.078125l0.890625 0l-2.078125 -1.984375l-2.0625 1.984375l0.890625 0q0.1875 0 0.265625 0.078125q0.078125 0.0625 0.078125 0.1875q0 0.109375 -0.078125 0.1875q-0.078125 0.078125 -0.265625 0.078125l-1.734375 0q-0.1875 0 -0.28125 -0.078125q-0.078125 -0.078125 -0.078125 -0.1875q0 -0.078125 0.046875 -0.140625q0.046875 -0.078125 0.109375 -0.09375q0.0625 -0.03125 0.296875 -0.03125l2.453125 -2.34375l-2.171875 -2.078125q-0.234375 0 -0.296875 -0.03125q-0.0625 -0.03125 -0.109375 -0.09375q-0.046875 -0.0625 -0.046875 -0.15625q0 -0.109375 0.078125 -0.1875q0.09375 -0.078125 0.28125 -0.078125l1.46875 0q0.1875 0 0.265625 0.078125q0.078125 0.078125 0.078125 0.203125q0 0.109375 -0.078125 0.1875q-0.078125 0.078125 -0.265625 0.078125l-0.640625 0l1.796875 1.734375l1.8125 -1.734375l-0.640625 0q-0.1875 0 -0.28125 -0.078125q-0.078125 -0.078125 -0.078125 -0.203125q0 -0.109375 0.078125 -0.1875q0.078125 -0.078125 0.28125 -0.078125l1.453125 0q0.1875 0 0.265625 0.078125q0.09375 0.078125 0.09375 0.203125q0 0.078125 -0.046875 0.140625q-0.046875 0.0625 -0.109375 0.09375q-0.0625 0.03125 -0.296875 0.03125l-2.171875 2.078125zm5.8481445 -0.5q0.5 -0.71875 1.015625 -1.0625q0.53125 -0.359375 1.171875 -0.359375q0.84375 0 1.5 0.703125q0.671875 0.703125 0.671875 1.75q0 0.953125 -0.609375 1.75q-0.609375 0.78125 -1.65625 0.78125q-0.703125 0 -1.3125 -0.421875q-0.59375 -0.421875 -0.921875 -1.3125q-0.4375 -1.09375 -0.4375 -2.421875q0 -1.015625 0.40625 -1.875q0.296875 -0.65625 0.796875 -1.15625q0.515625 -0.515625 1.1875 -0.828125q0.6875 -0.328125 1.46875 -0.328125q0.53125 0 0.890625 0.21875q0.15625 0.09375 0.15625 0.25q0 0.109375 -0.078125 0.1875q-0.0625 0.078125 -0.171875 0.078125q-0.078125 0 -0.1875 -0.0625q-0.265625 -0.140625 -0.65625 -0.140625q-1.234375 0 -2.265625 1.078125q-1.015625 1.0625 -1.015625 2.515625q0 0.21875 0.046875 0.65625zm0.125 0.890625q0.234375 1.15625 0.75 1.65625q0.515625 0.484375 1.21875 0.484375q0.71875 0 1.21875 -0.546875q0.5 -0.5625 0.5 -1.453125q0 -0.828125 -0.515625 -1.375q-0.5 -0.546875 -1.140625 -0.546875q-0.609375 0 -1.1875 0.53125q-0.375 0.34375 -0.84375 1.25z" fill-rule="nonzero"/><path fill="#000000" fill-opacity="0.0" d="m379.18503 103.51181l0 35.905518" fill-rule="evenodd"/><path stroke="#000000" stroke-width="1.0" stroke-linejoin="round" stroke-linecap="butt" d="m379.18503 103.51181l0 32.478424" fill-rule="evenodd"/><path fill="#000000" stroke="#000000" stroke-width="1.0" stroke-linecap="butt" d="m379.18503 135.99023l-1.1245728 -1.124588l1.1245728 3.0897675l1.1246033 -3.0897675z" fill-rule="evenodd"/><path fill="#000000" fill-opacity="0.0" d="m474.01312 160.40945l189.19684 0" fill-rule="evenodd"/><path stroke="#000000" stroke-width="1.0" stroke-linejoin="round" stroke-linecap="butt" d="m474.01312 160.40945l185.76978 0" fill-rule="evenodd"/><path fill="#000000" stroke="#000000" stroke-width="1.0" stroke-linecap="butt" d="m659.7829 160.40945l-1.1245728 1.1245728l3.0897217 -1.1245728l-3.0897217 -1.124588z" fill-rule="evenodd"/><path fill="#000000" fill-opacity="0.0" d="m663.20996 142.62993l80.031494 0l0 35.55905l-80.031494 0z" fill-rule="evenodd"/><path fill="#000000" d="m679.765 161.27367q0 -0.734375 0.1875 -1.546875q0.1875 -0.828125 0.71875 -1.890625q0.546875 -1.078125 0.796875 -1.296875q0.078125 -0.078125 0.171875 -0.078125q0.109375 0 0.1875 0.078125q0.078125 0.078125 0.078125 0.1875q0 0.0625 -0.046875 0.140625q-0.6875 1.28125 -1.0 2.328125q-0.296875 1.03125 -0.296875 2.078125q0 1.046875 0.296875 2.09375q0.3125 1.03125 1.0 2.3125q0.046875 0.078125 0.046875 0.140625q0 0.09375 -0.078125 0.171875q-0.078125 0.09375 -0.1875 0.09375q-0.09375 0 -0.171875 -0.078125q-0.234375 -0.21875 -0.765625 -1.265625q-0.53125 -1.046875 -0.734375 -1.84375q-0.203125 -0.8125 -0.203125 -1.625zm10.473145 3.15625l-0.6875 0l-3.9375 -6.640625l0 6.109375l0.984375 0q0.203125 0 0.28125 0.078125q0.09375 0.0625 0.09375 0.1875q0 0.109375 -0.09375 0.1875q-0.078125 0.078125 -0.28125 0.078125l-1.953125 0q-0.203125 0 -0.28125 -0.078125q-0.078125 -0.078125 -0.078125 -0.1875q0 -0.125 0.078125 -0.1875q0.078125 -0.078125 0.28125 -0.078125l0.4375 0l0 -6.359375l-0.71875 0q-0.1875 0 -0.265625 -0.078125q-0.078125 -0.078125 -0.078125 -0.1875q0 -0.125 0.078125 -0.1875q0.078125 -0.078125 0.265625 -0.078125l1.40625 0l3.9375 6.65625l0 -6.125l-0.984375 0q-0.1875 0 -0.28125 -0.078125q-0.078125 -0.078125 -0.078125 -0.1875q0 -0.125 0.078125 -0.1875q0.078125 -0.078125 0.28125 -0.078125l1.96875 0q0.1875 0 0.265625 0.078125q0.078125 0.0625 0.078125 0.1875q0 0.109375 -0.078125 0.1875q-0.078125 0.078125 -0.265625 0.078125l-0.453125 0l0 6.890625zm4.1293945 -1.921875l1.734375 0l-1.890625 3.515625q-0.171875 0.3125 -0.40625 0.3125q-0.15625 0 -0.28125 -0.109375q-0.109375 -0.109375 -0.109375 -0.265625q0 -0.078125 0.03125 -0.140625l0.921875 -3.3125zm7.3950195 -5.5l0 2.609375q0.46875 -0.203125 0.890625 -0.296875q0.4375 -0.109375 0.828125 -0.109375q1.0 0 1.671875 0.71875q0.671875 0.703125 0.671875 1.84375q0 1.265625 -0.765625 2.0625q-0.75 0.78125 -1.890625 0.78125q-0.765625 0 -1.453125 -0.328125q-0.5 -0.234375 -0.90625 -0.59375q-0.234375 -0.203125 -0.234375 -0.34375q0 -0.109375 0.0625 -0.1875q0.078125 -0.09375 0.1875 -0.09375q0.109375 0 0.234375 0.125q0.953125 0.890625 2.078125 0.890625q0.9375 0 1.546875 -0.640625q0.609375 -0.640625 0.609375 -1.6875q0 -0.90625 -0.53125 -1.453125q-0.53125 -0.546875 -1.34375 -0.546875q-0.828125 0 -1.65625 0.4375q-0.203125 0.09375 -0.28125 0.09375q-0.125 0 -0.203125 -0.078125q-0.0625 -0.078125 -0.0625 -0.21875l0 -3.53125l3.734375 0q0.1875 0 0.265625 0.078125q0.078125 0.078125 0.078125 0.203125q0 0.109375 -0.078125 0.1875q-0.078125 0.078125 -0.265625 0.078125l-3.1875 0zm9.535645 -0.65625l0 7.546875l1.828125 0q0.1875 0 0.265625 0.078125q0.078125 0.0625 0.078125 0.1875q0 0.109375 -0.078125 0.1875q-0.078125 0.078125 -0.265625 0.078125l-4.203125 0q-0.1875 0 -0.265625 -0.078125q-0.078125 -0.078125 -0.078125 -0.1875q0 -0.125 0.078125 -0.1875q0.078125 -0.078125 0.265625 -0.078125l1.828125 0l0 -6.8125l-1.734375 0.546875q-0.125 0.046875 -0.1875 0.046875q-0.09375 0 -0.171875 -0.078125q-0.078125 -0.078125 -0.078125 -0.1875q0 -0.09375 0.0625 -0.1875q0.046875 -0.046875 0.21875 -0.109375l2.4375 -0.765625zm5.2387695 7.546875l4.09375 0l0 -0.21875q0 -0.1875 0.078125 -0.265625q0.078125 -0.078125 0.1875 -0.078125q0.125 0 0.1875 0.078125q0.078125 0.078125 0.078125 0.265625l0 0.75l-5.15625 0l0 -0.78125q1.625 -1.46875 3.171875 -2.984375q0.71875 -0.703125 0.984375 -1.03125q0.265625 -0.328125 0.359375 -0.578125q0.09375 -0.25 0.09375 -0.5q0 -0.6875 -0.546875 -1.21875q-0.546875 -0.53125 -1.328125 -0.53125q-0.703125 0 -1.25 0.40625q-0.53125 0.40625 -0.6875 0.984375q-0.046875 0.15625 -0.09375 0.203125q-0.078125 0.0625 -0.1875 0.0625q-0.109375 0 -0.1875 -0.0625q-0.0625 -0.078125 -0.0625 -0.1875q0 -0.296875 0.328125 -0.8125q0.34375 -0.53125 0.921875 -0.828125q0.59375 -0.296875 1.203125 -0.296875q1.0 0 1.71875 0.703125q0.71875 0.6875 0.71875 1.5625q0 0.359375 -0.125 0.671875q-0.109375 0.3125 -0.40625 0.671875q-0.28125 0.359375 -1.03125 1.09375q-1.890625 1.859375 -3.0625 2.875l0 0.046875zm10.254395 -2.625q0 0.734375 -0.203125 1.546875q-0.1875 0.8125 -0.734375 1.890625q-0.53125 1.078125 -0.78125 1.296875q-0.078125 0.078125 -0.15625 0.078125q-0.125 0 -0.203125 -0.09375q-0.078125 -0.078125 -0.078125 -0.171875q0 -0.0625 0.046875 -0.140625q0.703125 -1.28125 1.0 -2.3125q0.296875 -1.046875 0.296875 -2.09375q0 -1.046875 -0.296875 -2.078125q-0.296875 -1.046875 -1.0 -2.328125q-0.046875 -0.078125 -0.046875 -0.140625q0 -0.109375 0.078125 -0.1875q0.078125 -0.078125 0.203125 -0.078125q0.078125 0 0.15625 0.078125q0.234375 0.203125 0.765625 1.25q0.546875 1.046875 0.75 1.859375q0.203125 0.8125 0.203125 1.625z" fill-rule="nonzero"/></g></svg>