<svg version="1.1" viewBox="0.0 0.0 949.9317585301837 315.76377952755905" fill="none" stroke="none" stroke-linecap="square" stroke-miterlimit="10" xmlns:xlink="http://www.w3.org/1999/xlink" xmlns="http://www.w3.org/2000/svg"><clipPath id="p.0"><path d="m0 0l949.93176 0l0 315.7638l-949.93176 0l0 -315.7638z" clip-rule="nonzero"/></clipPath><g clip-path="url(#p.0)"><path fill="#000000" fill-opacity="0.0" d="m0 0l949.93176 0l0 315.7638l-949.93176 0z" fill-rule="evenodd"/><path fill="#f4cccc" d="m141.40027 110.220474l0 0c0 -13.054794 10.582993 -23.637794 23.637787 -23.637794l148.81891 0c6.2691345 0 12.281494 2.4904022 16.714447 6.9233475c4.4329224 4.4329453 6.92334 10.4453125 6.92334 16.714447l0 94.55118c0 13.054794 -10.583008 23.637802 -23.637787 23.637802l-148.81891 0c-13.054794 0 -23.637787 -10.583008 -23.637787 -23.637802z" fill-rule="evenodd"/><path stroke="#ff0000" stroke-width="3.0" stroke-linejoin="round" stroke-linecap="butt" d="m141.40027 110.220474l0 0c0 -13.054794 10.582993 -23.637794 23.637787 -23.637794l148.81891 0c6.2691345 0 12.281494 2.4904022 16.714447 6.9233475c4.4329224 4.4329453 6.92334 10.4453125 6.92334 16.714447l0 94.55118c0 13.054794 -10.583008 23.637802 -23.637787 23.637802l-148.81891 0c-13.054794 0 -23.637787 -10.583008 -23.637787 -23.637802z" fill-rule="evenodd"/><path fill="#000000" d="m204.24287 159.68169l0 2.796875q-0.28125 0.359375 -0.78125 0.75q-0.484375 0.390625 -1.1875 0.734375q-0.703125 0.34375 -1.546875 0.546875q-0.828125 0.21875 -1.796875 0.21875q-1.515625 0 -2.734375 -0.453125q-1.21875 -0.46875 -2.109375 -1.359375q-0.875 -0.90625 -1.34375 -2.1875q-0.453125 -1.296875 -0.453125 -2.9375q0 -1.640625 0.484375 -2.921875q0.5 -1.296875 1.375 -2.1875q0.890625 -0.890625 2.0625 -1.359375q1.1875 -0.484375 2.53125 -0.484375q1.25 0 2.203125 0.421875q0.953125 0.40625 1.578125 1.203125q0.625 0.78125 0.84375 1.875l-0.53125 -0.46875l0.265625 -2.796875l1.21875 0l0 4.1875l-1.3125 0q-0.3125 -0.96875 -0.890625 -1.6875q-0.578125 -0.734375 -1.421875 -1.140625q-0.84375 -0.421875 -1.9375 -0.421875q-1.046875 0 -1.90625 0.375q-0.84375 0.375 -1.453125 1.109375q-0.59375 0.71875 -0.921875 1.796875q-0.328125 1.078125 -0.328125 2.5q0 1.421875 0.3125 2.515625q0.328125 1.09375 0.953125 1.8125q0.625 0.71875 1.5 1.078125q0.890625 0.359375 2.03125 0.359375q1.078125 0 1.796875 -0.234375q0.734375 -0.25 1.171875 -0.5625q0.4375 -0.328125 0.65625 -0.515625l0 -2.5625q0 -0.4375 -0.5 -0.578125q-0.5 -0.140625 -1.203125 -0.140625l-0.390625 0l0 -1.0l5.421875 0l0 1.0l-0.25 0q-0.65625 0 -1.03125 0.140625q-0.375 0.140625 -0.375 0.578125zm5.056946 -0.171875q0 1.078125 0.25 1.84375q0.25 0.765625 0.71875 1.234375q0.46875 0.46875 1.078125 0.6875q0.609375 0.21875 1.3125 0.21875q0.78125 0 1.359375 -0.265625q0.578125 -0.28125 1.0 -0.703125q0.421875 -0.4375 0.71875 -0.921875l0.890625 0.71875q-0.34375 0.65625 -0.9375 1.1875q-0.578125 0.53125 -1.359375 0.828125q-0.765625 0.28125 -1.71875 0.28125q-1.40625 0 -2.546875 -0.59375q-1.140625 -0.59375 -1.8125 -1.75q-0.65625 -1.15625 -0.65625 -2.78125q0 -1.59375 0.609375 -2.765625q0.609375 -1.1875 1.65625 -1.84375q1.0625 -0.671875 2.421875 -0.671875q1.09375 0 1.890625 0.359375q0.8125 0.34375 1.34375 1.0625q0.546875 0.703125 0.828125 1.765625q0.28125 1.0625 0.28125 2.484375l-7.71875 0l0 -1.078125l6.484375 0l-0.484375 0.40625q-0.03125 -1.0625 -0.1875 -1.796875q-0.15625 -0.75 -0.46875 -1.203125q-0.3125 -0.453125 -0.796875 -0.65625q-0.484375 -0.203125 -1.171875 -0.203125q-0.65625 0 -1.203125 0.25q-0.546875 0.25 -0.953125 0.78125q-0.40625 0.515625 -0.625 1.296875q-0.203125 0.78125 -0.203125 1.828125zm8.933502 4.90625l0 -0.890625l0.0625 0q0.484375 0 0.828125 -0.078125q0.359375 -0.09375 0.546875 -0.328125q0.1875 -0.234375 0.1875 -0.640625l0 -6.234375q0 -0.28125 -0.15625 -0.421875q-0.15625 -0.140625 -0.484375 -0.234375q-0.3125 -0.09375 -0.796875 -0.1875l-0.1875 -0.03125l0 -0.96875l2.984375 0l0.234375 2.125l0.0625 0.09375l0 6.71875q0 0.046875 0.21875 0.09375q0.234375 0.046875 0.546875 0.078125q0.328125 0.015625 0.578125 0.015625l0.078125 0l0 0.890625l-4.703125 0zm11.3125 0l-4.703125 0l0 -0.890625l0.046875 0q0.265625 0 0.578125 -0.015625q0.328125 -0.03125 0.5625 -0.078125q0.234375 -0.046875 0.234375 -0.09375l0 -6.109375q0 -0.609375 -0.171875 -1.0q-0.15625 -0.390625 -0.515625 -0.578125q-0.34375 -0.203125 -0.9375 -0.203125q-0.625 0 -1.21875 0.25q-0.578125 0.234375 -1.125 0.71875q-0.546875 0.484375 -1.109375 1.25l0 -1.015625q0.53125 -0.796875 1.125 -1.328125q0.609375 -0.546875 1.28125 -0.828125q0.6875 -0.28125 1.46875 -0.28125q0.921875 0 1.546875 0.3125q0.625 0.296875 0.96875 0.921875q0.34375 0.625 0.34375 1.578125l0 5.453125q0 0.40625 0.1875 0.640625q0.1875 0.234375 0.53125 0.328125q0.359375 0.078125 0.84375 0.078125l0.0625 0l0 0.890625zm3.0929718 -4.90625q0 1.078125 0.25 1.84375q0.25 0.765625 0.71875 1.234375q0.46875 0.46875 1.078125 0.6875q0.609375 0.21875 1.3125 0.21875q0.78125 0 1.359375 -0.265625q0.578125 -0.28125 1.0 -0.703125q0.421875 -0.4375 0.71875 -0.921875l0.890625 0.71875q-0.34375 0.65625 -0.9375 1.1875q-0.578125 0.53125 -1.359375 0.828125q-0.765625 0.28125 -1.71875 0.28125q-1.40625 0 -2.546875 -0.59375q-1.140625 -0.59375 -1.8125 -1.75q-0.65625 -1.15625 -0.65625 -2.78125q0 -1.59375 0.609375 -2.765625q0.609375 -1.1875 1.65625 -1.84375q1.0625 -0.671875 2.421875 -0.671875q1.09375 0 1.890625 0.359375q0.8125 0.34375 1.34375 1.0625q0.546875 0.703125 0.828125 1.765625q0.28125 1.0625 0.28125 2.484375l-7.71875 0l0 -1.078125l6.484375 0l-0.484375 0.40625q-0.03125 -1.0625 -0.1875 -1.796875q-0.15625 -0.75 -0.46875 -1.203125q-0.3125 -0.453125 -0.796875 -0.65625q-0.484375 -0.203125 -1.171875 -0.203125q-0.65625 0 -1.203125 0.25q-0.546875 0.25 -0.953125 0.78125q-0.40625 0.515625 -0.625 1.296875q-0.203125 0.78125 -0.203125 1.828125zm15.964752 -5.25l0 1.796875q-0.125 -0.03125 -0.3125 -0.046875q-0.1875 -0.03125 -0.390625 -0.046875q-0.1875 -0.015625 -0.375 -0.015625q-0.515625 0 -0.9375 0.109375q-0.40625 0.09375 -0.75 0.3125q-0.34375 0.21875 -0.65625 0.5625q-0.3125 0.328125 -0.65625 0.8125l0 -0.859375q0.46875 -0.875 0.953125 -1.46875q0.5 -0.609375 1.09375 -0.90625q0.59375 -0.3125 1.34375 -0.3125q0.21875 0 0.421875 0.015625q0.203125 0.015625 0.265625 0.046875zm-7.03125 10.15625l0 -0.890625l0.0625 0q0.71875 0 1.140625 -0.203125q0.421875 -0.21875 0.421875 -0.84375l0 -6.234375q0 -0.28125 -0.15625 -0.421875q-0.15625 -0.140625 -0.484375 -0.234375q-0.3125 -0.09375 -0.796875 -0.1875l-0.1875 -0.03125l0 -0.96875l2.984375 0l0.234375 2.5l0.0625 -0.078125l0 6.28125q0 0.171875 0.265625 0.265625q0.265625 0.09375 0.609375 0.125q0.359375 0.03125 0.625 0.03125l0.40625 0l0 0.890625l-5.1875 0zm15.039795 -6.09375l0 0.984375q-1.140625 0.140625 -1.96875 0.328125q-0.8125 0.1875 -1.359375 0.421875q-0.53125 0.21875 -0.859375 0.5q-0.3125 0.28125 -0.453125 0.640625q-0.125 0.34375 -0.125 0.75q0 0.53125 0.21875 0.890625q0.21875 0.34375 0.609375 0.53125q0.390625 0.171875 0.921875 0.171875q0.59375 0 1.09375 -0.28125q0.5 -0.28125 0.96875 -0.84375q0.46875 -0.5625 0.921875 -1.390625l0.015625 1.09375q-0.375 0.765625 -0.875 1.328125q-0.484375 0.5625 -1.109375 0.875q-0.625 0.296875 -1.421875 0.296875q-0.890625 0 -1.578125 -0.296875q-0.6875 -0.3125 -1.078125 -0.90625q-0.390625 -0.609375 -0.390625 -1.4375q0 -0.796875 0.34375 -1.375q0.359375 -0.578125 1.125 -1.0q0.78125 -0.4375 2.015625 -0.75q1.234375 -0.3125 2.984375 -0.53125zm-0.03125 6.09375l-0.234375 -2.171875l-0.09375 -0.109375l0 -4.859375q0 -0.71875 -0.1875 -1.140625q-0.1875 -0.4375 -0.625 -0.609375q-0.4375 -0.1875 -1.171875 -0.1875q-1.125 0 -1.84375 0.3125q-0.703125 0.3125 -1.0625 0.671875q0 -0.15625 0.078125 -0.3125q0.078125 -0.15625 0.203125 -0.296875q0.140625 -0.140625 0.3125 -0.234375q0.171875 -0.09375 0.40625 -0.125l0 2.15625l-1.640625 0l0 -2.265625q0.25 -0.21875 0.75 -0.4375q0.5 -0.234375 1.21875 -0.40625q0.734375 -0.1875 1.640625 -0.1875q0.75 0 1.40625 0.15625q0.65625 0.140625 1.140625 0.484375q0.484375 0.328125 0.765625 0.875q0.28125 0.53125 0.28125 1.3125l0 5.640625q0 0.265625 0.171875 0.421875q0.1875 0.140625 0.515625 0.203125q0.34375 0.0625 0.828125 0.125l0.09375 0.015625l0 0.96875l-2.953125 0zm3.2997131 -8.90625l0 -1.015625l0.203125 0q0.625 0 1.046875 -0.078125q0.4375 -0.09375 0.65625 -0.34375q0.21875 -0.265625 0.21875 -0.796875l1.203125 1.125l3.5625 0l0 1.109375l-6.890625 0zm3.65625 5.859375q0 0.796875 0.21875 1.25q0.21875 0.4375 0.640625 0.625q0.4375 0.1875 1.046875 0.1875q0.484375 0 0.890625 -0.0625q0.40625 -0.078125 0.5625 -0.109375l0 1.125q-0.1875 0.046875 -0.46875 0.09375q-0.28125 0.0625 -0.578125 0.09375q-0.296875 0.046875 -0.625 0.046875q-0.875 0 -1.640625 -0.25q-0.765625 -0.265625 -1.25 -0.96875q-0.46875 -0.703125 -0.46875 -2.0l0 -6.71875l0.140625 -0.15625l0 -2.984375l1.53125 0l0 9.828125zm14.792145 -1.953125q0 1.578125 -0.625 2.765625q-0.625 1.171875 -1.765625 1.8125q-1.125 0.625 -2.625 0.625q-1.53125 0 -2.671875 -0.625q-1.125 -0.640625 -1.75 -1.8125q-0.625 -1.1875 -0.625 -2.765625q0 -1.1875 0.359375 -2.140625q0.359375 -0.96875 1.03125 -1.65625q0.671875 -0.6875 1.59375 -1.046875q0.921875 -0.359375 2.0625 -0.359375q1.140625 0 2.046875 0.359375q0.921875 0.359375 1.59375 1.046875q0.671875 0.6875 1.015625 1.65625q0.359375 0.953125 0.359375 2.140625zm-8.296875 0q0 1.34375 0.359375 2.265625q0.375 0.90625 1.09375 1.359375q0.734375 0.453125 1.828125 0.453125q1.078125 0 1.796875 -0.453125q0.734375 -0.453125 1.09375 -1.359375q0.375 -0.921875 0.375 -2.265625q0 -1.3125 -0.375 -2.203125q-0.359375 -0.90625 -1.09375 -1.375q-0.71875 -0.484375 -1.796875 -0.484375q-1.09375 0 -1.828125 0.484375q-0.71875 0.46875 -1.09375 1.375q-0.359375 0.890625 -0.359375 2.203125zm17.00299 -5.15625l0 1.796875q-0.125 -0.03125 -0.3125 -0.046875q-0.1875 -0.03125 -0.390625 -0.046875q-0.1875 -0.015625 -0.375 -0.015625q-0.515625 0 -0.9375 0.109375q-0.40625 0.09375 -0.75 0.3125q-0.34375 0.21875 -0.65625 0.5625q-0.3125 0.328125 -0.65625 0.8125l0 -0.859375q0.46875 -0.875 0.953125 -1.46875q0.5 -0.609375 1.09375 -0.90625q0.59375 -0.3125 1.34375 -0.3125q0.21875 0 0.421875 0.015625q0.203125 0.015625 0.265625 0.046875zm-7.03125 10.15625l0 -0.890625l0.0625 0q0.71875 0 1.140625 -0.203125q0.421875 -0.21875 0.421875 -0.84375l0 -6.234375q0 -0.28125 -0.15625 -0.421875q-0.15625 -0.140625 -0.484375 -0.234375q-0.3125 -0.09375 -0.796875 -0.1875l-0.1875 -0.03125l0 -0.96875l2.984375 0l0.234375 2.5l0.0625 -0.078125l0 6.28125q0 0.171875 0.265625 0.265625q0.265625 0.09375 0.609375 0.125q0.359375 0.03125 0.625 0.03125l0.40625 0l0 0.890625l-5.1875 0z" fill-rule="nonzero"/><path fill="#ffffff" d="m130.10892 7.999475l218.67719 0l0 32.62992l-218.67719 0z" fill-rule="evenodd"/><path stroke="#000000" stroke-width="1.0" stroke-linejoin="round" stroke-linecap="butt" d="m130.10892 7.999475l218.67719 0l0 32.62992l-218.67719 0z" fill-rule="evenodd"/><path fill="#000000" d="m193.80269 18.34756l0.90625 0.609375q-0.359375 0.203125 -0.6875 0.4375q-0.3125 0.21875 -0.546875 0.5q-0.234375 0.265625 -0.375 0.59375q-0.125 0.3125 -0.140625 0.734375l-0.25 -0.109375q0.140625 -0.09375 0.28125 -0.109375q0.140625 -0.015625 0.265625 -0.015625q0.453125 0 0.71875 0.21875q0.28125 0.203125 0.28125 0.625q0 0.375 -0.28125 0.625q-0.265625 0.25 -0.71875 0.25q-0.53125 0 -0.8125 -0.296875q-0.265625 -0.296875 -0.265625 -0.953125q0 -0.546875 0.109375 -1.0q0.125 -0.46875 0.328125 -0.84375q0.21875 -0.390625 0.515625 -0.703125q0.296875 -0.3125 0.671875 -0.5625zm-3.21875 0l0.90625 0.609375q-0.375 0.203125 -0.6875 0.4375q-0.3125 0.21875 -0.546875 0.5q-0.234375 0.265625 -0.375 0.59375q-0.125 0.3125 -0.140625 0.734375l-0.265625 -0.109375q0.15625 -0.09375 0.28125 -0.109375q0.140625 -0.015625 0.28125 -0.015625q0.453125 0 0.71875 0.21875q0.28125 0.203125 0.28125 0.625q0 0.375 -0.28125 0.625q-0.265625 0.25 -0.71875 0.25q-0.53125 0 -0.8125 -0.296875q-0.28125 -0.296875 -0.28125 -0.953125q0 -0.546875 0.109375 -1.0q0.125 -0.46875 0.34375 -0.84375q0.21875 -0.390625 0.515625 -0.703125q0.296875 -0.3125 0.671875 -0.5625zm7.795807 5.25l6.171875 0l0 0.875l-6.171875 0l0 -0.875zm-2.390625 5.796875l0 -0.8125l0.15625 0q0.546875 0 0.890625 -0.09375q0.359375 -0.109375 0.359375 -0.421875l0 -7.765625q0 -0.3125 -0.359375 -0.40625q-0.34375 -0.109375 -0.890625 -0.109375l-0.15625 0l0 -0.796875l4.171875 0l0 0.796875l-0.125 0q-0.21875 0 -0.453125 0.015625q-0.21875 0 -0.40625 0.015625q-0.1875 0.015625 -0.3125 0.046875q-0.109375 0.015625 -0.109375 0.0625l0 8.53125q0 0.046875 0.109375 0.078125q0.125 0.015625 0.3125 0.03125q0.1875 0.015625 0.40625 0.015625q0.234375 0 0.453125 0l0.125 0l0 0.8125l-4.171875 0zm6.78125 0l0 -0.796875l0.125 0q0.21875 0 0.4375 -0.015625q0.234375 -0.015625 0.421875 -0.015625q0.1875 -0.015625 0.296875 -0.03125q0.125 -0.03125 0.125 -0.078125l0 -8.53125q0 -0.046875 -0.125 -0.0625q-0.109375 -0.03125 -0.296875 -0.046875q-0.1875 -0.015625 -0.421875 -0.015625q-0.21875 -0.015625 -0.4375 -0.015625l-0.125 0l0 -0.796875l4.171875 0l0 0.796875l-0.15625 0q-0.546875 0 -0.90625 0.109375q-0.34375 0.09375 -0.34375 0.40625l0 7.765625q0 0.3125 0.34375 0.421875q0.359375 0.09375 0.90625 0.09375l0.15625 0l0 0.8125l-4.171875 0zm6.8239136 -3.859375q0 0.859375 0.203125 1.46875q0.203125 0.59375 0.5625 0.96875q0.375 0.359375 0.84375 0.53125q0.484375 0.171875 1.03125 0.171875q0.625 0 1.078125 -0.21875q0.453125 -0.21875 0.78125 -0.546875q0.328125 -0.34375 0.5625 -0.734375l0.703125 0.578125q-0.28125 0.515625 -0.734375 0.9375q-0.453125 0.40625 -1.0625 0.640625q-0.609375 0.21875 -1.359375 0.21875q-1.109375 0 -2.0 -0.46875q-0.890625 -0.46875 -1.421875 -1.375q-0.515625 -0.90625 -0.515625 -2.1875q0 -1.234375 0.46875 -2.15625q0.484375 -0.9375 1.3125 -1.453125q0.828125 -0.53125 1.890625 -0.53125q0.875 0 1.5 0.28125q0.625 0.28125 1.046875 0.84375q0.4375 0.546875 0.65625 1.390625q0.21875 0.828125 0.21875 1.9375l-6.0625 0l0 -0.84375l5.09375 0l-0.375 0.3125q-0.03125 -0.828125 -0.15625 -1.40625q-0.125 -0.578125 -0.375 -0.9375q-0.234375 -0.359375 -0.625 -0.515625q-0.375 -0.171875 -0.921875 -0.171875q-0.5 0 -0.9375 0.203125q-0.4375 0.1875 -0.75 0.609375q-0.3125 0.40625 -0.484375 1.03125q-0.171875 0.609375 -0.171875 1.421875zm9.482864 -7.25l0 9.65625q0 0.453125 0.34375 0.609375q0.34375 0.140625 0.90625 0.140625l0.046875 0l0 0.703125l-3.875 0l0 -0.703125l0.0625 0q0.578125 0 0.90625 -0.140625q0.328125 -0.15625 0.328125 -0.609375l0 -8.203125q0 -0.21875 -0.125 -0.328125q-0.125 -0.109375 -0.375 -0.1875q-0.25 -0.078125 -0.640625 -0.140625l-0.15625 -0.03125l0 -0.765625l2.578125 0zm4.8952026 0l0 9.65625q0 0.453125 0.34375 0.609375q0.34375 0.140625 0.90625 0.140625l0.046875 0l0 0.703125l-3.875 0l0 -0.703125l0.0625 0q0.578125 0 0.90625 -0.140625q0.328125 -0.15625 0.328125 -0.609375l0 -8.203125q0 -0.21875 -0.125 -0.328125q-0.125 -0.109375 -0.375 -0.1875q-0.25 -0.078125 -0.640625 -0.140625l-0.15625 -0.03125l0 -0.765625l2.578125 0zm10.285828 7.1875q0 1.234375 -0.5 2.171875q-0.484375 0.921875 -1.375 1.421875q-0.890625 0.484375 -2.078125 0.484375q-1.203125 0 -2.09375 -0.484375q-0.875 -0.5 -1.375 -1.421875q-0.484375 -0.9375 -0.484375 -2.171875q0 -0.9375 0.28125 -1.6875q0.28125 -0.765625 0.796875 -1.296875q0.53125 -0.546875 1.25 -0.828125q0.734375 -0.28125 1.625 -0.28125q0.90625 0 1.609375 0.28125q0.71875 0.28125 1.25 0.828125q0.53125 0.53125 0.8125 1.296875q0.28125 0.75 0.28125 1.6875zm-6.53125 0q0 1.046875 0.296875 1.765625q0.296875 0.71875 0.859375 1.078125q0.578125 0.359375 1.421875 0.359375q0.859375 0 1.421875 -0.359375q0.578125 -0.359375 0.859375 -1.078125q0.28125 -0.71875 0.28125 -1.765625q0 -1.03125 -0.28125 -1.734375q-0.28125 -0.71875 -0.859375 -1.09375q-0.5625 -0.375 -1.421875 -0.375q-0.84375 0 -1.421875 0.375q-0.5625 0.375 -0.859375 1.09375q-0.296875 0.703125 -0.296875 1.734375zm11.242386 -6.484375l3.765625 0l0 0.796875l-0.25 0q-0.25 0 -0.515625 0.015625q-0.265625 0.015625 -0.46875 0.046875q-0.1875 0.03125 -0.1875 0.09375l2.203125 8.71875l-0.171875 0l2.390625 -9.671875l1.5625 0l2.484375 9.625l-0.171875 0l2.09375 -8.53125q0 -0.078125 -0.1875 -0.15625q-0.171875 -0.078125 -0.4375 -0.109375q-0.265625 -0.03125 -0.515625 -0.03125l-0.21875 0l0 -0.796875l3.34375 0l0 0.796875l-0.09375 0q-0.390625 0 -0.671875 0.140625q-0.265625 0.140625 -0.34375 0.5l-2.234375 8.96875l-1.578125 0l-2.5 -9.546875l0.171875 0l-2.359375 9.546875l-1.609375 0l-2.40625 -9.109375q-0.09375 -0.359375 -0.34375 -0.421875q-0.234375 -0.078125 -0.65625 -0.078125l-0.09375 0l0 -0.796875zm23.018234 6.484375q0 1.234375 -0.5 2.171875q-0.484375 0.921875 -1.375 1.421875q-0.890625 0.484375 -2.078125 0.484375q-1.203125 0 -2.0937653 -0.484375q-0.875 -0.5 -1.375 -1.421875q-0.484375 -0.9375 -0.484375 -2.171875q0 -0.9375 0.28125 -1.6875q0.28125 -0.765625 0.796875 -1.296875q0.53125 -0.546875 1.2500153 -0.828125q0.734375 -0.28125 1.625 -0.28125q0.90625 0 1.609375 0.28125q0.71875 0.28125 1.25 0.828125q0.53125 0.53125 0.8125 1.296875q0.28125 0.75 0.28125 1.6875zm-6.5312653 0q0 1.046875 0.296875 1.765625q0.29689026 0.71875 0.85939026 1.078125q0.578125 0.359375 1.421875 0.359375q0.859375 0 1.421875 -0.359375q0.578125 -0.359375 0.859375 -1.078125q0.28125 -0.71875 0.28125 -1.765625q0 -1.03125 -0.28125 -1.734375q-0.28125 -0.71875 -0.859375 -1.09375q-0.5625 -0.375 -1.421875 -0.375q-0.84375 0 -1.421875 0.375q-0.5625 0.375 -0.85939026 1.09375q-0.296875 0.703125 -0.296875 1.734375zm13.369247 -4.046875l0 1.40625q-0.109375 -0.03125 -0.25 -0.046875q-0.140625 -0.015625 -0.296875 -0.03125q-0.15625 -0.015625 -0.296875 -0.015625q-0.421875 0 -0.75 0.078125q-0.3125 0.078125 -0.59375 0.25q-0.265625 0.171875 -0.515625 0.4375q-0.234375 0.265625 -0.5 0.640625l0 -0.671875q0.359375 -0.6875 0.75 -1.15625q0.390625 -0.46875 0.859375 -0.703125q0.46875 -0.25 1.046875 -0.25q0.1875 0 0.328125 0.015625q0.15625 0.015625 0.21875 0.046875zm-5.53125 7.96875l0 -0.703125l0.046875 0q0.578125 0 0.90625 -0.15625q0.328125 -0.171875 0.328125 -0.671875l0 -4.890625q0 -0.21875 -0.125 -0.328125q-0.125 -0.109375 -0.375 -0.171875q-0.25 -0.078125 -0.625 -0.15625l-0.15625 -0.03125l0 -0.765625l2.34375 0l0.1875 1.96875l0.046875 -0.0625l0 4.9375q0 0.140625 0.203125 0.21875q0.21875 0.0625 0.484375 0.09375q0.28125 0.015625 0.5 0.015625l0.3125 0l0 0.703125l-4.078125 0zm8.99939 -11.109375l0 9.65625q0 0.453125 0.34375 0.609375q0.34375 0.140625 0.90625 0.140625l0.046875 0l0 0.703125l-3.875 0l0 -0.703125l0.0625 0q0.578125 0 0.90625 -0.140625q0.328125 -0.15625 0.328125 -0.609375l0 -8.203125q0 -0.21875 -0.125 -0.328125q-0.125 -0.109375 -0.375 -0.1875q-0.25 -0.078125 -0.640625 -0.140625l-0.15625 -0.03125l0 -0.765625l2.578125 0zm9.895203 9.75q0 0.3125 0.328125 0.421875q0.328125 0.109375 0.875 0.15625l0.078125 0.015625l0 0.765625l-2.34375 0l-0.1875 -1.71875l-0.046875 -0.015625l0 -7.921875q0 -0.21875 -0.125 -0.328125q-0.125 -0.109375 -0.390625 -0.1875q-0.25 -0.078125 -0.640625 -0.140625l-0.15625 -0.03125l0 -0.765625l2.609375 0l0 9.75zm-3.875 -6.65625q0.640625 0 1.140625 0.21875q0.515625 0.21875 0.921875 0.640625q0.421875 0.40625 0.78125 1.015625l-0.046875 0.96875q-0.375 -0.65625 -0.78125 -1.09375q-0.40625 -0.4375 -0.890625 -0.640625q-0.46875 -0.203125 -1.0625 -0.203125q-0.5625 0 -1.015625 0.21875q-0.4375 0.203125 -0.734375 0.625q-0.28125 0.40625 -0.4375 1.015625q-0.140625 0.609375 -0.140625 1.375q0 0.75 0.140625 1.34375q0.140625 0.578125 0.40625 0.984375q0.28125 0.40625 0.703125 0.609375q0.421875 0.203125 1.0 0.203125q0.609375 0 1.109375 -0.203125q0.5 -0.21875 0.921875 -0.640625q0.421875 -0.4375 0.8125 -1.09375l0.015625 0.90625q-0.390625 0.609375 -0.8125 1.046875q-0.421875 0.421875 -0.96875 0.65625q-0.53125 0.21875 -1.203125 0.21875q-1.109375 0 -1.890625 -0.5q-0.78125 -0.5 -1.203125 -1.40625q-0.40625 -0.921875 -0.40625 -2.125q0 -1.203125 0.421875 -2.140625q0.4375 -0.9375 1.25 -1.46875q0.828125 -0.53125 1.96875 -0.53125zm6.7795105 1.4375l-0.90625 -0.625q0.375 -0.21875 0.6875 -0.4375q0.3125 -0.234375 0.546875 -0.484375q0.25 -0.265625 0.375 -0.59375q0.140625 -0.34375 0.140625 -0.75l0.25 0.125q-0.140625 0.0625 -0.28125 0.09375q-0.140625 0.03125 -0.265625 0.03125q-0.421875 0 -0.703125 -0.21875q-0.28125 -0.21875 -0.28125 -0.625q0 -0.40625 0.265625 -0.65625q0.28125 -0.25 0.734375 -0.25q0.515625 0 0.796875 0.3125q0.28125 0.296875 0.28125 0.953125q0 0.5625 -0.125 1.03125q-0.109375 0.453125 -0.328125 0.84375q-0.21875 0.375 -0.515625 0.6875q-0.296875 0.3125 -0.671875 0.5625zm3.21875 0l-0.90625 -0.625q0.375 -0.21875 0.6875 -0.4375q0.3125 -0.234375 0.546875 -0.484375q0.25 -0.265625 0.375 -0.59375q0.140625 -0.34375 0.140625 -0.75l0.25 0.125q-0.140625 0.0625 -0.28125 0.09375q-0.140625 0.03125 -0.265625 0.03125q-0.421875 0 -0.703125 -0.21875q-0.28125 -0.21875 -0.28125 -0.625q0 -0.40625 0.265625 -0.65625q0.28125 -0.25 0.734375 -0.25q0.515625 0 0.796875 0.3125q0.28125 0.296875 0.28125 0.953125q0 0.5625 -0.125 1.03125q-0.109375 0.453125 -0.328125 0.84375q-0.21875 0.375 -0.515625 0.6875q-0.296875 0.3125 -0.671875 0.5625z" fill-rule="nonzero"/><path fill="#ffffff" d="m7.9997888 274.36304l462.89764 0l0 31.728424l-462.89764 0z" fill-rule="evenodd"/><path stroke="#000000" stroke-width="1.0" stroke-linejoin="round" stroke-linecap="butt" d="m7.9997888 274.36304l462.89764 0l0 31.728424l-462.89764 0z" fill-rule="evenodd"/><path fill="#000000" fill-opacity="0.0" d="m22.411861 282.41275c-2.1521397 8.318787 -7.6185274 16.400452 -14.412073 23.91681" fill-rule="evenodd"/><path stroke="#000000" stroke-width="1.0" stroke-linejoin="round" stroke-linecap="butt" d="m22.411861 282.41275c-2.1521397 8.318787 -7.6185274 16.400452 -14.412073 23.91681" fill-rule="evenodd"/><path fill="#000000" fill-opacity="0.0" d="m17.264881 294.37115c6.8441467 -0.6307678 13.646828 -1.7075195 20.5853 -1.7075195" fill-rule="evenodd"/><path stroke="#000000" stroke-width="1.0" stroke-linejoin="round" stroke-linecap="butt" d="m17.264881 294.37115c6.8441467 -0.6307678 13.646828 -1.7075195 20.5853 -1.7075195" fill-rule="evenodd"/><path fill="#000000" fill-opacity="0.0" d="m48.145115 282.41275c-6.6152267 4.5767517 -9.448231 10.504303 -13.380577 15.945526c-0.90057373 1.2461243 -1.397068 3.9856567 1.0288734 3.9856567" fill-rule="evenodd"/><path stroke="#000000" stroke-width="1.0" stroke-linejoin="round" stroke-linecap="butt" d="m48.145115 282.41275c-6.6152267 4.5767517 -9.448231 10.504303 -13.380577 15.945526c-0.90057373 1.2461243 -1.397068 3.9856567 1.0288734 3.9856567" fill-rule="evenodd"/><path fill="#000000" fill-opacity="0.0" d="m46.16121 298.87485c4.1364136 3.052948 20.587929 2.6769714 20.587929 -1.1383667c0 -3.6661377 -13.354195 -6.2751465 -18.530186 -3.9856262c-6.2332687 2.7571716 2.3130722 11.958405 10.293964 11.958405" fill-rule="evenodd"/><path stroke="#000000" stroke-width="1.0" stroke-linejoin="round" stroke-linecap="butt" d="m46.16121 298.87485c4.1364136 3.052948 20.587929 2.6769714 20.587929 -1.1383667c0 -3.6661377 -13.354195 -6.2751465 -18.530186 -3.9856262c-6.2332687 2.7571716 2.3130722 11.958405 10.293964 11.958405" fill-rule="evenodd"/><path fill="#000000" fill-opacity="0.0" d="m66.75044 299.83716c11.982132 1.3250122 20.640305 -9.277771 22.648293 -15.945526c0.46488953 -1.5437012 4.4115753 -3.686737 2.057747 -4.55484c-11.770889 -4.341095 -20.297295 17.243195 -10.293961 22.777039c10.774391 5.960388 37.531303 -14.536133 26.763779 -20.500336c-1.5335541 -0.8494568 -4.6413193 0.29089355 -6.1758575 1.139801c-8.748047 4.8394165 -10.313866 20.500336 2.057747 20.500336" fill-rule="evenodd"/><path stroke="#000000" stroke-width="1.0" stroke-linejoin="round" stroke-linecap="butt" d="m66.75044 299.83716c11.982132 1.3250122 20.640305 -9.277771 22.648293 -15.945526c0.46488953 -1.5437012 4.4115753 -3.686737 2.057747 -4.55484c-11.770889 -4.341095 -20.297295 17.243195 -10.293961 22.777039c10.774391 5.960388 37.531303 -14.536133 26.763779 -20.500336c-1.5335541 -0.8494568 -4.6413193 0.29089355 -6.1758575 1.139801c-8.748047 4.8394165 -10.313866 20.500336 2.057747 20.500336" fill-rule="evenodd"/><path fill="#000000" fill-opacity="0.0" d="m122.33878 295.2815c-5.3681564 -0.74194336 -13.5028 1.5369568 -14.412071 4.5562744c-0.83823395 2.7834473 7.7159576 7.6899414 11.322838 5.6946106c3.9128418 -2.1645813 5.380974 -6.663788 2.0603638 -9.112549c-2.708458 -1.9973145 -9.345184 -2.2538147 -13.383202 -1.1383362" fill-rule="evenodd"/><path stroke="#000000" stroke-width="1.0" stroke-linejoin="round" stroke-linecap="butt" d="m122.33878 295.2815c-5.3681564 -0.74194336 -13.5028 1.5369568 -14.412071 4.5562744c-0.83823395 2.7834473 7.7159576 7.6899414 11.322838 5.6946106c3.9128418 -2.1645813 5.380974 -6.663788 2.0603638 -9.112549c-2.708458 -1.9973145 -9.345184 -2.2538147 -13.383202 -1.1383362" fill-rule="evenodd"/><path fill="#000000" fill-opacity="0.0" d="m162.8782 280.7379c-3.808792 6.3264465 -13.12114 16.234528 -3.0892334 19.931152c5.4855804 2.0213623 11.784302 -3.7993164 15.440933 -6.832947c1.875 -1.555542 5.6280212 -6.7981567 4.1181183 -5.125458c-3.8811798 4.2996216 -10.264969 10.840424 -4.1181183 14.236542c9.628693 5.319824 22.645676 -11.263214 22.645676 -18.791382" fill-rule="evenodd"/><path stroke="#000000" stroke-width="1.0" stroke-linejoin="round" stroke-linecap="butt" d="m162.8782 280.7379c-3.808792 6.3264465 -13.12114 16.234528 -3.0892334 19.931152c5.4855804 2.0213623 11.784302 -3.7993164 15.440933 -6.832947c1.875 -1.555542 5.6280212 -6.7981567 4.1181183 -5.125458c-3.8811798 4.2996216 -10.264969 10.840424 -4.1181183 14.236542c9.628693 5.319824 22.645676 -11.263214 22.645676 -18.791382" fill-rule="evenodd"/><path fill="#000000" fill-opacity="0.0" d="m209.10188 291.67334c-7.899109 0 -20.156021 8.569824 -13.383209 10.8186035c5.303894 1.7610779 12.675476 -2.6335754 15.4409485 -5.6946106c2.2804108 -2.524109 -9.043961 -8.219177 -11.32283 -5.6946106c-2.5696564 2.8466797 10.718033 2.84729 16.469818 2.84729" fill-rule="evenodd"/><path stroke="#000000" stroke-width="1.0" stroke-linejoin="round" stroke-linecap="butt" d="m209.10188 291.67334c-7.899109 0 -20.156021 8.569824 -13.383209 10.8186035c5.303894 1.7610779 12.675476 -2.6335754 15.4409485 -5.6946106c2.2804108 -2.524109 -9.043961 -8.219177 -11.32283 -5.6946106c-2.5696564 2.8466797 10.718033 2.84729 16.469818 2.84729" fill-rule="evenodd"/><path fill="#000000" fill-opacity="0.0" d="m222.48291 291.10242c-0.97309875 3.2326355 -0.4386139 12.612518 -3.0892487 9.681732c-2.8848724 -3.1897888 3.201828 -7.45343 8.236221 -9.681732c2.143692 -0.948822 10.981628 0 8.236221 0" fill-rule="evenodd"/><path stroke="#000000" stroke-width="1.0" stroke-linejoin="round" stroke-linecap="butt" d="m222.48291 291.10242c-0.97309875 3.2326355 -0.4386139 12.612518 -3.0892487 9.681732c-2.8848724 -3.1897888 3.201828 -7.45343 8.236221 -9.681732c2.143692 -0.948822 10.981628 0 8.236221 0" fill-rule="evenodd"/><path fill="#000000" fill-opacity="0.0" d="m229.68745 303.6318c17.06746 0 37.79573 -17.806885 25.73491 -24.487457c-1.9547577 -1.0827332 -5.968277 0.90927124 -7.204727 2.2781372c-6.2282104 6.895294 -5.2580566 26.225708 7.204727 22.778503" fill-rule="evenodd"/><path stroke="#000000" stroke-width="1.0" stroke-linejoin="round" stroke-linecap="butt" d="m229.68745 303.6318c17.06746 0 37.79573 -17.806885 25.73491 -24.487457c-1.9547577 -1.0827332 -5.968277 0.90927124 -7.204727 2.2781372c-6.2282104 6.895294 -5.2580566 26.225708 7.204727 22.778503" fill-rule="evenodd"/><path fill="#000000" fill-opacity="0.0" d="m270.17972 295.43256c-5.0664062 0 -11.735687 6.1495056 -7.204712 7.4035645c6.052765 1.675293 8.653442 -6.0492554 10.293945 -9.681702c1.4162903 -3.1359558 6.8718567 -9.680298 1.0288696 -9.680298c-2.086975 0 -0.52297974 2.2964172 -1.0288696 3.416504c-2.434845 5.3912964 -1.4556274 11.891571 4.1181335 16.514679" fill-rule="evenodd"/><path stroke="#000000" stroke-width="1.0" stroke-linejoin="round" stroke-linecap="butt" d="m270.17972 295.43256c-5.0664062 0 -11.735687 6.1495056 -7.204712 7.4035645c6.052765 1.675293 8.653442 -6.0492554 10.293945 -9.681702c1.4162903 -3.1359558 6.8718567 -9.680298 1.0288696 -9.680298c-2.086975 0 -0.52297974 2.2964172 -1.0288696 3.416504c-2.434845 5.3912964 -1.4556274 11.891571 4.1181335 16.514679" fill-rule="evenodd"/><path fill="#000000" fill-opacity="0.0" d="m239.44751 40.629395l0 45.95276" fill-rule="evenodd"/><path stroke="#000000" stroke-width="4.0" stroke-linejoin="round" stroke-linecap="butt" d="m239.44751 40.629395l0 21.952759" fill-rule="evenodd"/><path fill="#000000" stroke="#000000" stroke-width="4.0" stroke-linecap="butt" d="m232.84058 62.582157l6.6069336 18.152386l6.6069336 -18.152386z" fill-rule="evenodd"/><path fill="#000000" fill-opacity="0.0" d="m239.44751 228.40945l0 45.95276" fill-rule="evenodd"/><path stroke="#000000" stroke-width="4.0" stroke-linejoin="round" stroke-linecap="butt" d="m239.44751 228.40945l0 21.952744" fill-rule="evenodd"/><path fill="#000000" stroke="#000000" stroke-width="4.0" stroke-linecap="butt" d="m232.84058 250.36221l6.6069336 18.152374l6.6069336 -18.152374z" fill-rule="evenodd"/><path fill="#d0e0e3" d="m611.7559 110.22179l0 0c0 -13.054794 10.583008 -23.637794 23.637756 -23.637794l148.81891 0c6.269165 0 12.281494 2.4904022 16.714478 6.9233475c4.4329224 4.4329453 6.92334 10.4453125 6.92334 16.714447l0 94.55118c0 13.054794 -10.583008 23.637802 -23.637817 23.637802l-148.81891 0c-13.054749 0 -23.637756 -10.583008 -23.637756 -23.637802z" fill-rule="evenodd"/><path stroke="#00ffff" stroke-width="3.0" stroke-linejoin="round" stroke-linecap="butt" d="m611.7559 110.22179l0 0c0 -13.054794 10.583008 -23.637794 23.637756 -23.637794l148.81891 0c6.269165 0 12.281494 2.4904022 16.714478 6.9233475c4.4329224 4.4329453 6.92334 10.4453125 6.92334 16.714447l0 94.55118c0 13.054794 -10.583008 23.637802 -23.637817 23.637802l-148.81891 0c-13.054749 0 -23.637756 -10.583008 -23.637756 -23.637802z" fill-rule="evenodd"/><path fill="#000000" d="m663.8011 158.433l3.28125 5.984375l2.8125 0l0 -1.03125l-0.171875 0q-0.375 0 -0.671875 -0.046875q-0.296875 -0.0625 -0.53125 -0.25q-0.234375 -0.1875 -0.453125 -0.515625l-2.640625 -4.5625l-1.625 0.421875zm-2.546875 4.765625l0 -10.90625l2.296875 0q0.96875 0 1.59375 0.3125q0.640625 0.296875 0.9375 0.90625q0.3125 0.59375 0.3125 1.453125q0 0.859375 -0.3125 1.484375q-0.296875 0.625 -0.953125 0.96875q-0.65625 0.328125 -1.671875 0.328125l-2.484375 0l0 1.0625l2.875 0q0.1875 0 0.359375 -0.03125q0.171875 -0.046875 0.359375 -0.09375q0.1875 -0.0625 0.375 -0.140625q1.03125 -0.25 1.765625 -0.75q0.734375 -0.515625 1.140625 -1.25q0.421875 -0.75 0.421875 -1.703125q0 -1.15625 -0.5625 -1.96875q-0.5625 -0.828125 -1.609375 -1.265625q-1.046875 -0.4375 -2.515625 -0.4375l-5.84375 0l0 1.015625l0.203125 0q0.703125 0 1.140625 0.125q0.453125 0.125 0.453125 0.546875l0 9.859375q0 0.421875 -0.453125 0.546875q-0.4375 0.125 -1.140625 0.125l-0.203125 0l0 1.03125l5.4375 0l0 -1.03125l-0.328125 0q-0.265625 0 -0.5625 0q-0.28125 -0.015625 -0.515625 -0.03125q-0.234375 -0.03125 -0.375 -0.0625q-0.140625 -0.03125 -0.140625 -0.09375zm11.451416 -3.6875q0 1.078125 0.25 1.84375q0.25 0.765625 0.71875 1.234375q0.46875 0.46875 1.078125 0.6875q0.609375 0.21875 1.3125 0.21875q0.78125 0 1.359375 -0.265625q0.578125 -0.28125 1.0 -0.703125q0.421875 -0.4375 0.71875 -0.921875l0.890625 0.71875q-0.34375 0.65625 -0.9375 1.1875q-0.578125 0.53125 -1.359375 0.828125q-0.765625 0.28125 -1.71875 0.28125q-1.40625 0 -2.546875 -0.59375q-1.140625 -0.59375 -1.8125 -1.75q-0.65625 -1.15625 -0.65625 -2.78125q0 -1.59375 0.609375 -2.765625q0.609375 -1.1875 1.65625 -1.84375q1.0625 -0.671875 2.421875 -0.671875q1.09375 0 1.890625 0.359375q0.8125 0.34375 1.34375 1.0625q0.546875 0.703125 0.828125 1.765625q0.28125 1.0625 0.28125 2.484375l-7.71875 0l0 -1.078125l6.484375 0l-0.484375 0.40625q-0.03125 -1.0625 -0.1875 -1.796875q-0.15625 -0.75 -0.46875 -1.203125q-0.3125 -0.453125 -0.796875 -0.65625q-0.484375 -0.203125 -1.171875 -0.203125q-0.65625 0 -1.203125 0.25q-0.546875 0.25 -0.953125 0.78125q-0.40625 0.515625 -0.625 1.296875q-0.203125 0.78125 -0.203125 1.828125zm14.29248 3.984375q0.8125 0 1.40625 -0.265625q0.59375 -0.28125 1.0 -0.71875q0.421875 -0.4375 0.75 -0.921875l0.875 0.71875q-0.375 0.671875 -0.96875 1.203125q-0.578125 0.53125 -1.359375 0.828125q-0.765625 0.28125 -1.75 0.28125q-1.578125 0 -2.734375 -0.640625q-1.140625 -0.640625 -1.765625 -1.8125q-0.609375 -1.171875 -0.609375 -2.75q0 -1.609375 0.640625 -2.765625q0.640625 -1.171875 1.796875 -1.796875q1.171875 -0.640625 2.765625 -0.640625q0.984375 0 1.71875 0.171875q0.75 0.15625 1.25 0.375q0.515625 0.21875 0.734375 0.390625l0 2.828125l-1.6875 0l0 -2.40625q0.1875 0.015625 0.359375 0.09375q0.171875 0.0625 0.28125 0.171875q0.109375 0.109375 0.15625 0.25q0.0625 0.125 0.0625 0.265625q-0.40625 -0.421875 -1.171875 -0.703125q-0.765625 -0.296875 -1.703125 -0.296875q-1.171875 0 -1.9375 0.484375q-0.765625 0.46875 -1.140625 1.390625q-0.359375 0.90625 -0.359375 2.1875q0 0.984375 0.203125 1.75q0.203125 0.765625 0.625 1.296875q0.421875 0.515625 1.046875 0.78125q0.640625 0.25 1.515625 0.25zm15.652222 -4.078125q0 1.578125 -0.625 2.765625q-0.625 1.171875 -1.765625 1.8125q-1.125 0.625 -2.625 0.625q-1.53125 0 -2.671875 -0.625q-1.125 -0.640625 -1.75 -1.8125q-0.625 -1.1875 -0.625 -2.765625q0 -1.1875 0.359375 -2.140625q0.359375 -0.96875 1.03125 -1.65625q0.671875 -0.6875 1.59375 -1.046875q0.921875 -0.359375 2.0625 -0.359375q1.140625 0 2.046875 0.359375q0.921875 0.359375 1.59375 1.046875q0.671875 0.6875 1.015625 1.65625q0.359375 0.953125 0.359375 2.140625zm-8.296875 0q0 1.34375 0.359375 2.265625q0.375 0.90625 1.09375 1.359375q0.734375 0.453125 1.828125 0.453125q1.078125 0 1.796875 -0.453125q0.734375 -0.453125 1.09375 -1.359375q0.375 -0.921875 0.375 -2.265625q0 -1.3125 -0.375 -2.203125q-0.359375 -0.90625 -1.09375 -1.375q-0.71875 -0.484375 -1.796875 -0.484375q-1.09375 0 -1.828125 0.484375q-0.71875 0.46875 -1.09375 1.375q-0.359375 0.890625 -0.359375 2.203125zm20.60669 -3.90625q-0.859375 -0.03125 -1.46875 -0.015625q-0.59375 0.015625 -1.015625 0.109375q-0.421875 0.09375 -0.703125 0.328125l-0.28125 -0.078125q0.25 -0.59375 0.578125 -1.015625q0.34375 -0.4375 0.75 -0.703125q0.421875 -0.265625 0.953125 -0.359375q0.53125 -0.09375 1.1875 -0.03125l0 1.765625zm-5.984375 5.859375q-1.15625 0 -2.046875 -0.4375q-0.890625 -0.4375 -1.390625 -1.234375q-0.484375 -0.796875 -0.484375 -1.890625q0 -1.0625 0.5 -1.875q0.515625 -0.8125 1.390625 -1.265625q0.890625 -0.453125 2.03125 -0.453125q1.15625 0 2.046875 0.453125q0.890625 0.453125 1.390625 1.265625q0.515625 0.8125 0.515625 1.875q0 1.09375 -0.515625 1.890625q-0.5 0.796875 -1.390625 1.234375q-0.875 0.4375 -2.046875 0.4375zm0 -1.09375q0.75 0 1.25 -0.28125q0.515625 -0.28125 0.78125 -0.828125q0.265625 -0.546875 0.265625 -1.359375q0 -0.796875 -0.265625 -1.359375q-0.265625 -0.5625 -0.78125 -0.84375q-0.5 -0.296875 -1.25 -0.296875q-0.734375 0 -1.234375 0.296875q-0.5 0.28125 -0.765625 0.84375q-0.265625 0.5625 -0.265625 1.359375q0 0.8125 0.265625 1.359375q0.265625 0.546875 0.765625 0.828125q0.5 0.28125 1.234375 0.28125zm-0.828125 8.6875q-1.203125 0 -2.15625 -0.234375q-0.9375 -0.234375 -1.484375 -0.75q-0.53125 -0.5 -0.53125 -1.34375q0 -0.546875 0.234375 -0.953125q0.25 -0.40625 0.75 -0.765625q0.5 -0.34375 1.265625 -0.75l0.5625 0.359375q-0.484375 0.34375 -0.78125 0.640625q-0.28125 0.3125 -0.40625 0.609375q-0.109375 0.296875 -0.109375 0.65625q0 0.453125 0.265625 0.75q0.265625 0.3125 0.859375 0.484375q0.609375 0.1875 1.59375 0.1875l1.578125 0q1.0 0 1.6875 -0.234375q0.6875 -0.234375 1.0625 -0.671875q0.375 -0.421875 0.375 -1.015625q0 -0.5625 -0.375 -0.84375q-0.375 -0.265625 -1.328125 -0.265625l-4.265625 0l-0.046875 0q-0.78125 -0.15625 -1.296875 -0.40625q-0.515625 -0.265625 -0.75 -0.625q-0.21875 -0.375 -0.21875 -0.84375q0 -0.515625 0.25 -0.921875q0.25 -0.421875 0.71875 -0.796875q0.484375 -0.390625 1.15625 -0.734375l0.5625 0.390625q-0.40625 0.28125 -0.65625 0.53125q-0.25 0.25 -0.375 0.484375q-0.125 0.234375 -0.125 0.515625q0 0.4375 0.359375 0.640625q0.359375 0.1875 1.0625 0.1875l3.640625 0q1.046875 0 1.75 0.265625q0.71875 0.25 1.09375 0.78125q0.390625 0.53125 0.390625 1.375q0 1.125 -0.640625 1.859375q-0.625 0.734375 -1.6875 1.078125q-1.0625 0.359375 -2.34375 0.359375l-1.640625 0zm7.856262 -4.546875l0 -0.890625l0.0625 0q0.484375 0 0.828125 -0.078125q0.359375 -0.09375 0.546875 -0.328125q0.1875 -0.234375 0.1875 -0.640625l0 -6.234375q0 -0.28125 -0.15625 -0.421875q-0.15625 -0.140625 -0.484375 -0.234375q-0.3125 -0.09375 -0.796875 -0.1875l-0.1875 -0.03125l0 -0.96875l2.984375 0l0.234375 2.125l0.0625 0.09375l0 6.71875q0 0.046875 0.21875 0.09375q0.234375 0.046875 0.546875 0.078125q0.328125 0.015625 0.578125 0.015625l0.078125 0l0 0.890625l-4.703125 0zm11.3125 0l-4.703125 0l0 -0.890625l0.046875 0q0.265625 0 0.578125 -0.015625q0.328125 -0.03125 0.5625 -0.078125q0.234375 -0.046875 0.234375 -0.09375l0 -6.109375q0 -0.609375 -0.171875 -1.0q-0.15625 -0.390625 -0.515625 -0.578125q-0.34375 -0.203125 -0.9375 -0.203125q-0.625 0 -1.21875 0.25q-0.578125 0.234375 -1.125 0.71875q-0.546875 0.484375 -1.109375 1.25l0 -1.015625q0.53125 -0.796875 1.125 -1.328125q0.609375 -0.546875 1.28125 -0.828125q0.6875 -0.28125 1.46875 -0.28125q0.921875 0 1.546875 0.3125q0.625 0.296875 0.96875 0.921875q0.34375 0.625 0.34375 1.578125l0 5.453125q0 0.40625 0.1875 0.640625q0.1875 0.234375 0.53125 0.328125q0.359375 0.078125 0.84375 0.078125l0.0625 0l0 0.890625zm3.6086426 -12.078125q-0.53125 0 -0.875 -0.296875q-0.328125 -0.296875 -0.328125 -0.890625q0 -0.578125 0.328125 -0.875q0.34375 -0.296875 0.875 -0.296875q0.53125 0 0.875 0.296875q0.34375 0.296875 0.34375 0.875q0 0.59375 -0.34375 0.890625q-0.34375 0.296875 -0.875 0.296875zm0.953125 2.0625l0 8.171875q0 0.578125 0.421875 0.765625q0.4375 0.1875 1.171875 0.1875l0.046875 0l0 0.890625l-4.921875 0l0 -0.890625l0.0625 0q0.71875 0 1.140625 -0.1875q0.4375 -0.1875 0.4375 -0.765625l0 -6.328125q0 -0.40625 -0.359375 -0.546875q-0.34375 -0.140625 -1.09375 -0.296875l-0.1875 -0.03125l0 -0.96875l3.28125 0zm4.484192 9.15625l-0.203125 -0.265625l3.40625 0q0.5625 0 0.953125 -0.015625q0.40625 -0.03125 0.671875 -0.109375q0.28125 -0.09375 0.40625 -0.25q0.140625 -0.171875 0.171875 -0.4375l0.21875 -1.609375l1.09375 0l0 3.546875l-8.234375 0l0 -1.25l6.421875 -7.859375l0.28125 0.1875l-2.984375 0q-0.578125 0 -0.984375 0.03125q-0.40625 0.03125 -0.65625 0.125q-0.25 0.078125 -0.390625 0.234375q-0.140625 0.15625 -0.171875 0.421875l-0.203125 1.359375l-1.0625 0l0 -3.265625l7.734375 0l0 1.171875l-6.46875 7.984375zm9.923523 -4.046875q0 1.078125 0.25 1.84375q0.25 0.765625 0.71875 1.234375q0.46875 0.46875 1.078125 0.6875q0.609375 0.21875 1.3125 0.21875q0.78125 0 1.359375 -0.265625q0.578125 -0.28125 1.0 -0.703125q0.421875 -0.4375 0.71875 -0.921875l0.890625 0.71875q-0.34375 0.65625 -0.9375 1.1875q-0.578125 0.53125 -1.359375 0.828125q-0.765625 0.28125 -1.71875 0.28125q-1.40625 0 -2.546875 -0.59375q-1.140625 -0.59375 -1.8125 -1.75q-0.65625 -1.15625 -0.65625 -2.78125q0 -1.59375 0.609375 -2.765625q0.609375 -1.1875 1.65625 -1.84375q1.0625 -0.671875 2.421875 -0.671875q1.09375 0 1.890625 0.359375q0.8125 0.34375 1.34375 1.0625q0.546875 0.703125 0.828125 1.765625q0.28125 1.0625 0.28125 2.484375l-7.71875 0l0 -1.078125l6.484375 0l-0.484375 0.40625q-0.03125 -1.0625 -0.1875 -1.796875q-0.15625 -0.75 -0.46875 -1.203125q-0.3125 -0.453125 -0.796875 -0.65625q-0.484375 -0.203125 -1.171875 -0.203125q-0.65625 0 -1.203125 0.25q-0.546875 0.25 -0.953125 0.78125q-0.40625 0.515625 -0.625 1.296875q-0.203125 0.78125 -0.203125 1.828125zm15.964722 -5.25l0 1.796875q-0.125 -0.03125 -0.3125 -0.046875q-0.1875 -0.03125 -0.390625 -0.046875q-0.1875 -0.015625 -0.375 -0.015625q-0.515625 0 -0.9375 0.109375q-0.40625 0.09375 -0.75 0.3125q-0.34375 0.21875 -0.65625 0.5625q-0.3125 0.328125 -0.65625 0.8125l0 -0.859375q0.46875 -0.875 0.953125 -1.46875q0.5 -0.609375 1.09375 -0.90625q0.59375 -0.3125 1.34375 -0.3125q0.21875 0 0.421875 0.015625q0.203125 0.015625 0.265625 0.046875zm-7.03125 10.15625l0 -0.890625l0.0625 0q0.71875 0 1.140625 -0.203125q0.421875 -0.21875 0.421875 -0.84375l0 -6.234375q0 -0.28125 -0.15625 -0.421875q-0.15625 -0.140625 -0.484375 -0.234375q-0.3125 -0.09375 -0.796875 -0.1875l-0.1875 -0.03125l0 -0.96875l2.984375 0l0.234375 2.5l0.0625 -0.078125l0 6.28125q0 0.171875 0.265625 0.265625q0.265625 0.09375 0.609375 0.125q0.359375 0.03125 0.625 0.03125l0.40625 0l0 0.890625l-5.1875 0z" fill-rule="nonzero"/><path fill="#ffffff" d="m600.46326 8.000788l218.67719 0l0 32.62992l-218.67719 0z" fill-rule="evenodd"/><path stroke="#000000" stroke-width="1.0" stroke-linejoin="round" stroke-linecap="butt" d="m600.46326 8.000788l218.67719 0l0 32.62992l-218.67719 0z" fill-rule="evenodd"/><path fill="#000000" d="m664.15704 18.348873l0.90625 0.609375q-0.359375 0.203125 -0.6875 0.4375q-0.3125 0.21875 -0.546875 0.5q-0.234375 0.265625 -0.375 0.59375q-0.125 0.3125 -0.140625 0.734375l-0.25 -0.109375q0.140625 -0.09375 0.28125 -0.109375q0.140625 -0.015625 0.265625 -0.015625q0.453125 0 0.71875 0.21875q0.28125 0.203125 0.28125 0.625q0 0.375 -0.28125 0.625q-0.265625 0.25 -0.71875 0.25q-0.53125 0 -0.8125 -0.296875q-0.265625 -0.296875 -0.265625 -0.953125q0 -0.546875 0.109375 -1.0q0.125 -0.46875 0.328125 -0.84375q0.21875 -0.390625 0.515625 -0.703125q0.296875 -0.3125 0.671875 -0.5625zm-3.21875 0l0.90625 0.609375q-0.375 0.203125 -0.6875 0.4375q-0.3125 0.21875 -0.546875 0.5q-0.234375 0.265625 -0.375 0.59375q-0.125 0.3125 -0.140625 0.734375l-0.265625 -0.109375q0.15625 -0.09375 0.28125 -0.109375q0.140625 -0.015625 0.28125 -0.015625q0.453125 0 0.71875 0.21875q0.28125 0.203125 0.28125 0.625q0 0.375 -0.28125 0.625q-0.265625 0.25 -0.71875 0.25q-0.53125 0 -0.8125 -0.296875q-0.28125 -0.296875 -0.28125 -0.953125q0 -0.546875 0.109375 -1.0q0.125 -0.46875 0.34375 -0.84375q0.21875 -0.390625 0.515625 -0.703125q0.296875 -0.3125 0.671875 -0.5625zm7.7957764 5.25l6.171875 0l0 0.875l-6.171875 0l0 -0.875zm-2.390625 5.796875l0 -0.8125l0.15625 0q0.546875 0 0.890625 -0.09375q0.359375 -0.109375 0.359375 -0.421875l0 -7.765625q0 -0.3125 -0.359375 -0.40625q-0.34375 -0.109375 -0.890625 -0.109375l-0.15625 0l0 -0.796875l4.171875 0l0 0.796875l-0.125 0q-0.21875 0 -0.453125 0.015625q-0.21875 0 -0.40625 0.015625q-0.1875 0.015625 -0.3125 0.046875q-0.109375 0.015625 -0.109375 0.0625l0 8.53125q0 0.046875 0.109375 0.078125q0.125 0.015625 0.3125 0.03125q0.1875 0.015625 0.40625 0.015625q0.234375 0 0.453125 0l0.125 0l0 0.8125l-4.171875 0zm6.78125 0l0 -0.796875l0.125 0q0.21875 0 0.4375 -0.015625q0.234375 -0.015625 0.421875 -0.015625q0.1875 -0.015625 0.296875 -0.03125q0.125 -0.03125 0.125 -0.078125l0 -8.53125q0 -0.046875 -0.125 -0.0625q-0.109375 -0.03125 -0.296875 -0.046875q-0.1875 -0.015625 -0.421875 -0.015625q-0.21875 -0.015625 -0.4375 -0.015625l-0.125 0l0 -0.796875l4.171875 0l0 0.796875l-0.15625 0q-0.546875 0 -0.90625 0.109375q-0.34375 0.09375 -0.34375 0.40625l0 7.765625q0 0.3125 0.34375 0.421875q0.359375 0.09375 0.90625 0.09375l0.15625 0l0 0.8125l-4.171875 0zm6.8239136 -3.859375q0 0.859375 0.203125 1.46875q0.203125 0.59375 0.5625 0.96875q0.375 0.359375 0.84375 0.53125q0.484375 0.171875 1.03125 0.171875q0.625 0 1.078125 -0.21875q0.453125 -0.21875 0.78125 -0.546875q0.328125 -0.34375 0.5625 -0.734375l0.703125 0.578125q-0.28125 0.515625 -0.734375 0.9375q-0.453125 0.40625 -1.0625 0.640625q-0.609375 0.21875 -1.359375 0.21875q-1.109375 0 -2.0 -0.46875q-0.890625 -0.46875 -1.421875 -1.375q-0.515625 -0.90625 -0.515625 -2.1875q0 -1.234375 0.46875 -2.15625q0.484375 -0.9375 1.3125 -1.453125q0.828125 -0.53125 1.890625 -0.53125q0.875 0 1.5 0.28125q0.625 0.28125 1.046875 0.84375q0.4375 0.546875 0.65625 1.390625q0.21875 0.828125 0.21875 1.9375l-6.0625 0l0 -0.84375l5.09375 0l-0.375 0.3125q-0.03125 -0.828125 -0.15625 -1.40625q-0.125 -0.578125 -0.375 -0.9375q-0.234375 -0.359375 -0.625 -0.515625q-0.375 -0.171875 -0.921875 -0.171875q-0.5 0 -0.9375 0.203125q-0.4375 0.1875 -0.75 0.609375q-0.3125 0.40625 -0.484375 1.03125q-0.171875 0.609375 -0.171875 1.421875zm9.482849 -7.25l0 9.65625q0 0.453125 0.34375 0.609375q0.34375 0.140625 0.90625 0.140625l0.046875 0l0 0.703125l-3.875 0l0 -0.703125l0.0625 0q0.578125 0 0.90625 -0.140625q0.328125 -0.15625 0.328125 -0.609375l0 -8.203125q0 -0.21875 -0.125 -0.328125q-0.125 -0.109375 -0.375 -0.1875q-0.25 -0.078125 -0.640625 -0.140625l-0.15625 -0.03125l0 -0.765625l2.578125 0zm4.8952026 0l0 9.65625q0 0.453125 0.34375 0.609375q0.34375 0.140625 0.90625 0.140625l0.046875 0l0 0.703125l-3.875 0l0 -0.703125l0.0625 0q0.578125 0 0.90625 -0.140625q0.328125 -0.15625 0.328125 -0.609375l0 -8.203125q0 -0.21875 -0.125 -0.328125q-0.125 -0.109375 -0.375 -0.1875q-0.25 -0.078125 -0.640625 -0.140625l-0.15625 -0.03125l0 -0.765625l2.578125 0zm10.285828 7.1875q0 1.234375 -0.5 2.171875q-0.484375 0.921875 -1.375 1.421875q-0.890625 0.484375 -2.078125 0.484375q-1.203125 0 -2.09375 -0.484375q-0.875 -0.5 -1.375 -1.421875q-0.484375 -0.9375 -0.484375 -2.171875q0 -0.9375 0.28125 -1.6875q0.28125 -0.765625 0.796875 -1.296875q0.53125 -0.546875 1.25 -0.828125q0.734375 -0.28125 1.625 -0.28125q0.90625 0 1.609375 0.28125q0.71875 0.28125 1.25 0.828125q0.53125 0.53125 0.8125 1.296875q0.28125 0.75 0.28125 1.6875zm-6.53125 0q0 1.046875 0.296875 1.765625q0.296875 0.71875 0.859375 1.078125q0.578125 0.359375 1.421875 0.359375q0.859375 0 1.421875 -0.359375q0.578125 -0.359375 0.859375 -1.078125q0.28125 -0.71875 0.28125 -1.765625q0 -1.03125 -0.28125 -1.734375q-0.28125 -0.71875 -0.859375 -1.09375q-0.5625 -0.375 -1.421875 -0.375q-0.84375 0 -1.421875 0.375q-0.5625 0.375 -0.859375 1.09375q-0.296875 0.703125 -0.296875 1.734375zm11.242432 -6.484375l3.765625 0l0 0.796875l-0.25 0q-0.25 0 -0.515625 0.015625q-0.265625 0.015625 -0.46875 0.046875q-0.1875 0.03125 -0.1875 0.09375l2.203125 8.71875l-0.171875 0l2.390625 -9.671875l1.5625 0l2.484375 9.625l-0.171875 0l2.09375 -8.53125q0 -0.078125 -0.1875 -0.15625q-0.171875 -0.078125 -0.4375 -0.109375q-0.265625 -0.03125 -0.515625 -0.03125l-0.21875 0l0 -0.796875l3.34375 0l0 0.796875l-0.09375 0q-0.390625 0 -0.671875 0.140625q-0.265625 0.140625 -0.34375 0.5l-2.234375 8.96875l-1.578125 0l-2.5 -9.546875l0.171875 0l-2.359375 9.546875l-1.609375 0l-2.40625 -9.109375q-0.09375 -0.359375 -0.34375 -0.421875q-0.234375 -0.078125 -0.65625 -0.078125l-0.09375 0l0 -0.796875zm23.018188 6.484375q0 1.234375 -0.5 2.171875q-0.484375 0.921875 -1.375 1.421875q-0.890625 0.484375 -2.078125 0.484375q-1.203125 0 -2.09375 -0.484375q-0.875 -0.5 -1.375 -1.421875q-0.484375 -0.9375 -0.484375 -2.171875q0 -0.9375 0.28125 -1.6875q0.28125 -0.765625 0.796875 -1.296875q0.53125 -0.546875 1.25 -0.828125q0.734375 -0.28125 1.625 -0.28125q0.90625 0 1.609375 0.28125q0.71875 0.28125 1.25 0.828125q0.53125 0.53125 0.8125 1.296875q0.28125 0.75 0.28125 1.6875zm-6.53125 0q0 1.046875 0.296875 1.765625q0.296875 0.71875 0.859375 1.078125q0.578125 0.359375 1.421875 0.359375q0.859375 0 1.421875 -0.359375q0.578125 -0.359375 0.859375 -1.078125q0.28125 -0.71875 0.28125 -1.765625q0 -1.03125 -0.28125 -1.734375q-0.28125 -0.71875 -0.859375 -1.09375q-0.5625 -0.375 -1.421875 -0.375q-0.84375 0 -1.421875 0.375q-0.5625 0.375 -0.859375 1.09375q-0.296875 0.703125 -0.296875 1.734375zm13.369263 -4.046875l0 1.40625q-0.109375 -0.03125 -0.25 -0.046875q-0.140625 -0.015625 -0.296875 -0.03125q-0.15625 -0.015625 -0.296875 -0.015625q-0.421875 0 -0.75 0.078125q-0.3125 0.078125 -0.59375 0.25q-0.265625 0.171875 -0.515625 0.4375q-0.234375 0.265625 -0.5 0.640625l0 -0.671875q0.359375 -0.6875 0.75 -1.15625q0.390625 -0.46875 0.859375 -0.703125q0.46875 -0.25 1.046875 -0.25q0.1875 0 0.328125 0.015625q0.15625 0.015625 0.21875 0.046875zm-5.53125 7.96875l0 -0.703125l0.046875 0q0.578125 0 0.90625 -0.15625q0.328125 -0.171875 0.328125 -0.671875l0 -4.890625q0 -0.21875 -0.125 -0.328125q-0.125 -0.109375 -0.375 -0.171875q-0.25 -0.078125 -0.625 -0.15625l-0.15625 -0.03125l0 -0.765625l2.34375 0l0.1875 1.96875l0.046875 -0.0625l0 4.9375q0 0.140625 0.203125 0.21875q0.21875 0.0625 0.484375 0.09375q0.28125 0.015625 0.5 0.015625l0.3125 0l0 0.703125l-4.078125 0zm8.99939 -11.109375l0 9.65625q0 0.453125 0.34375 0.609375q0.34375 0.140625 0.90625 0.140625l0.046875 0l0 0.703125l-3.875 0l0 -0.703125l0.0625 0q0.578125 0 0.90625 -0.140625q0.328125 -0.15625 0.328125 -0.609375l0 -8.203125q0 -0.21875 -0.125 -0.328125q-0.125 -0.109375 -0.375 -0.1875q-0.25 -0.078125 -0.640625 -0.140625l-0.15625 -0.03125l0 -0.765625l2.578125 0zm9.895203 9.75q0 0.3125 0.328125 0.421875q0.328125 0.109375 0.875 0.15625l0.078125 0.015625l0 0.765625l-2.34375 0l-0.1875 -1.71875l-0.046875 -0.015625l0 -7.921875q0 -0.21875 -0.125 -0.328125q-0.125 -0.109375 -0.390625 -0.1875q-0.25 -0.078125 -0.640625 -0.140625l-0.15625 -0.03125l0 -0.765625l2.609375 0l0 9.75zm-3.875 -6.65625q0.640625 0 1.140625 0.21875q0.515625 0.21875 0.921875 0.640625q0.421875 0.40625 0.78125 1.015625l-0.046875 0.96875q-0.375 -0.65625 -0.78125 -1.09375q-0.40625 -0.4375 -0.890625 -0.640625q-0.46875 -0.203125 -1.0625 -0.203125q-0.5625 0 -1.015625 0.21875q-0.4375 0.203125 -0.734375 0.625q-0.28125 0.40625 -0.4375 1.015625q-0.140625 0.609375 -0.140625 1.375q0 0.75 0.140625 1.34375q0.140625 0.578125 0.40625 0.984375q0.28125 0.40625 0.703125 0.609375q0.421875 0.203125 1.0 0.203125q0.609375 0 1.109375 -0.203125q0.5 -0.21875 0.921875 -0.640625q0.421875 -0.4375 0.8125 -1.09375l0.015625 0.90625q-0.390625 0.609375 -0.8125 1.046875q-0.421875 0.421875 -0.96875 0.65625q-0.53125 0.21875 -1.203125 0.21875q-1.109375 0 -1.890625 -0.5q-0.78125 -0.5 -1.203125 -1.40625q-0.40625 -0.921875 -0.40625 -2.125q0 -1.203125 0.421875 -2.140625q0.4375 -0.9375 1.25 -1.46875q0.828125 -0.53125 1.96875 -0.53125zm6.77948 1.4375l-0.90625 -0.625q0.375 -0.21875 0.6875 -0.4375q0.3125 -0.234375 0.546875 -0.484375q0.25 -0.265625 0.375 -0.59375q0.140625 -0.34375 0.140625 -0.75l0.25 0.125q-0.140625 0.0625 -0.28125 0.09375q-0.140625 0.03125 -0.265625 0.03125q-0.421875 0 -0.703125 -0.21875q-0.28125 -0.21875 -0.28125 -0.625q0 -0.40625 0.265625 -0.65625q0.28125 -0.25 0.734375 -0.25q0.515625 0 0.796875 0.3125q0.28125 0.296875 0.28125 0.953125q0 0.5625 -0.125 1.03125q-0.109375 0.453125 -0.328125 0.84375q-0.21875 0.375 -0.515625 0.6875q-0.296875 0.3125 -0.671875 0.5625zm3.21875 0l-0.90625 -0.625q0.375 -0.21875 0.6875 -0.4375q0.3125 -0.234375 0.546875 -0.484375q0.25 -0.265625 0.375 -0.59375q0.140625 -0.34375 0.140625 -0.75l0.25 0.125q-0.140625 0.0625 -0.28125 0.09375q-0.140625 0.03125 -0.265625 0.03125q-0.421875 0 -0.703125 -0.21875q-0.28125 -0.21875 -0.28125 -0.625q0 -0.40625 0.265625 -0.65625q0.28125 -0.25 0.734375 -0.25q0.515625 0 0.796875 0.3125q0.28125 0.296875 0.28125 0.953125q0 0.5625 -0.125 1.03125q-0.109375 0.453125 -0.328125 0.84375q-0.21875 0.375 -0.515625 0.6875q-0.296875 0.3125 -0.671875 0.5625z" fill-rule="nonzero"/><path fill="#ffffff" d="m478.35434 274.36765l462.8976 0l0 31.728424l-462.8976 0z" fill-rule="evenodd"/><path stroke="#000000" stroke-width="1.0" stroke-linejoin="round" stroke-linecap="butt" d="m478.35434 274.36765l462.8976 0l0 31.728424l-462.8976 0z" fill-rule="evenodd"/><path fill="#000000" fill-opacity="0.0" d="m492.76642 282.41736c-2.1521606 8.318817 -7.6185303 16.400452 -14.412079 23.91684" fill-rule="evenodd"/><path stroke="#000000" stroke-width="1.0" stroke-linejoin="round" stroke-linecap="butt" d="m492.76642 282.41736c-2.1521606 8.318817 -7.6185303 16.400452 -14.412079 23.91684" fill-rule="evenodd"/><path fill="#000000" fill-opacity="0.0" d="m487.61942 294.3758c6.8441467 -0.6307678 13.64682 -1.7075195 20.585297 -1.7075195" fill-rule="evenodd"/><path stroke="#000000" stroke-width="1.0" stroke-linejoin="round" stroke-linecap="butt" d="m487.61942 294.3758c6.8441467 -0.6307678 13.64682 -1.7075195 20.585297 -1.7075195" fill-rule="evenodd"/><path fill="#000000" fill-opacity="0.0" d="m518.49963 282.41736c-6.615204 4.576782 -9.448212 10.504303 -13.380554 15.945526c-0.90057373 1.2461243 -1.3970642 3.9856567 1.0288696 3.9856567" fill-rule="evenodd"/><path stroke="#000000" stroke-width="1.0" stroke-linejoin="round" stroke-linecap="butt" d="m518.49963 282.41736c-6.615204 4.576782 -9.448212 10.504303 -13.380554 15.945526c-0.90057373 1.2461243 -1.3970642 3.9856567 1.0288696 3.9856567" fill-rule="evenodd"/><path fill="#000000" fill-opacity="0.0" d="m516.51575 298.87946c4.1364136 3.0529785 20.587952 2.677002 20.587952 -1.1383362c0 -3.6661682 -13.354187 -6.275177 -18.530212 -3.9856567c-6.2332764 2.7571716 2.3131104 11.958405 10.293945 11.958405" fill-rule="evenodd"/><path stroke="#000000" stroke-width="1.0" stroke-linejoin="round" stroke-linecap="butt" d="m516.51575 298.87946c4.1364136 3.0529785 20.587952 2.677002 20.587952 -1.1383362c0 -3.6661682 -13.354187 -6.275177 -18.530212 -3.9856567c-6.2332764 2.7571716 2.3131104 11.958405 10.293945 11.958405" fill-rule="evenodd"/><path fill="#000000" fill-opacity="0.0" d="m537.105 299.84177c11.982117 1.3250427 20.64032 -9.277771 22.648315 -15.945526c0.46484375 -1.5437012 4.41156 -3.686737 2.0577393 -4.5548096c-11.770874 -4.341095 -20.297302 17.243195 -10.293945 22.777039c10.774353 5.960388 37.53125 -14.536163 26.763733 -20.500366c-1.5335083 -0.84942627 -4.6412964 0.29089355 -6.1758423 1.139801c-8.748047 4.8394165 -10.313843 20.500336 2.0577393 20.500336" fill-rule="evenodd"/><path stroke="#000000" stroke-width="1.0" stroke-linejoin="round" stroke-linecap="butt" d="m537.105 299.84177c11.982117 1.3250427 20.64032 -9.277771 22.648315 -15.945526c0.46484375 -1.5437012 4.41156 -3.686737 2.0577393 -4.5548096c-11.770874 -4.341095 -20.297302 17.243195 -10.293945 22.777039c10.774353 5.960388 37.53125 -14.536163 26.763733 -20.500366c-1.5335083 -0.84942627 -4.6412964 0.29089355 -6.1758423 1.139801c-8.748047 4.8394165 -10.313843 20.500336 2.0577393 20.500336" fill-rule="evenodd"/><path fill="#000000" fill-opacity="0.0" d="m592.6933 295.2861c-5.368103 -0.74194336 -13.502747 1.5369568 -14.412048 4.556305c-0.83825684 2.7834473 7.7159424 7.6899414 11.322815 5.6946106c3.9128418 -2.1645813 5.3809814 -6.663788 2.0603638 -9.112549c-2.708435 -1.997345 -9.345154 -2.2538452 -13.383179 -1.1383667" fill-rule="evenodd"/><path stroke="#000000" stroke-width="1.0" stroke-linejoin="round" stroke-linecap="butt" d="m592.6933 295.2861c-5.368103 -0.74194336 -13.502747 1.5369568 -14.412048 4.556305c-0.83825684 2.7834473 7.7159424 7.6899414 11.322815 5.6946106c3.9128418 -2.1645813 5.3809814 -6.663788 2.0603638 -9.112549c-2.708435 -1.997345 -9.345154 -2.2538452 -13.383179 -1.1383667" fill-rule="evenodd"/><path fill="#000000" fill-opacity="0.0" d="m633.2327 280.74252c-3.8087769 6.3264465 -13.121094 16.234558 -3.0892334 19.931183c5.4855957 2.0213623 11.784302 -3.799347 15.440979 -6.8329773c1.875 -1.555542 5.6279907 -6.798126 4.118103 -5.125458c-3.8811646 4.2996216 -10.265015 10.840454 -4.118103 14.236572c9.628662 5.3197937 22.64563 -11.263245 22.64563 -18.791382" fill-rule="evenodd"/><path stroke="#000000" stroke-width="1.0" stroke-linejoin="round" stroke-linecap="butt" d="m633.2327 280.74252c-3.8087769 6.3264465 -13.121094 16.234558 -3.0892334 19.931183c5.4855957 2.0213623 11.784302 -3.799347 15.440979 -6.8329773c1.875 -1.555542 5.6279907 -6.798126 4.118103 -5.125458c-3.8811646 4.2996216 -10.265015 10.840454 -4.118103 14.236572c9.628662 5.3197937 22.64563 -11.263245 22.64563 -18.791382" fill-rule="evenodd"/><path fill="#000000" fill-opacity="0.0" d="m679.4564 291.67795c-7.899109 0 -20.156006 8.569824 -13.383179 10.818634c5.303894 1.7610474 12.675476 -2.633606 15.440918 -5.6946106c2.2803955 -2.5241394 -9.043945 -8.219177 -11.322815 -5.694641c-2.569641 2.8466797 10.718018 2.8473206 16.469788 2.8473206" fill-rule="evenodd"/><path stroke="#000000" stroke-width="1.0" stroke-linejoin="round" stroke-linecap="butt" d="m679.4564 291.67795c-7.899109 0 -20.156006 8.569824 -13.383179 10.818634c5.303894 1.7610474 12.675476 -2.633606 15.440918 -5.6946106c2.2803955 -2.5241394 -9.043945 -8.219177 -11.322815 -5.694641c-2.569641 2.8466797 10.718018 2.8473206 16.469788 2.8473206" fill-rule="evenodd"/><path fill="#000000" fill-opacity="0.0" d="m692.83746 291.10706c-0.9730835 3.232605 -0.43865967 12.612488 -3.0892334 9.681732c-2.8848877 -3.1898193 3.2017822 -7.45343 8.236206 -9.681732c2.1436768 -0.94885254 10.981628 0 8.236206 0" fill-rule="evenodd"/><path stroke="#000000" stroke-width="1.0" stroke-linejoin="round" stroke-linecap="butt" d="m692.83746 291.10706c-0.9730835 3.232605 -0.43865967 12.612488 -3.0892334 9.681732c-2.8848877 -3.1898193 3.2017822 -7.45343 8.236206 -9.681732c2.1436768 -0.94885254 10.981628 0 8.236206 0" fill-rule="evenodd"/><path fill="#000000" fill-opacity="0.0" d="m700.042 303.63644c17.067444 0 37.795715 -17.806915 25.734924 -24.487457c-1.954773 -1.0827637 -5.9682617 0.9092407 -7.204712 2.2781372c-6.2282104 6.895294 -5.2580566 26.225677 7.204712 22.778473" fill-rule="evenodd"/><path stroke="#000000" stroke-width="1.0" stroke-linejoin="round" stroke-linecap="butt" d="m700.042 303.63644c17.067444 0 37.795715 -17.806915 25.734924 -24.487457c-1.954773 -1.0827637 -5.9682617 0.9092407 -7.204712 2.2781372c-6.2282104 6.895294 -5.2580566 26.225677 7.204712 22.778473" fill-rule="evenodd"/><path fill="#000000" fill-opacity="0.0" d="m740.53424 295.43716c-5.0664062 0 -11.735657 6.149536 -7.204712 7.403595c6.0527954 1.6752625 8.653442 -6.049286 10.294006 -9.681732c1.4162598 -3.1359253 6.871826 -9.680267 1.0288696 -9.680267c-2.0870361 0 -0.52301025 2.2963867 -1.0288696 3.4164734c-2.4348755 5.391327 -1.4556274 11.891571 4.118103 16.514679" fill-rule="evenodd"/><path stroke="#000000" stroke-width="1.0" stroke-linejoin="round" stroke-linecap="butt" d="m740.53424 295.43716c-5.0664062 0 -11.735657 6.149536 -7.204712 7.403595c6.0527954 1.6752625 8.653442 -6.049286 10.294006 -9.681732c1.4162598 -3.1359253 6.871826 -9.680267 1.0288696 -9.680267c-2.0870361 0 -0.52301025 2.2963867 -1.0288696 3.4164734c-2.4348755 5.391327 -1.4556274 11.891571 4.118103 16.514679" fill-rule="evenodd"/><path fill="#000000" fill-opacity="0.0" d="m709.8018 40.630707l0 45.95276" fill-rule="evenodd"/><path stroke="#000000" stroke-width="4.0" stroke-linejoin="round" stroke-linecap="butt" d="m709.8018 64.63071l0 21.952759" fill-rule="evenodd"/><path fill="#000000" stroke="#000000" stroke-width="4.0" stroke-linecap="butt" d="m716.40875 64.63071l-6.6069336 -18.15239l-6.6069336 18.15239z" fill-rule="evenodd"/><path fill="#000000" fill-opacity="0.0" d="m709.80316 228.41077l0 45.95276" fill-rule="evenodd"/><path stroke="#000000" stroke-width="4.0" stroke-linejoin="round" stroke-linecap="butt" d="m709.80316 252.41077l0 21.952759" fill-rule="evenodd"/><path fill="#000000" stroke="#000000" stroke-width="4.0" stroke-linecap="butt" d="m716.4101 252.41077l-6.6069336 -18.15239l-6.6069336 18.15239z" fill-rule="evenodd"/></g></svg>